Grand_Central-Light.ufo
<glyph name="exclam" format="1">
  <advance width="300"/>
  <unicode hex="0021"/>
  <outline>
    <contour>
      <point x="193" y="701" type="curve"/>
      <point x="192" y="684"/>
      <point x="191" y="664"/>
      <point x="191" y="634" type="curve" smooth="yes"/>
      <point x="191" y="618" type="line" smooth="yes"/>
      <point x="191" y="508"/>
      <point x="169" y="262"/>
      <point x="158" y="165" type="curve"/>
      <point x="142" y="165" type="line"/>
      <point x="132" y="260"/>
      <point x="109" y="519"/>
      <point x="109" y="605" type="curve" smooth="yes"/>
      <point x="109" y="618" type="line" smooth="yes"/>
      <point x="109" y="653"/>
      <point x="107" y="687"/>
      <point x="106" y="700" type="curve"/>
      <point x="140" y="700"/>
      <point x="165" y="700"/>
    </contour>
    <contour>
      <point x="206" y="51" type="curve" smooth="yes"/>
      <point x="206" y="20"/>
      <point x="181" y="-5"/>
      <point x="150" y="-5" type="curve" smooth="yes"/>
      <point x="119" y="-5"/>
      <point x="94" y="20"/>
      <point x="94" y="51" type="curve" smooth="yes"/>
      <point x="94" y="82"/>
      <point x="119" y="107"/>
      <point x="150" y="107" type="curve" smooth="yes"/>
      <point x="181" y="107"/>
      <point x="206" y="82"/>
    </contour>
  </outline>
</glyph>
<glyph name="quotedbl" format="1">
  <advance width="440"/>
  <unicode hex="0022"/>
  <outline>
    <contour>
      <point x="354" y="690" type="line" smooth="yes"/>
      <point x="354" y="602"/>
      <point x="344" y="527"/>
      <point x="322" y="452" type="curve"/>
      <point x="308" y="452" type="line"/>
      <point x="286" y="527"/>
      <point x="276" y="602"/>
      <point x="276" y="690" type="curve" smooth="yes"/>
      <point x="276" y="700" type="line"/>
      <point x="354" y="700" type="line"/>
    </contour>
    <contour>
      <point x="164" y="690" type="line" smooth="yes"/>
      <point x="164" y="602"/>
      <point x="154" y="527"/>
      <point x="132" y="452" type="curve"/>
      <point x="118" y="452" type="line"/>
      <point x="96" y="527"/>
      <point x="86" y="602"/>
      <point x="86" y="690" type="curve" smooth="yes"/>
      <point x="86" y="700" type="line"/>
      <point x="164" y="700" type="line"/>
    </contour>
  </outline>
</glyph>
<glyph name="numbersign" format="1">
  <advance width="680"/>
  <unicode hex="0023"/>
  <outline>
    <contour>
      <point x="633" y="377" type="line"/>
      <point x="462" y="402" type="line"/>
      <point x="436" y="266" type="line"/>
      <point x="596" y="243" type="line"/>
      <point x="596" y="169" type="line"/>
      <point x="422" y="194" type="line"/>
      <point x="383" y="-4" type="line"/>
      <point x="347" y="-4" type="line"/>
      <point x="387" y="199" type="line"/>
      <point x="239" y="221" type="line"/>
      <point x="195" y="-4" type="line"/>
      <point x="159" y="-4" type="line"/>
      <point x="204" y="226" type="line"/>
      <point x="47" y="249" type="line"/>
      <point x="47" y="323" type="line"/>
      <point x="218" y="298" type="line"/>
      <point x="244" y="434" type="line"/>
      <point x="84" y="457" type="line"/>
      <point x="84" y="531" type="line"/>
      <point x="258" y="506" type="line"/>
      <point x="297" y="704" type="line"/>
      <point x="333" y="704" type="line"/>
      <point x="293" y="501" type="line"/>
      <point x="441" y="479" type="line"/>
      <point x="485" y="704" type="line"/>
      <point x="521" y="704" type="line"/>
      <point x="476" y="474" type="line"/>
      <point x="633" y="451" type="line"/>
    </contour>
    <contour>
      <point x="427" y="407" type="line"/>
      <point x="279" y="429" type="line"/>
      <point x="253" y="293" type="line"/>
      <point x="401" y="271" type="line"/>
    </contour>
  </outline>
</glyph>
<glyph name="dollar" format="1">
  <advance width="615"/>
  <unicode hex="0024"/>
  <outline>
    <contour>
      <point x="565" y="222" type="curve" smooth="yes"/>
      <point x="565" y="89"/>
      <point x="436" y="2"/>
      <point x="283" y="-1" type="curve"/>
      <point x="268" y="-125" type="line"/>
      <point x="226" y="-125" type="line"/>
      <point x="241" y="0" type="line"/>
      <point x="163" y="4"/>
      <point x="105" y="21"/>
      <point x="44" y="48" type="curve"/>
      <point x="38" y="166" type="line"/>
      <point x="50" y="169" type="line"/>
      <point x="82" y="101"/>
      <point x="154" y="56"/>
      <point x="247" y="46" type="curve"/>
      <point x="283" y="344" type="line"/>
      <point x="126" y="386"/>
      <point x="72" y="425"/>
      <point x="72" y="520" type="curve" smooth="yes"/>
      <point x="72" y="625"/>
      <point x="170" y="700"/>
      <point x="316" y="700" type="curve" smooth="yes"/>
      <point x="319" y="700"/>
      <point x="322" y="700"/>
      <point x="326" y="700" type="curve"/>
      <point x="336" y="785" type="line"/>
      <point x="378" y="785" type="line"/>
      <point x="367" y="698" type="line"/>
      <point x="426" y="694"/>
      <point x="472" y="683"/>
      <point x="520" y="666" type="curve"/>
      <point x="510" y="581" type="line"/>
      <point x="499" y="579" type="line"/>
      <point x="469" y="614"/>
      <point x="426" y="640"/>
      <point x="361" y="650" type="curve"/>
      <point x="333" y="413" type="line"/>
      <point x="498" y="370"/>
      <point x="565" y="328"/>
    </contour>
    <contour>
      <point x="320" y="654" type="line"/>
      <point x="314" y="655"/>
      <point x="307" y="655"/>
      <point x="300" y="655" type="curve" smooth="yes"/>
      <point x="201" y="655"/>
      <point x="147" y="604"/>
      <point x="147" y="544" type="curve" smooth="yes"/>
      <point x="147" y="484"/>
      <point x="168" y="459"/>
      <point x="292" y="424" type="curve"/>
    </contour>
    <contour>
      <point x="490" y="196" type="curve" smooth="yes"/>
      <point x="490" y="267"/>
      <point x="455" y="299"/>
      <point x="323" y="334" type="curve"/>
      <point x="288" y="44" type="line"/>
      <point x="404" y="45"/>
      <point x="490" y="107"/>
    </contour>
  </outline>
</glyph>
<glyph name="percent" format="1">
  <advance width="900"/>
  <unicode hex="0025"/>
  <outline>
    <contour>
      <point x="397" y="523" type="curve" smooth="yes"/>
      <point x="397" y="417"/>
      <point x="315" y="330"/>
      <point x="223" y="330" type="curve" smooth="yes"/>
      <point x="130" y="330"/>
      <point x="50" y="404"/>
      <point x="50" y="511" type="curve" smooth="yes"/>
      <point x="50" y="617"/>
      <point x="132" y="704"/>
      <point x="224" y="704" type="curve" smooth="yes"/>
      <point x="317" y="704"/>
      <point x="397" y="630"/>
    </contour>
    <contour>
      <point x="714" y="705" type="line"/>
      <point x="237" y="-5" type="line"/>
      <point x="186" y="-5" type="line"/>
      <point x="663" y="705" type="line"/>
    </contour>
    <contour>
      <point x="850" y="189" type="curve" smooth="yes"/>
      <point x="850" y="83"/>
      <point x="768" y="-4"/>
      <point x="676" y="-4" type="curve" smooth="yes"/>
      <point x="583" y="-4"/>
      <point x="503" y="70"/>
      <point x="503" y="177" type="curve" smooth="yes"/>
      <point x="503" y="283"/>
      <point x="585" y="370"/>
      <point x="677" y="370" type="curve" smooth="yes"/>
      <point x="770" y="370"/>
      <point x="850" y="296"/>
    </contour>
    <contour>
      <point x="326" y="520" type="curve" smooth="yes"/>
      <point x="326" y="602"/>
      <point x="283" y="670"/>
      <point x="220" y="670" type="curve" smooth="yes"/>
      <point x="158" y="670"/>
      <point x="121" y="603"/>
      <point x="121" y="514" type="curve" smooth="yes"/>
      <point x="121" y="432"/>
      <point x="164" y="364"/>
      <point x="227" y="364" type="curve" smooth="yes"/>
      <point x="289" y="364"/>
      <point x="326" y="431"/>
    </contour>
    <contour>
      <point x="779" y="186" type="curve" smooth="yes"/>
      <point x="779" y="268"/>
      <point x="736" y="336"/>
      <point x="673" y="336" type="curve" smooth="yes"/>
      <point x="611" y="336"/>
      <point x="574" y="269"/>
      <point x="574" y="180" type="curve" smooth="yes"/>
      <point x="574" y="98"/>
      <point x="617" y="30"/>
      <point x="680" y="30" type="curve" smooth="yes"/>
      <point x="742" y="30"/>
      <point x="779" y="97"/>
    </contour>
  </outline>
</glyph>
<glyph name="ampersand" format="1">
  <advance width="740"/>
  <unicode hex="0026"/>
  <outline>
    <contour>
      <point x="718" y="8" type="curve"/>
      <point x="715" y="-1" type="line"/>
      <point x="687" y="0"/>
      <point x="672" y="1"/>
      <point x="644" y="1" type="curve" smooth="yes"/>
      <point x="614" y="1"/>
      <point x="578" y="1"/>
      <point x="550" y="-1" type="curve"/>
      <point x="548" y="8" type="line"/>
      <point x="563" y="15"/>
      <point x="569" y="22"/>
      <point x="569" y="35" type="curve" smooth="yes"/>
      <point x="569" y="50"/>
      <point x="553" y="79"/>
      <point x="534" y="104" type="curve" smooth="yes"/>
      <point x="485" y="169" type="line"/>
      <point x="398" y="40"/>
      <point x="335" y="-7"/>
      <point x="231" y="-7" type="curve" smooth="yes"/>
      <point x="136" y="-7"/>
      <point x="36" y="53"/>
      <point x="36" y="174" type="curve" smooth="yes"/>
      <point x="36" y="278"/>
      <point x="109" y="363"/>
      <point x="292" y="428" type="curve"/>
      <point x="255" y="482"/>
      <point x="238" y="520"/>
      <point x="238" y="576" type="curve" smooth="yes"/>
      <point x="238" y="649"/>
      <point x="302" y="710"/>
      <point x="387" y="710" type="curve" smooth="yes"/>
      <point x="461" y="710"/>
      <point x="512" y="660"/>
      <point x="512" y="585" type="curve" smooth="yes"/>
      <point x="512" y="514"/>
      <point x="461" y="457"/>
      <point x="384" y="421" type="curve"/>
      <point x="497" y="270" type="line"/>
      <point x="529" y="321" type="line" smooth="yes"/>
      <point x="548" y="352"/>
      <point x="553" y="366"/>
      <point x="553" y="376" type="curve" smooth="yes"/>
      <point x="553" y="388"/>
      <point x="546" y="396"/>
      <point x="529" y="404" type="curve"/>
      <point x="533" y="413" type="line"/>
      <point x="554" y="412"/>
      <point x="584" y="411"/>
      <point x="609" y="411" type="curve" smooth="yes"/>
      <point x="626" y="411"/>
      <point x="644" y="412"/>
      <point x="661" y="413" type="curve"/>
      <point x="664" y="404" type="line"/>
      <point x="641" y="394"/>
      <point x="614" y="373"/>
      <point x="585" y="326" type="curve" smooth="yes"/>
      <point x="526" y="231" type="line"/>
      <point x="635" y="85" type="line" smooth="yes"/>
      <point x="670" y="38"/>
      <point x="687" y="21"/>
    </contour>
    <contour>
      <point x="459" y="581" type="curve" smooth="yes"/>
      <point x="459" y="633"/>
      <point x="428" y="670"/>
      <point x="382" y="670" type="curve" smooth="yes"/>
      <point x="334" y="670"/>
      <point x="307" y="632"/>
      <point x="307" y="581" type="curve" smooth="yes"/>
      <point x="307" y="533"/>
      <point x="322" y="504"/>
      <point x="360" y="453" type="curve"/>
      <point x="423" y="482"/>
      <point x="459" y="529"/>
    </contour>
    <contour>
      <point x="457" y="207" type="curve"/>
      <point x="316" y="395" type="line"/>
      <point x="172" y="340"/>
      <point x="125" y="270"/>
      <point x="125" y="182" type="curve" smooth="yes"/>
      <point x="125" y="92"/>
      <point x="179" y="44"/>
      <point x="251" y="44" type="curve" smooth="yes"/>
      <point x="314" y="44"/>
      <point x="367" y="71"/>
    </contour>
  </outline>
</glyph>
<glyph name="quotesingle" format="1">
  <advance width="250"/>
  <unicode hex="0027"/>
  <outline>
    <contour>
      <point x="164" y="690" type="line" smooth="yes"/>
      <point x="164" y="602"/>
      <point x="154" y="527"/>
      <point x="132" y="452" type="curve"/>
      <point x="118" y="452" type="line"/>
      <point x="96" y="527"/>
      <point x="86" y="602"/>
      <point x="86" y="690" type="curve" smooth="yes"/>
      <point x="86" y="700" type="line"/>
      <point x="164" y="700" type="line"/>
    </contour>
  </outline>
</glyph>
<glyph name="parenleft" format="1">
  <advance width="340"/>
  <unicode hex="0028"/>
  <outline>
    <contour>
      <point x="301" y="-13" type="curve"/>
      <point x="291" y="-26" type="line"/>
      <point x="169" y="48"/>
      <point x="51" y="157"/>
      <point x="51" y="350" type="curve" smooth="yes"/>
      <point x="51" y="543"/>
      <point x="169" y="652"/>
      <point x="291" y="726" type="curve"/>
      <point x="301" y="713" type="line"/>
      <point x="205" y="634"/>
      <point x="134" y="549"/>
      <point x="134" y="350" type="curve" smooth="yes"/>
      <point x="134" y="151"/>
      <point x="205" y="66"/>
    </contour>
  </outline>
</glyph>
<glyph name="parenright" format="1">
  <advance width="340"/>
  <unicode hex="0029"/>
  <outline>
    <contour>
      <point x="289" y="350" type="curve" smooth="yes"/>
      <point x="289" y="157"/>
      <point x="171" y="48"/>
      <point x="49" y="-26" type="curve"/>
      <point x="39" y="-13" type="line"/>
      <point x="135" y="66"/>
      <point x="206" y="151"/>
      <point x="206" y="350" type="curve" smooth="yes"/>
      <point x="206" y="549"/>
      <point x="135" y="634"/>
      <point x="39" y="713" type="curve"/>
      <point x="49" y="726" type="line"/>
      <point x="171" y="652"/>
      <point x="289" y="543"/>
    </contour>
  </outline>
</glyph>
<glyph name="asterisk" format="1">
  <advance width="360"/>
  <unicode hex="002A"/>
  <outline>
    <contour>
      <point x="207" y="700" type="line"/>
      <point x="207" y="665"/>
      <point x="198" y="617"/>
      <point x="185" y="579" type="curve"/>
      <point x="175" y="579" type="line"/>
      <point x="162" y="617"/>
      <point x="153" y="665"/>
      <point x="153" y="700" type="curve"/>
    </contour>
    <contour>
      <point x="321" y="578" type="line"/>
      <point x="288" y="567"/>
      <point x="240" y="560"/>
      <point x="200" y="561" type="curve"/>
      <point x="197" y="571" type="line"/>
      <point x="229" y="595"/>
      <point x="272" y="618"/>
      <point x="305" y="629" type="curve"/>
    </contour>
    <contour>
      <point x="163" y="571" type="curve"/>
      <point x="160" y="561" type="line"/>
      <point x="120" y="560"/>
      <point x="72" y="567"/>
      <point x="39" y="578" type="curve"/>
      <point x="55" y="629" type="line"/>
      <point x="88" y="618"/>
      <point x="131" y="595"/>
    </contour>
    <contour>
      <point x="284" y="463" type="curve"/>
      <point x="240" y="431" type="line"/>
      <point x="220" y="459"/>
      <point x="199" y="503"/>
      <point x="187" y="542" type="curve"/>
      <point x="195" y="548" type="line"/>
      <point x="228" y="524"/>
      <point x="264" y="491"/>
    </contour>
    <contour>
      <point x="173" y="542" type="line"/>
      <point x="161" y="503"/>
      <point x="140" y="459"/>
      <point x="120" y="431" type="curve"/>
      <point x="76" y="463" type="line"/>
      <point x="96" y="491"/>
      <point x="132" y="524"/>
      <point x="165" y="548" type="curve"/>
    </contour>
  </outline>
</glyph>
<glyph name="plus" format="1">
  <advance width="500"/>
  <unicode hex="002B"/>
  <outline>
    <contour>
      <point x="445" y="336" type="line"/>
      <point x="271" y="336" type="line"/>
      <point x="271" y="159" type="line"/>
      <point x="229" y="159" type="line"/>
      <point x="229" y="336" type="line"/>
      <point x="55" y="336" type="line"/>
      <point x="55" y="374" type="line"/>
      <point x="229" y="374" type="line"/>
      <point x="229" y="551" type="line"/>
      <point x="271" y="551" type="line"/>
      <point x="271" y="374" type="line"/>
      <point x="445" y="374" type="line"/>
    </contour>
  </outline>
</glyph>
<glyph name="hyphen" format="1">
  <advance width="350"/>
  <unicode hex="002D"/>
  <unicode hex="2010"/>
  <unicode hex="2011"/>
  <outline>
    <contour>
      <point x="310" y="401" type="line"/>
      <point x="287" y="340" type="line"/>
      <point x="266" y="346"/>
      <point x="237" y="348"/>
      <point x="197" y="348" type="curve" smooth="yes"/>
      <point x="40" y="348" type="line"/>
      <point x="60" y="406" type="line"/>
      <point x="90" y="402"/>
      <point x="143" y="401"/>
      <point x="215" y="401" type="curve" smooth="yes"/>
    </contour>
  </outline>
</glyph>
<glyph name="period" format="1">
  <advance width="250"/>
  <unicode hex="002E"/>
  <outline>
    <contour>
      <point x="181" y="51" type="curve" smooth="yes"/>
      <point x="181" y="20"/>
      <point x="156" y="-5"/>
      <point x="125" y="-5" type="curve" smooth="yes"/>
      <point x="94" y="-5"/>
      <point x="69" y="20"/>
      <point x="69" y="51" type="curve" smooth="yes"/>
      <point x="69" y="82"/>
      <point x="94" y="107"/>
      <point x="125" y="107" type="curve" smooth="yes"/>
      <point x="156" y="107"/>
      <point x="181" y="82"/>
    </contour>
  </outline>
</glyph>
<glyph name="slash" format="1">
  <advance width="480"/>
  <unicode hex="002F"/>
  <outline>
    <contour>
      <point x="445" y="705" type="line"/>
      <point x="87" y="-5" type="line"/>
      <point x="35" y="-5" type="line"/>
      <point x="393" y="705" type="line"/>
    </contour>
  </outline>
</glyph>
<glyph name="zero" format="1">
  <advance width="752"/>
  <unicode hex="0030"/>
  <outline>
    <contour>
      <point x="700" y="362" type="curve" smooth="yes"/>
      <point x="700" y="163"/>
      <point x="559" y="-10"/>
      <point x="381" y="-10" type="curve" smooth="yes"/>
      <point x="197" y="-10"/>
      <point x="52" y="136"/>
      <point x="52" y="339" type="curve" smooth="yes"/>
      <point x="52" y="552"/>
      <point x="202" y="710"/>
      <point x="386" y="710" type="curve" smooth="yes"/>
      <point x="564" y="710"/>
      <point x="700" y="561"/>
    </contour>
    <contour>
      <point x="611" y="360" type="curve" smooth="yes"/>
      <point x="611" y="527"/>
      <point x="519" y="665"/>
      <point x="374" y="665" type="curve" smooth="yes"/>
      <point x="231" y="665"/>
      <point x="141" y="530"/>
      <point x="141" y="347" type="curve" smooth="yes"/>
      <point x="141" y="161"/>
      <point x="244" y="35"/>
      <point x="381" y="35" type="curve" smooth="yes"/>
      <point x="526" y="35"/>
      <point x="611" y="184"/>
    </contour>
  </outline>
</glyph>
<glyph name="one" format="1">
  <advance width="312"/>
  <unicode hex="0031"/>
  <outline>
    <contour>
      <point x="255" y="9" type="curve"/>
      <point x="252" y="-1" type="line"/>
      <point x="227" y="1"/>
      <point x="191" y="1"/>
      <point x="166" y="1" type="curve" smooth="yes"/>
      <point x="137" y="1"/>
      <point x="99" y="1"/>
      <point x="73" y="-1" type="curve"/>
      <point x="71" y="9" type="line"/>
      <point x="110" y="24"/>
      <point x="125" y="39"/>
      <point x="125" y="76" type="curve" smooth="yes"/>
      <point x="125" y="577" type="line" smooth="yes"/>
      <point x="125" y="604"/>
      <point x="117" y="619"/>
      <point x="94" y="619" type="curve" smooth="yes"/>
      <point x="80" y="619"/>
      <point x="67" y="617"/>
      <point x="50" y="613" type="curve"/>
      <point x="46" y="625" type="line"/>
      <point x="117" y="656"/>
      <point x="174" y="692"/>
      <point x="196" y="709" type="curve"/>
      <point x="206" y="706" type="line"/>
      <point x="206" y="77" type="line" smooth="yes"/>
      <point x="206" y="38"/>
      <point x="220" y="24"/>
    </contour>
  </outline>
</glyph>
<glyph name="two" format="1">
  <advance width="630"/>
  <unicode hex="0032"/>
  <outline>
    <contour>
      <point x="588" y="123" type="line"/>
      <point x="560" y="89"/>
      <point x="525" y="24"/>
      <point x="513" y="-1" type="curve"/>
      <point x="411" y="0"/>
      <point x="363" y="0"/>
      <point x="261" y="0" type="curve" smooth="yes"/>
      <point x="181" y="0"/>
      <point x="112" y="0"/>
      <point x="36" y="-1" type="curve"/>
      <point x="34" y="6" type="line"/>
      <point x="94" y="123"/>
      <point x="162" y="201"/>
      <point x="302" y="286" type="curve" smooth="yes"/>
      <point x="424" y="360"/>
      <point x="476" y="408"/>
      <point x="476" y="509" type="curve" smooth="yes"/>
      <point x="476" y="598"/>
      <point x="433" y="661"/>
      <point x="303" y="661" type="curve" smooth="yes"/>
      <point x="212" y="661"/>
      <point x="155" y="618"/>
      <point x="101" y="540" type="curve"/>
      <point x="89" y="545" type="line"/>
      <point x="93" y="571"/>
      <point x="97" y="618"/>
      <point x="97" y="645" type="curve"/>
      <point x="157" y="681"/>
      <point x="225" y="706"/>
      <point x="319" y="706" type="curve" smooth="yes"/>
      <point x="479" y="706"/>
      <point x="565" y="638"/>
      <point x="565" y="518" type="curve" smooth="yes"/>
      <point x="565" y="387"/>
      <point x="486" y="329"/>
      <point x="343" y="257" type="curve" smooth="yes"/>
      <point x="214" y="191"/>
      <point x="165" y="133"/>
      <point x="127" y="67" type="curve"/>
      <point x="406" y="67" type="line" smooth="yes"/>
      <point x="504" y="67"/>
      <point x="532" y="86"/>
      <point x="578" y="131" type="curve"/>
    </contour>
  </outline>
</glyph>
<glyph name="three" format="1">
  <advance width="598"/>
  <unicode hex="0033"/>
  <outline>
    <contour>
      <point x="545" y="204" type="curve" smooth="yes"/>
      <point x="545" y="79"/>
      <point x="451" y="-6"/>
      <point x="279" y="-6" type="curve" smooth="yes"/>
      <point x="191" y="-6"/>
      <point x="116" y="16"/>
      <point x="61" y="55" type="curve"/>
      <point x="61" y="82"/>
      <point x="57" y="129"/>
      <point x="53" y="155" type="curve"/>
      <point x="65" y="160" type="line"/>
      <point x="121" y="78"/>
      <point x="186" y="39"/>
      <point x="287" y="39" type="curve" smooth="yes"/>
      <point x="405" y="39"/>
      <point x="456" y="98"/>
      <point x="456" y="199" type="curve" smooth="yes"/>
      <point x="456" y="304"/>
      <point x="384" y="359"/>
      <point x="261" y="359" type="curve" smooth="yes"/>
      <point x="194" y="359" type="line"/>
      <point x="194" y="405" type="line"/>
      <point x="276" y="405" type="line" smooth="yes"/>
      <point x="382" y="405"/>
      <point x="436" y="454"/>
      <point x="436" y="532" type="curve" smooth="yes"/>
      <point x="436" y="607"/>
      <point x="388" y="661"/>
      <point x="278" y="661" type="curve" smooth="yes"/>
      <point x="194" y="661"/>
      <point x="135" y="618"/>
      <point x="81" y="540" type="curve"/>
      <point x="69" y="545" type="line"/>
      <point x="73" y="571"/>
      <point x="77" y="618"/>
      <point x="77" y="645" type="curve"/>
      <point x="137" y="681"/>
      <point x="203" y="706"/>
      <point x="294" y="706" type="curve" smooth="yes"/>
      <point x="446" y="706"/>
      <point x="525" y="648"/>
      <point x="525" y="545" type="curve" smooth="yes"/>
      <point x="525" y="461"/>
      <point x="463" y="409"/>
      <point x="374" y="385" type="curve"/>
      <point x="374" y="382" type="line"/>
      <point x="483" y="357"/>
      <point x="545" y="305"/>
    </contour>
  </outline>
</glyph>
<glyph name="four" format="1">
  <advance width="675"/>
  <unicode hex="0034"/>
  <outline>
    <contour>
      <point x="663" y="269" type="line"/>
      <point x="638" y="238"/>
      <point x="613" y="195"/>
      <point x="601" y="167" type="curve"/>
      <point x="541" y="168"/>
      <point x="509" y="169"/>
      <point x="465" y="169" type="curve"/>
      <point x="465" y="77" type="line" smooth="yes"/>
      <point x="465" y="38"/>
      <point x="479" y="24"/>
      <point x="514" y="9" type="curve"/>
      <point x="511" y="-1" type="line"/>
      <point x="486" y="1"/>
      <point x="450" y="1"/>
      <point x="425" y="1" type="curve" smooth="yes"/>
      <point x="396" y="1"/>
      <point x="362" y="1"/>
      <point x="336" y="-1" type="curve"/>
      <point x="334" y="9" type="line"/>
      <point x="373" y="24"/>
      <point x="387" y="39"/>
      <point x="387" y="76" type="curve" smooth="yes"/>
      <point x="387" y="169" type="line"/>
      <point x="283" y="169"/>
      <point x="117" y="169"/>
      <point x="23" y="166" type="curve"/>
      <point x="19" y="174" type="line"/>
      <point x="455" y="719" type="line"/>
      <point x="465" y="716" type="line"/>
      <point x="465" y="215" type="line"/>
      <point x="580" y="217"/>
      <point x="617" y="239"/>
      <point x="654" y="276" type="curve"/>
    </contour>
    <contour>
      <point x="387" y="215" type="line"/>
      <point x="387" y="570" type="line"/>
      <point x="104" y="215" type="line"/>
    </contour>
  </outline>
</glyph>
<glyph name="five" format="1">
  <advance width="612"/>
  <unicode hex="0035"/>
  <outline>
    <contour>
      <point x="562" y="217" type="curve" smooth="yes"/>
      <point x="562" y="88"/>
      <point x="468" y="-6"/>
      <point x="296" y="-6" type="curve" smooth="yes"/>
      <point x="208" y="-6"/>
      <point x="133" y="16"/>
      <point x="78" y="55" type="curve"/>
      <point x="78" y="82"/>
      <point x="74" y="129"/>
      <point x="70" y="155" type="curve"/>
      <point x="82" y="160" type="line"/>
      <point x="138" y="78"/>
      <point x="203" y="39"/>
      <point x="304" y="39" type="curve" smooth="yes"/>
      <point x="422" y="39"/>
      <point x="473" y="108"/>
      <point x="473" y="207" type="curve" smooth="yes"/>
      <point x="473" y="311"/>
      <point x="419" y="380"/>
      <point x="301" y="380" type="curve" smooth="yes"/>
      <point x="227" y="380"/>
      <point x="176" y="359"/>
      <point x="139" y="333" type="curve"/>
      <point x="104" y="349" type="line"/>
      <point x="104" y="693" type="line"/>
      <point x="109" y="700" type="line"/>
      <point x="185" y="699"/>
      <point x="236" y="699"/>
      <point x="316" y="699" type="curve" smooth="yes"/>
      <point x="385" y="699"/>
      <point x="415" y="700"/>
      <point x="532" y="701" type="curve"/>
      <point x="490" y="603" type="line"/>
      <point x="480" y="603" type="line"/>
      <point x="474" y="618"/>
      <point x="462" y="632"/>
      <point x="401" y="632" type="curve" smooth="yes"/>
      <point x="153" y="632" type="line"/>
      <point x="153" y="391" type="line"/>
      <point x="197" y="416"/>
      <point x="248" y="433"/>
      <point x="314" y="433" type="curve" smooth="yes"/>
      <point x="468" y="433"/>
      <point x="562" y="358"/>
    </contour>
  </outline>
</glyph>
<glyph name="six" format="1">
  <advance width="675"/>
  <unicode hex="0036"/>
  <outline>
    <contour>
      <point x="620" y="232" type="curve" smooth="yes"/>
      <point x="620" y="103"/>
      <point x="501" y="-10"/>
      <point x="341" y="-10" type="curve" smooth="yes"/>
      <point x="239" y="-10"/>
      <point x="178" y="19"/>
      <point x="122" y="84" type="curve" smooth="yes"/>
      <point x="76" y="138"/>
      <point x="52" y="218"/>
      <point x="52" y="329" type="curve" smooth="yes"/>
      <point x="52" y="549"/>
      <point x="189" y="706"/>
      <point x="367" y="706" type="curve" smooth="yes"/>
      <point x="450" y="706"/>
      <point x="516" y="686"/>
      <point x="570" y="649" type="curve"/>
      <point x="570" y="622"/>
      <point x="574" y="575"/>
      <point x="578" y="549" type="curve"/>
      <point x="566" y="544" type="line"/>
      <point x="510" y="626"/>
      <point x="451" y="661"/>
      <point x="359" y="661" type="curve" smooth="yes"/>
      <point x="228" y="661"/>
      <point x="151" y="533"/>
      <point x="142" y="359" type="curve"/>
      <point x="193" y="420"/>
      <point x="261" y="455"/>
      <point x="356" y="455" type="curve" smooth="yes"/>
      <point x="514" y="455"/>
      <point x="620" y="367"/>
    </contour>
    <contour>
      <point x="531" y="230" type="curve" smooth="yes"/>
      <point x="531" y="334"/>
      <point x="467" y="410"/>
      <point x="344" y="410" type="curve" smooth="yes"/>
      <point x="235" y="410"/>
      <point x="144" y="341"/>
      <point x="144" y="229" type="curve" smooth="yes"/>
      <point x="144" y="123"/>
      <point x="220" y="35"/>
      <point x="341" y="35" type="curve" smooth="yes"/>
      <point x="471" y="35"/>
      <point x="531" y="122"/>
    </contour>
  </outline>
</glyph>
<glyph name="seven" format="1">
  <advance width="580"/>
  <unicode hex="0037"/>
  <outline>
    <contour>
      <point x="555" y="693" type="line"/>
      <point x="526" y="583"/>
      <point x="487" y="536"/>
      <point x="381" y="408" type="curve" smooth="yes"/>
      <point x="262" y="264"/>
      <point x="234" y="204"/>
      <point x="234" y="-2" type="curve"/>
      <point x="145" y="-2" type="line"/>
      <point x="150" y="209"/>
      <point x="220" y="302"/>
      <point x="348" y="436" type="curve" smooth="yes"/>
      <point x="418" y="509"/>
      <point x="469" y="573"/>
      <point x="483" y="632" type="curve"/>
      <point x="203" y="632" type="line" smooth="yes"/>
      <point x="105" y="632"/>
      <point x="77" y="613"/>
      <point x="31" y="568" type="curve"/>
      <point x="21" y="576" type="line"/>
      <point x="49" y="610"/>
      <point x="84" y="675"/>
      <point x="96" y="700" type="curve"/>
      <point x="198" y="699"/>
      <point x="246" y="699"/>
      <point x="348" y="699" type="curve" smooth="yes"/>
      <point x="428" y="699"/>
      <point x="477" y="699"/>
      <point x="553" y="700" type="curve"/>
    </contour>
  </outline>
</glyph>
<glyph name="eight" format="1">
  <advance width="674"/>
  <unicode hex="0038"/>
  <outline>
    <contour>
      <point x="621" y="199" type="curve" smooth="yes"/>
      <point x="621" y="64"/>
      <point x="481" y="-6"/>
      <point x="338" y="-6" type="curve" smooth="yes"/>
      <point x="197" y="-6"/>
      <point x="53" y="43"/>
      <point x="53" y="181" type="curve" smooth="yes"/>
      <point x="53" y="280"/>
      <point x="128" y="339"/>
      <point x="218" y="366" type="curve"/>
      <point x="218" y="369" type="line"/>
      <point x="146" y="393"/>
      <point x="93" y="440"/>
      <point x="93" y="520" type="curve" smooth="yes"/>
      <point x="93" y="648"/>
      <point x="222" y="706"/>
      <point x="347" y="706" type="curve" smooth="yes"/>
      <point x="468" y="706"/>
      <point x="581" y="654"/>
      <point x="581" y="538" type="curve" smooth="yes"/>
      <point x="581" y="458"/>
      <point x="530" y="403"/>
      <point x="460" y="374" type="curve"/>
      <point x="460" y="371" type="line"/>
      <point x="551" y="349"/>
      <point x="621" y="296"/>
    </contour>
    <contour>
      <point x="495" y="530" type="curve" smooth="yes"/>
      <point x="495" y="617"/>
      <point x="434" y="661"/>
      <point x="335" y="661" type="curve" smooth="yes"/>
      <point x="242" y="661"/>
      <point x="179" y="619"/>
      <point x="179" y="525" type="curve" smooth="yes"/>
      <point x="179" y="424"/>
      <point x="250" y="390"/>
      <point x="342" y="390" type="curve" smooth="yes"/>
      <point x="441" y="390"/>
      <point x="495" y="446"/>
    </contour>
    <contour>
      <point x="535" y="195" type="curve" smooth="yes"/>
      <point x="535" y="302"/>
      <point x="448" y="345"/>
      <point x="336" y="345" type="curve" smooth="yes"/>
      <point x="239" y="345"/>
      <point x="139" y="304"/>
      <point x="139" y="187" type="curve" smooth="yes"/>
      <point x="139" y="68"/>
      <point x="249" y="39"/>
      <point x="342" y="39" type="curve" smooth="yes"/>
      <point x="450" y="39"/>
      <point x="535" y="87"/>
    </contour>
  </outline>
</glyph>
<glyph name="nine" format="1">
  <advance width="675"/>
  <unicode hex="0039"/>
  <outline>
    <contour>
      <point x="623" y="371" type="curve" smooth="yes"/>
      <point x="623" y="151"/>
      <point x="486" y="-6"/>
      <point x="308" y="-6" type="curve" smooth="yes"/>
      <point x="225" y="-6"/>
      <point x="159" y="14"/>
      <point x="105" y="51" type="curve"/>
      <point x="105" y="78"/>
      <point x="101" y="125"/>
      <point x="97" y="151" type="curve"/>
      <point x="109" y="156" type="line"/>
      <point x="165" y="74"/>
      <point x="224" y="39"/>
      <point x="316" y="39" type="curve" smooth="yes"/>
      <point x="447" y="39"/>
      <point x="524" y="167"/>
      <point x="533" y="341" type="curve"/>
      <point x="482" y="280"/>
      <point x="414" y="245"/>
      <point x="319" y="245" type="curve" smooth="yes"/>
      <point x="161" y="245"/>
      <point x="55" y="333"/>
      <point x="55" y="468" type="curve" smooth="yes"/>
      <point x="55" y="597"/>
      <point x="174" y="710"/>
      <point x="334" y="710" type="curve" smooth="yes"/>
      <point x="436" y="710"/>
      <point x="497" y="681"/>
      <point x="553" y="616" type="curve" smooth="yes"/>
      <point x="599" y="562"/>
      <point x="623" y="482"/>
    </contour>
    <contour>
      <point x="531" y="471" type="curve" smooth="yes"/>
      <point x="531" y="577"/>
      <point x="455" y="665"/>
      <point x="334" y="665" type="curve" smooth="yes"/>
      <point x="204" y="665"/>
      <point x="144" y="578"/>
      <point x="144" y="470" type="curve" smooth="yes"/>
      <point x="144" y="366"/>
      <point x="208" y="290"/>
      <point x="331" y="290" type="curve" smooth="yes"/>
      <point x="440" y="290"/>
      <point x="531" y="359"/>
    </contour>
  </outline>
</glyph>
<glyph name="colon" format="1">
  <advance width="250"/>
  <unicode hex="003A"/>
  <outline>
    <contour>
      <point x="181" y="351" type="curve" smooth="yes"/>
      <point x="181" y="320"/>
      <point x="156" y="295"/>
      <point x="125" y="295" type="curve" smooth="yes"/>
      <point x="94" y="295"/>
      <point x="69" y="320"/>
      <point x="69" y="351" type="curve" smooth="yes"/>
      <point x="69" y="382"/>
      <point x="94" y="407"/>
      <point x="125" y="407" type="curve" smooth="yes"/>
      <point x="156" y="407"/>
      <point x="181" y="382"/>
    </contour>
    <contour>
      <point x="181" y="51" type="curve" smooth="yes"/>
      <point x="181" y="20"/>
      <point x="156" y="-5"/>
      <point x="125" y="-5" type="curve" smooth="yes"/>
      <point x="94" y="-5"/>
      <point x="69" y="20"/>
      <point x="69" y="51" type="curve" smooth="yes"/>
      <point x="69" y="82"/>
      <point x="94" y="107"/>
      <point x="125" y="107" type="curve" smooth="yes"/>
      <point x="156" y="107"/>
      <point x="181" y="82"/>
    </contour>
  </outline>
</glyph>
<glyph name="semicolon" format="1">
  <advance width="250"/>
  <unicode hex="003B"/>
  <outline>
    <contour>
      <point x="181" y="351" type="curve" smooth="yes"/>
      <point x="181" y="320"/>
      <point x="156" y="295"/>
      <point x="125" y="295" type="curve" smooth="yes"/>
      <point x="94" y="295"/>
      <point x="69" y="320"/>
      <point x="69" y="351" type="curve" smooth="yes"/>
      <point x="69" y="382"/>
      <point x="94" y="407"/>
      <point x="125" y="407" type="curve" smooth="yes"/>
      <point x="156" y="407"/>
      <point x="181" y="382"/>
    </contour>
    <contour>
      <point x="183" y="26" type="curve" smooth="yes"/>
      <point x="183" y="-29"/>
      <point x="143" y="-84"/>
      <point x="71" y="-147" type="curve"/>
      <point x="57" y="-134" type="line"/>
      <point x="99" y="-91"/>
      <point x="116" y="-61"/>
      <point x="116" y="-28" type="curve" smooth="yes"/>
      <point x="116" y="2"/>
      <point x="106" y="23"/>
      <point x="71" y="56" type="curve"/>
      <point x="132" y="114" type="line"/>
      <point x="166" y="89"/>
      <point x="183" y="63"/>
    </contour>
  </outline>
</glyph>
<glyph name="less" format="1">
  <advance width="500"/>
  <unicode hex="003C"/>
  <outline>
    <contour>
      <point x="430" y="170" type="line"/>
      <point x="55" y="337" type="line"/>
      <point x="55" y="373" type="line"/>
      <point x="430" y="540" type="line"/>
      <point x="430" y="494" type="line"/>
      <point x="112" y="355" type="line"/>
      <point x="430" y="216" type="line"/>
    </contour>
  </outline>
</glyph>
<glyph name="equal" format="1">
  <advance width="500"/>
  <unicode hex="003D"/>
  <outline>
    <contour>
      <point x="435" y="429" type="line"/>
      <point x="65" y="429" type="line"/>
      <point x="65" y="471" type="line"/>
      <point x="435" y="471" type="line"/>
    </contour>
    <contour>
      <point x="435" y="239" type="line"/>
      <point x="65" y="239" type="line"/>
      <point x="65" y="281" type="line"/>
      <point x="435" y="281" type="line"/>
    </contour>
  </outline>
</glyph>
<glyph name="greater" format="1">
  <advance width="500"/>
  <unicode hex="003E"/>
  <outline>
    <contour>
      <point x="445" y="337" type="line"/>
      <point x="70" y="170" type="line"/>
      <point x="70" y="216" type="line"/>
      <point x="388" y="355" type="line"/>
      <point x="70" y="494" type="line"/>
      <point x="70" y="540" type="line"/>
      <point x="445" y="373" type="line"/>
    </contour>
  </outline>
</glyph>
<glyph name="question" format="1">
  <advance width="535"/>
  <unicode hex="003F"/>
  <outline>
    <contour>
      <point x="485" y="535" type="curve" smooth="yes"/>
      <point x="485" y="447"/>
      <point x="434" y="401"/>
      <point x="350" y="349" type="curve" smooth="yes"/>
      <point x="255" y="290"/>
      <point x="238" y="260"/>
      <point x="246" y="165" type="curve"/>
      <point x="224" y="165" type="line"/>
      <point x="193" y="269"/>
      <point x="219" y="313"/>
      <point x="299" y="375" type="curve" smooth="yes"/>
      <point x="354" y="418"/>
      <point x="396" y="450"/>
      <point x="396" y="519" type="curve" smooth="yes"/>
      <point x="396" y="608"/>
      <point x="348" y="661"/>
      <point x="243" y="661" type="curve" smooth="yes"/>
      <point x="168" y="661"/>
      <point x="111" y="617"/>
      <point x="61" y="540" type="curve"/>
      <point x="49" y="545" type="line"/>
      <point x="53" y="571"/>
      <point x="57" y="618"/>
      <point x="57" y="645" type="curve"/>
      <point x="126" y="687"/>
      <point x="175" y="706"/>
      <point x="259" y="706" type="curve" smooth="yes"/>
      <point x="398" y="706"/>
      <point x="485" y="646"/>
    </contour>
    <contour>
      <point x="289" y="51" type="curve" smooth="yes"/>
      <point x="289" y="20"/>
      <point x="264" y="-5"/>
      <point x="233" y="-5" type="curve" smooth="yes"/>
      <point x="202" y="-5"/>
      <point x="177" y="20"/>
      <point x="177" y="51" type="curve" smooth="yes"/>
      <point x="177" y="82"/>
      <point x="202" y="107"/>
      <point x="233" y="107" type="curve" smooth="yes"/>
      <point x="264" y="107"/>
      <point x="289" y="82"/>
    </contour>
  </outline>
</glyph>
<glyph name="at" format="1">
  <advance width="800"/>
  <unicode hex="0040"/>
  <outline>
    <contour>
      <point x="757" y="402" type="curve" smooth="yes"/>
      <point x="757" y="264"/>
      <point x="666" y="175"/>
      <point x="574" y="175" type="curve" smooth="yes"/>
      <point x="517" y="175"/>
      <point x="476" y="195"/>
      <point x="456" y="243" type="curve"/>
      <point x="414" y="200"/>
      <point x="371" y="175"/>
      <point x="323" y="175" type="curve" smooth="yes"/>
      <point x="259" y="175"/>
      <point x="216" y="218"/>
      <point x="216" y="285" type="curve" smooth="yes"/>
      <point x="216" y="415"/>
      <point x="337" y="539"/>
      <point x="465" y="539" type="curve" smooth="yes"/>
      <point x="503" y="539"/>
      <point x="535" y="532"/>
      <point x="562" y="521" type="curve"/>
      <point x="522" y="292" type="line" smooth="yes"/>
      <point x="511" y="230"/>
      <point x="537" y="204"/>
      <point x="585" y="204" type="curve" smooth="yes"/>
      <point x="649" y="204"/>
      <point x="723" y="275"/>
      <point x="723" y="400" type="curve" smooth="yes"/>
      <point x="723" y="579"/>
      <point x="599" y="682"/>
      <point x="418" y="682" type="curve" smooth="yes"/>
      <point x="227" y="682"/>
      <point x="84" y="538"/>
      <point x="84" y="347" type="curve" smooth="yes"/>
      <point x="84" y="149"/>
      <point x="216" y="18"/>
      <point x="404" y="18" type="curve" smooth="yes"/>
      <point x="503" y="18"/>
      <point x="569" y="37"/>
      <point x="640" y="77" type="curve"/>
      <point x="652" y="56" type="line"/>
      <point x="578" y="13"/>
      <point x="506" y="-10"/>
      <point x="403" y="-10" type="curve" smooth="yes"/>
      <point x="197" y="-10"/>
      <point x="49" y="131"/>
      <point x="49" y="345" type="curve" smooth="yes"/>
      <point x="49" y="552"/>
      <point x="220" y="710"/>
      <point x="420" y="710" type="curve" smooth="yes"/>
      <point x="611" y="710"/>
      <point x="757" y="593"/>
    </contour>
    <contour>
      <point x="493" y="503" type="line"/>
      <point x="482" y="508"/>
      <point x="469" y="510"/>
      <point x="450" y="510" type="curve" smooth="yes"/>
      <point x="358" y="510"/>
      <point x="279" y="407"/>
      <point x="279" y="310" type="curve" smooth="yes"/>
      <point x="279" y="247"/>
      <point x="307" y="218"/>
      <point x="352" y="218" type="curve" smooth="yes"/>
      <point x="383" y="218"/>
      <point x="419" y="238"/>
      <point x="453" y="278" type="curve"/>
    </contour>
  </outline>
</glyph>
<glyph name="A" format="1">
  <advance width="780"/>
  <unicode hex="0041"/>
  <outline>
    <contour>
      <point x="771" y="9" type="curve"/>
      <point x="769" y="-1" type="line"/>
      <point x="740" y="2"/>
      <point x="715" y="1"/>
      <point x="678" y="1" type="curve" smooth="yes"/>
      <point x="644" y="1"/>
      <point x="605" y="1"/>
      <point x="573" y="-1" type="curve"/>
      <point x="570" y="9" type="line"/>
      <point x="588" y="17"/>
      <point x="602" y="35"/>
      <point x="602" y="51" type="curve" smooth="yes"/>
      <point x="602" y="69"/>
      <point x="597" y="88"/>
      <point x="584" y="118" type="curve" smooth="yes"/>
      <point x="494" y="327" type="line"/>
      <point x="264" y="327" type="line"/>
      <point x="168" y="131" type="line" smooth="yes"/>
      <point x="153" y="100"/>
      <point x="147" y="80"/>
      <point x="147" y="59" type="curve" smooth="yes"/>
      <point x="147" y="32"/>
      <point x="160" y="23"/>
      <point x="186" y="9" type="curve"/>
      <point x="183" y="-1" type="line"/>
      <point x="149" y="0"/>
      <point x="121" y="1"/>
      <point x="87" y="1" type="curve" smooth="yes"/>
      <point x="57" y="1"/>
      <point x="40" y="1"/>
      <point x="11" y="-1" type="curve"/>
      <point x="9" y="11" type="line"/>
      <point x="44" y="23"/>
      <point x="69" y="46"/>
      <point x="95" y="98" type="curve" smooth="yes"/>
      <point x="361" y="627" type="line" smooth="yes"/>
      <point x="382" y="669"/>
      <point x="391" y="695"/>
      <point x="391" y="719" type="curve"/>
      <point x="408" y="719" type="line"/>
      <point x="687" y="92" type="line" smooth="yes"/>
      <point x="706" y="49"/>
      <point x="730" y="23"/>
    </contour>
    <contour>
      <point x="474" y="372" type="line"/>
      <point x="387" y="576" type="line"/>
      <point x="286" y="372" type="line"/>
    </contour>
  </outline>
</glyph>
<glyph name="G" format="1">
  <advance width="748"/>
  <unicode hex="0047"/>
  <outline>
    <contour>
      <point x="701" y="322" type="line"/>
      <point x="669" y="309"/>
      <point x="654" y="292"/>
      <point x="654" y="260" type="curve" smooth="yes"/>
      <point x="654" y="116" type="line"/>
      <point x="663" y="122"/>
      <point x="672" y="128"/>
      <point x="681" y="135" type="curve"/>
      <point x="692" y="122" type="line"/>
      <point x="624" y="45"/>
      <point x="537" y="-6"/>
      <point x="412" y="-6" type="curve" smooth="yes"/>
      <point x="200" y="-6"/>
      <point x="49" y="118"/>
      <point x="49" y="349" type="curve" smooth="yes"/>
      <point x="49" y="561"/>
      <point x="221" y="706"/>
      <point x="402" y="706" type="curve" smooth="yes"/>
      <point x="505" y="706"/>
      <point x="571" y="683"/>
      <point x="627" y="649" type="curve"/>
      <point x="627" y="622"/>
      <point x="631" y="575"/>
      <point x="635" y="549" type="curve"/>
      <point x="623" y="544" type="line"/>
      <point x="562" y="624"/>
      <point x="499" y="661"/>
      <point x="395" y="661" type="curve" smooth="yes"/>
      <point x="248" y="661"/>
      <point x="138" y="542"/>
      <point x="138" y="358" type="curve" smooth="yes"/>
      <point x="138" y="147"/>
      <point x="259" y="39"/>
      <point x="428" y="39" type="curve" smooth="yes"/>
      <point x="494" y="39"/>
      <point x="539" y="50"/>
      <point x="574" y="65" type="curve"/>
      <point x="574" y="254" type="line" smooth="yes"/>
      <point x="574" y="291"/>
      <point x="556" y="312"/>
      <point x="527" y="322" type="curve"/>
      <point x="530" y="333" type="line"/>
      <point x="555" y="331"/>
      <point x="588" y="331"/>
      <point x="613" y="331" type="curve" smooth="yes"/>
      <point x="642" y="331"/>
      <point x="669" y="331"/>
      <point x="697" y="333" type="curve"/>
    </contour>
  </outline>
</glyph>
<glyph name="H" format="1">
  <advance width="742"/>
  <unicode hex="0048"/>
  <outline>
    <contour>
      <point x="674" y="693" type="line"/>
      <point x="646" y="681"/>
      <point x="636" y="660"/>
      <point x="636" y="615" type="curve" smooth="yes"/>
      <point x="636" y="70" type="line" smooth="yes"/>
      <point x="636" y="36"/>
      <point x="645" y="20"/>
      <point x="672" y="9" type="curve"/>
      <point x="670" y="-1" type="line"/>
      <point x="646" y="0"/>
      <point x="617" y="1"/>
      <point x="594" y="1" type="curve" smooth="yes"/>
      <point x="566" y="1"/>
      <point x="532" y="0"/>
      <point x="508" y="-1" type="curve"/>
      <point x="506" y="8" type="line"/>
      <point x="545" y="21"/>
      <point x="554" y="41"/>
      <point x="554" y="74" type="curve" smooth="yes"/>
      <point x="554" y="353" type="line"/>
      <point x="188" y="353" type="line"/>
      <point x="188" y="82" type="line" smooth="yes"/>
      <point x="188" y="31"/>
      <point x="198" y="22"/>
      <point x="227" y="9" type="curve"/>
      <point x="223" y="-1" type="line"/>
      <point x="201" y="1"/>
      <point x="174" y="1"/>
      <point x="148" y="1" type="curve" smooth="yes"/>
      <point x="117" y="1"/>
      <point x="95" y="1"/>
      <point x="66" y="-1" type="curve"/>
      <point x="63" y="8" type="line"/>
      <point x="95" y="17"/>
      <point x="106" y="36"/>
      <point x="106" y="78" type="curve" smooth="yes"/>
      <point x="106" y="630" type="line" smooth="yes"/>
      <point x="106" y="672"/>
      <point x="98" y="685"/>
      <point x="76" y="693" type="curve"/>
      <point x="79" y="701" type="line"/>
      <point x="96" y="699"/>
      <point x="123" y="699"/>
      <point x="146" y="699" type="curve" smooth="yes"/>
      <point x="173" y="699"/>
      <point x="196" y="699"/>
      <point x="219" y="701" type="curve"/>
      <point x="221" y="692" type="line"/>
      <point x="199" y="681"/>
      <point x="188" y="665"/>
      <point x="188" y="634" type="curve" smooth="yes"/>
      <point x="188" y="401" type="line"/>
      <point x="554" y="401" type="line"/>
      <point x="554" y="621" type="line" smooth="yes"/>
      <point x="554" y="661"/>
      <point x="549" y="681"/>
      <point x="520" y="693" type="curve"/>
      <point x="522" y="701" type="line"/>
      <point x="543" y="700"/>
      <point x="569" y="699"/>
      <point x="597" y="699" type="curve" smooth="yes"/>
      <point x="623" y="699"/>
      <point x="658" y="700"/>
      <point x="672" y="701" type="curve"/>
    </contour>
  </outline>
</glyph>
<glyph name="I" format="1">
  <advance width="312"/>
  <unicode hex="0049"/>
  <outline>
    <contour>
      <point x="239" y="9" type="curve"/>
      <point x="236" y="-1" type="line"/>
      <point x="211" y="1"/>
      <point x="182" y="1"/>
      <point x="157" y="1" type="curve" smooth="yes"/>
      <point x="128" y="1"/>
      <point x="100" y="1"/>
      <point x="74" y="-1" type="curve"/>
      <point x="72" y="9" type="line"/>
      <point x="101" y="22"/>
      <point x="115" y="36"/>
      <point x="115" y="71" type="curve" smooth="yes"/>
      <point x="115" y="625" type="line" smooth="yes"/>
      <point x="115" y="664"/>
      <point x="103" y="681"/>
      <point x="77" y="691" type="curve"/>
      <point x="81" y="701" type="line"/>
      <point x="106" y="699"/>
      <point x="130" y="699"/>
      <point x="155" y="699" type="curve" smooth="yes"/>
      <point x="180" y="699"/>
      <point x="211" y="699"/>
      <point x="234" y="701" type="curve"/>
      <point x="238" y="692" type="line"/>
      <point x="213" y="682"/>
      <point x="197" y="664"/>
      <point x="197" y="632" type="curve" smooth="yes"/>
      <point x="197" y="72" type="line" smooth="yes"/>
      <point x="197" y="37"/>
      <point x="212" y="22"/>
    </contour>
  </outline>
</glyph>
<glyph name="J" format="1">
  <advance width="302"/>
  <unicode hex="004A"/>
  <outline>
    <contour>
      <point x="237" y="692" type="line"/>
      <point x="210" y="682"/>
      <point x="199" y="664"/>
      <point x="199" y="630" type="curve" smooth="yes"/>
      <point x="199" y="74" type="line" smooth="yes"/>
      <point x="199" y="-50"/>
      <point x="129" y="-121"/>
      <point x="21" y="-166" type="curve"/>
      <point x="16" y="-154" type="line"/>
      <point x="86" y="-111"/>
      <point x="117" y="-69"/>
      <point x="117" y="66" type="curve" smooth="yes"/>
      <point x="117" y="622" type="line" smooth="yes"/>
      <point x="117" y="664"/>
      <point x="105" y="680"/>
      <point x="74" y="691" type="curve"/>
      <point x="76" y="701" type="line"/>
      <point x="106" y="700"/>
      <point x="123" y="699"/>
      <point x="153" y="699" type="curve" smooth="yes"/>
      <point x="184" y="699"/>
      <point x="201" y="699"/>
      <point x="232" y="701" type="curve"/>
    </contour>
  </outline>
</glyph>
<glyph name="K" format="1">
  <advance width="675"/>
  <unicode hex="004B"/>
  <outline>
    <contour>
      <point x="672" y="8" type="curve"/>
      <point x="669" y="-1" type="line"/>
      <point x="641" y="0"/>
      <point x="614" y="1"/>
      <point x="586" y="1" type="curve" smooth="yes"/>
      <point x="556" y="1"/>
      <point x="519" y="1"/>
      <point x="491" y="-1" type="curve"/>
      <point x="489" y="8" type="line"/>
      <point x="504" y="15"/>
      <point x="510" y="22"/>
      <point x="510" y="35" type="curve" smooth="yes"/>
      <point x="510" y="50"/>
      <point x="493" y="80"/>
      <point x="475" y="104" type="curve" smooth="yes"/>
      <point x="297" y="344" type="line"/>
      <point x="188" y="208" type="line"/>
      <point x="188" y="65" type="line" smooth="yes"/>
      <point x="188" y="35"/>
      <point x="202" y="21"/>
      <point x="223" y="8" type="curve"/>
      <point x="221" y="-1" type="line"/>
      <point x="196" y="1"/>
      <point x="177" y="1"/>
      <point x="152" y="1" type="curve" smooth="yes"/>
      <point x="133" y="1"/>
      <point x="89" y="1"/>
      <point x="70" y="-1" type="curve"/>
      <point x="69" y="10" type="line"/>
      <point x="90" y="18"/>
      <point x="106" y="36"/>
      <point x="106" y="65" type="curve" smooth="yes"/>
      <point x="106" y="630" type="line" smooth="yes"/>
      <point x="106" y="660"/>
      <point x="99" y="683"/>
      <point x="73" y="691" type="curve"/>
      <point x="76" y="701" type="line"/>
      <point x="104" y="699"/>
      <point x="122" y="699"/>
      <point x="150" y="699" type="curve" smooth="yes"/>
      <point x="174" y="699"/>
      <point x="196" y="700"/>
      <point x="219" y="701" type="curve"/>
      <point x="222" y="692" type="line"/>
      <point x="199" y="681"/>
      <point x="188" y="663"/>
      <point x="188" y="627" type="curve" smooth="yes"/>
      <point x="188" y="275" type="line"/>
      <point x="448" y="609" type="line" smooth="yes"/>
      <point x="467" y="634"/>
      <point x="482" y="657"/>
      <point x="482" y="667" type="curve" smooth="yes"/>
      <point x="482" y="679"/>
      <point x="476" y="686"/>
      <point x="462" y="692" type="curve"/>
      <point x="466" y="701" type="line"/>
      <point x="487" y="700"/>
      <point x="518" y="699"/>
      <point x="543" y="699" type="curve" smooth="yes"/>
      <point x="560" y="699"/>
      <point x="580" y="700"/>
      <point x="597" y="701" type="curve"/>
      <point x="600" y="692" type="line"/>
      <point x="575" y="682"/>
      <point x="552" y="665"/>
      <point x="517" y="621" type="curve" smooth="yes"/>
      <point x="347" y="408" type="line"/>
      <point x="589" y="85" type="line" smooth="yes"/>
      <point x="624" y="38"/>
      <point x="641" y="21"/>
    </contour>
  </outline>
</glyph>
<glyph name="P" format="1">
  <advance width="650"/>
  <unicode hex="0050"/>
  <outline>
    <contour>
      <point x="615" y="542" type="curve" smooth="yes"/>
      <point x="615" y="395"/>
      <point x="466" y="343"/>
      <point x="304" y="343" type="curve" smooth="yes"/>
      <point x="271" y="343"/>
      <point x="225" y="343"/>
      <point x="188" y="343" type="curve"/>
      <point x="188" y="81" type="line" smooth="yes"/>
      <point x="188" y="38"/>
      <point x="199" y="21"/>
      <point x="226" y="11" type="curve"/>
      <point x="222" y="-1" type="line"/>
      <point x="195" y="1"/>
      <point x="176" y="1"/>
      <point x="149" y="1" type="curve" smooth="yes"/>
      <point x="126" y="1"/>
      <point x="102" y="2"/>
      <point x="79" y="-1" type="curve"/>
      <point x="74" y="9" type="line"/>
      <point x="95" y="19"/>
      <point x="106" y="40"/>
      <point x="106" y="70" type="curve" smooth="yes"/>
      <point x="106" y="620" type="line" smooth="yes"/>
      <point x="106" y="662"/>
      <point x="99" y="678"/>
      <point x="74" y="691" type="curve"/>
      <point x="77" y="701" type="line"/>
      <point x="142" y="700"/>
      <point x="173" y="699"/>
      <point x="244" y="699" type="curve" smooth="yes"/>
      <point x="295" y="699"/>
      <point x="350" y="700"/>
      <point x="400" y="700" type="curve" smooth="yes"/>
      <point x="532" y="700"/>
      <point x="615" y="644"/>
    </contour>
    <contour>
      <point x="527" y="533" type="curve" smooth="yes"/>
      <point x="527" y="616"/>
      <point x="475" y="655"/>
      <point x="383" y="655" type="curve" smooth="yes"/>
      <point x="338" y="655"/>
      <point x="234" y="654"/>
      <point x="188" y="653" type="curve"/>
      <point x="188" y="389" type="line"/>
      <point x="227" y="387"/>
      <point x="271" y="388"/>
      <point x="309" y="388" type="curve" smooth="yes"/>
      <point x="449" y="388"/>
      <point x="527" y="435"/>
    </contour>
  </outline>
</glyph>
<glyph name="Q" format="1">
  <advance width="826"/>
  <unicode hex="0051"/>
  <outline>
    <contour>
      <point x="1071" y="-81" type="line"/>
      <point x="1023" y="-130"/>
      <point x="973" y="-165"/>
      <point x="879" y="-165" type="curve" smooth="yes"/>
      <point x="770" y="-165"/>
      <point x="653" y="-111"/>
      <point x="490" y="2" type="curve"/>
      <point x="466" y="-3"/>
      <point x="442" y="-6"/>
      <point x="418" y="-6" type="curve" smooth="yes"/>
      <point x="207" y="-6"/>
      <point x="49" y="136"/>
      <point x="49" y="339" type="curve" smooth="yes"/>
      <point x="49" y="552"/>
      <point x="212" y="710"/>
      <point x="423" y="710" type="curve" smooth="yes"/>
      <point x="623" y="710"/>
      <point x="777" y="566"/>
      <point x="777" y="367" type="curve" smooth="yes"/>
      <point x="777" y="228"/>
      <point x="698" y="101"/>
      <point x="583" y="37" type="curve"/>
      <point x="719" y="-69"/>
      <point x="823" y="-124"/>
      <point x="923" y="-124" type="curve" smooth="yes"/>
      <point x="981" y="-124"/>
      <point x="1026" y="-102"/>
      <point x="1058" y="-71" type="curve"/>
    </contour>
    <contour>
      <point x="688" y="365" type="curve" smooth="yes"/>
      <point x="688" y="532"/>
      <point x="578" y="665"/>
      <point x="411" y="665" type="curve" smooth="yes"/>
      <point x="242" y="665"/>
      <point x="138" y="530"/>
      <point x="138" y="347" type="curve" smooth="yes"/>
      <point x="138" y="161"/>
      <point x="257" y="35"/>
      <point x="418" y="35" type="curve" smooth="yes"/>
      <point x="583" y="35"/>
      <point x="688" y="191"/>
    </contour>
  </outline>
</glyph>
<glyph name="R" format="1">
  <advance width="690"/>
  <unicode hex="0052"/>
  <outline>
    <contour>
      <point x="699" y="10" type="curve"/>
      <point x="696" y="-5" type="line"/>
      <point x="537" y="-4"/>
      <point x="403" y="122"/>
      <point x="297" y="353" type="curve"/>
      <point x="253" y="353"/>
      <point x="222" y="353"/>
      <point x="188" y="353" type="curve"/>
      <point x="188" y="81" type="line" smooth="yes"/>
      <point x="188" y="40"/>
      <point x="200" y="23"/>
      <point x="231" y="10" type="curve"/>
      <point x="226" y="-1" type="line"/>
      <point x="194" y="2"/>
      <point x="178" y="1"/>
      <point x="150" y="1" type="curve" smooth="yes"/>
      <point x="122" y="1"/>
      <point x="105" y="1"/>
      <point x="76" y="-1" type="curve"/>
      <point x="72" y="8" type="line"/>
      <point x="96" y="19"/>
      <point x="106" y="40"/>
      <point x="106" y="73" type="curve" smooth="yes"/>
      <point x="106" y="629" type="line" smooth="yes"/>
      <point x="106" y="651"/>
      <point x="98" y="677"/>
      <point x="70" y="692" type="curve"/>
      <point x="73" y="701" type="line"/>
      <point x="123" y="699"/>
      <point x="161" y="699"/>
      <point x="211" y="699" type="curve" smooth="yes"/>
      <point x="264" y="699"/>
      <point x="324" y="700"/>
      <point x="376" y="700" type="curve" smooth="yes"/>
      <point x="498" y="700"/>
      <point x="599" y="649"/>
      <point x="599" y="539" type="curve" smooth="yes"/>
      <point x="599" y="433"/>
      <point x="511" y="376"/>
      <point x="397" y="359" type="curve"/>
      <point x="474" y="164"/>
      <point x="580" y="30"/>
    </contour>
    <contour>
      <point x="511" y="532" type="curve" smooth="yes"/>
      <point x="511" y="617"/>
      <point x="461" y="655"/>
      <point x="356" y="655" type="curve" smooth="yes"/>
      <point x="292" y="655"/>
      <point x="246" y="654"/>
      <point x="188" y="653" type="curve"/>
      <point x="188" y="399" type="line"/>
      <point x="236" y="399"/>
      <point x="281" y="398"/>
      <point x="331" y="398" type="curve" smooth="yes"/>
      <point x="429" y="398"/>
      <point x="511" y="440"/>
    </contour>
  </outline>
</glyph>
<glyph name="T" format="1">
  <advance width="637"/>
  <unicode hex="0054"/>
  <outline>
    <contour>
      <point x="621" y="701" type="curve"/>
      <point x="589" y="624" type="line"/>
      <point x="579" y="624" type="line"/>
      <point x="573" y="639"/>
      <point x="561" y="653"/>
      <point x="500" y="653" type="curve" smooth="yes"/>
      <point x="357" y="653" type="line"/>
      <point x="357" y="83" type="line" smooth="yes"/>
      <point x="357" y="43"/>
      <point x="367" y="24"/>
      <point x="403" y="10" type="curve"/>
      <point x="401" y="-1" type="line"/>
      <point x="377" y="1"/>
      <point x="346" y="1"/>
      <point x="321" y="1" type="curve" smooth="yes"/>
      <point x="297" y="1"/>
      <point x="263" y="0"/>
      <point x="240" y="-1" type="curve"/>
      <point x="238" y="10" type="line"/>
      <point x="264" y="22"/>
      <point x="275" y="40"/>
      <point x="275" y="77" type="curve" smooth="yes"/>
      <point x="275" y="653" type="line"/>
      <point x="160" y="653" type="line" smooth="yes"/>
      <point x="78" y="653"/>
      <point x="51" y="641"/>
      <point x="24" y="622" type="curve"/>
      <point x="16" y="628" type="line"/>
      <point x="48" y="701" type="line"/>
      <point x="153" y="700"/>
      <point x="213" y="699"/>
      <point x="318" y="699" type="curve" smooth="yes"/>
      <point x="436" y="699"/>
      <point x="504" y="700"/>
    </contour>
  </outline>
</glyph>
<glyph name="U" format="1">
  <advance width="730"/>
  <unicode hex="0055"/>
  <outline>
    <contour>
      <point x="666" y="694" type="line"/>
      <point x="642" y="681"/>
      <point x="630" y="660"/>
      <point x="630" y="630" type="curve" smooth="yes"/>
      <point x="630" y="246" type="line" smooth="yes"/>
      <point x="630" y="87"/>
      <point x="526" y="-6"/>
      <point x="360" y="-6" type="curve" smooth="yes"/>
      <point x="200" y="-6"/>
      <point x="100" y="85"/>
      <point x="100" y="224" type="curve" smooth="yes"/>
      <point x="100" y="601" type="line" smooth="yes"/>
      <point x="100" y="649"/>
      <point x="92" y="677"/>
      <point x="66" y="692" type="curve"/>
      <point x="68" y="702" type="line"/>
      <point x="99" y="700"/>
      <point x="109" y="699"/>
      <point x="140" y="699" type="curve" smooth="yes"/>
      <point x="160" y="699"/>
      <point x="182" y="699"/>
      <point x="207" y="701" type="curve"/>
      <point x="210" y="693" type="line"/>
      <point x="188" y="676"/>
      <point x="182" y="657"/>
      <point x="182" y="611" type="curve" smooth="yes"/>
      <point x="182" y="231" type="line" smooth="yes"/>
      <point x="182" y="109"/>
      <point x="253" y="43"/>
      <point x="372" y="43" type="curve" smooth="yes"/>
      <point x="494" y="43"/>
      <point x="576" y="109"/>
      <point x="576" y="239" type="curve" smooth="yes"/>
      <point x="576" y="625" type="line" smooth="yes"/>
      <point x="576" y="661"/>
      <point x="565" y="680"/>
      <point x="540" y="693" type="curve"/>
      <point x="542" y="701" type="line"/>
      <point x="558" y="700"/>
      <point x="587" y="699"/>
      <point x="603" y="699" type="curve" smooth="yes"/>
      <point x="617" y="699"/>
      <point x="650" y="700"/>
      <point x="664" y="701" type="curve"/>
    </contour>
  </outline>
</glyph>
<glyph name="V" format="1">
  <advance width="732"/>
  <unicode hex="0056"/>
  <outline>
    <contour>
      <point x="723" y="692" type="line"/>
      <point x="701" y="680"/>
      <point x="684" y="661"/>
      <point x="666" y="621" type="curve" smooth="yes"/>
      <point x="371" y="-17" type="line"/>
      <point x="354" y="-17" type="line"/>
      <point x="69" y="615" type="line" smooth="yes"/>
      <point x="52" y="653"/>
      <point x="40" y="677"/>
      <point x="9" y="692" type="curve"/>
      <point x="11" y="701" type="line"/>
      <point x="38" y="700"/>
      <point x="51" y="699"/>
      <point x="79" y="699" type="curve" smooth="yes"/>
      <point x="109" y="699"/>
      <point x="141" y="699"/>
      <point x="170" y="701" type="curve"/>
      <point x="173" y="692" type="line"/>
      <point x="157" y="685"/>
      <point x="148" y="671"/>
      <point x="148" y="658" type="curve" smooth="yes"/>
      <point x="148" y="643"/>
      <point x="156" y="620"/>
      <point x="166" y="596" type="curve" smooth="yes"/>
      <point x="380" y="104" type="line"/>
      <point x="604" y="609" type="line" smooth="yes"/>
      <point x="615" y="635"/>
      <point x="620" y="649"/>
      <point x="620" y="661" type="curve" smooth="yes"/>
      <point x="620" y="673"/>
      <point x="612" y="685"/>
      <point x="597" y="692" type="curve"/>
      <point x="601" y="701" type="line"/>
      <point x="623" y="700"/>
      <point x="647" y="699"/>
      <point x="672" y="699" type="curve" smooth="yes"/>
      <point x="689" y="699"/>
      <point x="704" y="700"/>
      <point x="720" y="701" type="curve"/>
    </contour>
  </outline>
</glyph>
<glyph name="W" format="1">
  <advance width="914"/>
  <unicode hex="0057"/>
  <outline>
    <contour>
      <point x="912" y="692" type="line"/>
      <point x="886" y="680"/>
      <point x="869" y="658"/>
      <point x="850" y="611" type="curve" smooth="yes"/>
      <point x="601" y="-17" type="line"/>
      <point x="584" y="-17" type="line"/>
      <point x="449" y="400" type="line"/>
      <point x="301" y="-17" type="line"/>
      <point x="284" y="-17" type="line"/>
      <point x="63" y="619" type="line" smooth="yes"/>
      <point x="48" y="662"/>
      <point x="36" y="680"/>
      <point x="12" y="692" type="curve"/>
      <point x="14" y="701" type="line"/>
      <point x="37" y="700"/>
      <point x="62" y="699"/>
      <point x="85" y="699" type="curve" smooth="yes"/>
      <point x="107" y="699"/>
      <point x="140" y="699"/>
      <point x="164" y="701" type="curve"/>
      <point x="165" y="692" type="line"/>
      <point x="150" y="684"/>
      <point x="141" y="674"/>
      <point x="141" y="662" type="curve" smooth="yes"/>
      <point x="141" y="649"/>
      <point x="143" y="635"/>
      <point x="148" y="619" type="curve" smooth="yes"/>
      <point x="311" y="144" type="line"/>
      <point x="456" y="571" type="line"/>
      <point x="473" y="571" type="line"/>
      <point x="614" y="141" type="line"/>
      <point x="796" y="610" type="line" smooth="yes"/>
      <point x="803" y="628"/>
      <point x="809" y="650"/>
      <point x="809" y="663" type="curve" smooth="yes"/>
      <point x="809" y="675"/>
      <point x="801" y="686"/>
      <point x="783" y="692" type="curve"/>
      <point x="785" y="701" type="line"/>
      <point x="804" y="700"/>
      <point x="844" y="699"/>
      <point x="860" y="699" type="curve" smooth="yes"/>
      <point x="875" y="699"/>
      <point x="893" y="699"/>
      <point x="910" y="701" type="curve"/>
    </contour>
  </outline>
</glyph>
<glyph name="Y" format="1">
  <advance width="710"/>
  <unicode hex="0059"/>
  <outline>
    <contour>
      <point x="716" y="692" type="line"/>
      <point x="689" y="682"/>
      <point x="666" y="660"/>
      <point x="642" y="627" type="curve" smooth="yes"/>
      <point x="391" y="274" type="line"/>
      <point x="391" y="63" type="line" smooth="yes"/>
      <point x="391" y="36"/>
      <point x="404" y="23"/>
      <point x="433" y="11" type="curve"/>
      <point x="431" y="-1" type="line"/>
      <point x="401" y="1"/>
      <point x="374" y="1"/>
      <point x="341" y="1" type="curve" smooth="yes"/>
      <point x="314" y="1"/>
      <point x="295" y="0"/>
      <point x="266" y="-1" type="curve"/>
      <point x="264" y="10" type="line"/>
      <point x="293" y="19"/>
      <point x="309" y="32"/>
      <point x="309" y="60" type="curve" smooth="yes"/>
      <point x="309" y="264" type="line"/>
      <point x="74" y="619" type="line" smooth="yes"/>
      <point x="49" y="657"/>
      <point x="30" y="680"/>
      <point x="3" y="692" type="curve"/>
      <point x="5" y="701" type="line"/>
      <point x="29" y="700"/>
      <point x="47" y="699"/>
      <point x="70" y="699" type="curve" smooth="yes"/>
      <point x="94" y="699"/>
      <point x="137" y="699"/>
      <point x="164" y="701" type="curve"/>
      <point x="167" y="693" type="line"/>
      <point x="154" y="688"/>
      <point x="147" y="679"/>
      <point x="147" y="669" type="curve" smooth="yes"/>
      <point x="147" y="660"/>
      <point x="153" y="640"/>
      <point x="176" y="605" type="curve" smooth="yes"/>
      <point x="365" y="317" type="line"/>
      <point x="566" y="609" type="line" smooth="yes"/>
      <point x="590" y="644"/>
      <point x="596" y="660"/>
      <point x="596" y="672" type="curve" smooth="yes"/>
      <point x="596" y="681"/>
      <point x="589" y="687"/>
      <point x="577" y="692" type="curve"/>
      <point x="581" y="701" type="line"/>
      <point x="601" y="700"/>
      <point x="633" y="699"/>
      <point x="649" y="699" type="curve" smooth="yes"/>
      <point x="669" y="699"/>
      <point x="694" y="699"/>
      <point x="714" y="701" type="curve"/>
    </contour>
  </outline>
</glyph>
<glyph name="bracketleft" format="1">
  <advance width="380"/>
  <unicode hex="005B"/>
  <outline>
    <contour>
      <point x="328" y="0" type="line"/>
      <point x="101" y="-15" type="line"/>
      <point x="101" y="715" type="line"/>
      <point x="328" y="700" type="line"/>
      <point x="328" y="678" type="line"/>
      <point x="177" y="687" type="line"/>
      <point x="177" y="13" type="line"/>
      <point x="328" y="22" type="line"/>
    </contour>
  </outline>
</glyph>
<glyph name="backslash" format="1">
  <advance width="480"/>
  <unicode hex="005C"/>
  <outline>
    <contour>
      <point x="445" y="-5" type="line"/>
      <point x="393" y="-5" type="line"/>
      <point x="35" y="705" type="line"/>
      <point x="87" y="705" type="line"/>
    </contour>
  </outline>
</glyph>
<glyph name="bracketright" format="1">
  <advance width="380"/>
  <unicode hex="005D"/>
  <outline>
    <contour>
      <point x="279" y="-15" type="line"/>
      <point x="52" y="0" type="line"/>
      <point x="52" y="22" type="line"/>
      <point x="203" y="13" type="line"/>
      <point x="203" y="687" type="line"/>
      <point x="52" y="678" type="line"/>
      <point x="52" y="700" type="line"/>
      <point x="279" y="715" type="line"/>
    </contour>
  </outline>
</glyph>
<glyph name="asciicircum" format="1">
  <advance width="440"/>
  <unicode hex="005E"/>
  <outline>
    <contour>
      <point x="380" y="438" type="line"/>
      <point x="369" y="438" type="line"/>
      <point x="220" y="610" type="line"/>
      <point x="71" y="438" type="line"/>
      <point x="60" y="438" type="line"/>
      <point x="212" y="704" type="line"/>
      <point x="228" y="704" type="line"/>
    </contour>
  </outline>
</glyph>
<glyph name="grave" format="1">
  <advance width="500"/>
  <unicode hex="0060"/>
  <outline>
    <contour>
      <point x="297" y="748" type="curve"/>
      <point x="290" y="742" type="line"/>
      <point x="144" y="832" type="line"/>
      <point x="144" y="840" type="line"/>
      <point x="257" y="840" type="line"/>
      <point x="265" y="832" type="line"/>
      <point x="267" y="805"/>
      <point x="274" y="779"/>
    </contour>
  </outline>
</glyph>
<glyph name="b" format="1">
  <advance width="645"/>
  <unicode hex="0062"/>
  <outline>
    <contour>
      <point x="596" y="202" type="curve" smooth="yes"/>
      <point x="596" y="66"/>
      <point x="485" y="-1"/>
      <point x="331" y="-1" type="curve" smooth="yes"/>
      <point x="273" y="-1"/>
      <point x="261" y="0"/>
      <point x="221" y="0" type="curve" smooth="yes"/>
      <point x="169" y="0"/>
      <point x="141" y="0"/>
      <point x="77" y="-1" type="curve"/>
      <point x="74" y="8" type="line"/>
      <point x="99" y="24"/>
      <point x="106" y="48"/>
      <point x="106" y="69" type="curve" smooth="yes"/>
      <point x="106" y="639" type="line" smooth="yes"/>
      <point x="106" y="663"/>
      <point x="91" y="680"/>
      <point x="73" y="689" type="curve"/>
      <point x="79" y="701" type="line"/>
      <point x="110" y="700"/>
      <point x="165" y="700"/>
      <point x="196" y="700" type="curve" smooth="yes"/>
      <point x="227" y="700"/>
      <point x="259" y="701"/>
      <point x="301" y="701" type="curve" smooth="yes"/>
      <point x="444" y="701"/>
      <point x="535" y="649"/>
      <point x="535" y="542" type="curve" smooth="yes"/>
      <point x="535" y="465"/>
      <point x="474" y="411"/>
      <point x="404" y="389" type="curve"/>
      <point x="404" y="386" type="line"/>
      <point x="527" y="366"/>
      <point x="596" y="309"/>
    </contour>
    <contour>
      <point x="449" y="529" type="curve" smooth="yes"/>
      <point x="449" y="604"/>
      <point x="400" y="656"/>
      <point x="287" y="656" type="curve" smooth="yes"/>
      <point x="257" y="656"/>
      <point x="236" y="655"/>
      <point x="187" y="654" type="curve"/>
      <point x="187" y="404" type="line"/>
      <point x="289" y="404" type="line" smooth="yes"/>
      <point x="395" y="404"/>
      <point x="449" y="451"/>
    </contour>
    <contour>
      <point x="510" y="197" type="curve" smooth="yes"/>
      <point x="510" y="302"/>
      <point x="438" y="360"/>
      <point x="315" y="360" type="curve" smooth="yes"/>
      <point x="187" y="360" type="line"/>
      <point x="187" y="47" type="line"/>
      <point x="248" y="45"/>
      <point x="273" y="43"/>
      <point x="338" y="43" type="curve" smooth="yes"/>
      <point x="450" y="43"/>
      <point x="510" y="97"/>
    </contour>
  </outline>
</glyph>
<glyph name="c" format="1">
  <advance width="695"/>
  <unicode hex="0063"/>
  <outline>
    <contour>
      <point x="640" y="155" type="line"/>
      <point x="636" y="129"/>
      <point x="632" y="82"/>
      <point x="632" y="55" type="curve"/>
      <point x="569" y="19"/>
      <point x="488" y="-6"/>
      <point x="388" y="-6" type="curve" smooth="yes"/>
      <point x="207" y="-6"/>
      <point x="49" y="112"/>
      <point x="49" y="340" type="curve" smooth="yes"/>
      <point x="49" y="560"/>
      <point x="217" y="706"/>
      <point x="405" y="706" type="curve" smooth="yes"/>
      <point x="503" y="706"/>
      <point x="566" y="683"/>
      <point x="622" y="649" type="curve"/>
      <point x="622" y="622"/>
      <point x="626" y="575"/>
      <point x="630" y="549" type="curve"/>
      <point x="618" y="544" type="line"/>
      <point x="557" y="624"/>
      <point x="494" y="661"/>
      <point x="398" y="661" type="curve" smooth="yes"/>
      <point x="246" y="661"/>
      <point x="138" y="543"/>
      <point x="138" y="349" type="curve" smooth="yes"/>
      <point x="138" y="144"/>
      <point x="257" y="39"/>
      <point x="409" y="39" type="curve" smooth="yes"/>
      <point x="498" y="39"/>
      <point x="570" y="76"/>
      <point x="628" y="160" type="curve"/>
    </contour>
  </outline>
</glyph>
<glyph name="d" format="1">
  <advance width="773"/>
  <unicode hex="0064"/>
  <outline>
    <contour>
      <point x="724" y="357" type="curve" smooth="yes"/>
      <point x="724" y="131"/>
      <point x="556" y="-2"/>
      <point x="328" y="-2" type="curve" smooth="yes"/>
      <point x="268" y="-2"/>
      <point x="220" y="0"/>
      <point x="182" y="0" type="curve" smooth="yes"/>
      <point x="147" y="0"/>
      <point x="126" y="-1"/>
      <point x="78" y="-3" type="curve"/>
      <point x="74" y="6" type="line"/>
      <point x="94" y="19"/>
      <point x="106" y="37"/>
      <point x="106" y="73" type="curve" smooth="yes"/>
      <point x="106" y="631" type="line" smooth="yes"/>
      <point x="106" y="663"/>
      <point x="96" y="682"/>
      <point x="73" y="693" type="curve"/>
      <point x="77" y="703" type="line"/>
      <point x="119" y="701"/>
      <point x="142" y="700"/>
      <point x="166" y="700" type="curve" smooth="yes"/>
      <point x="230" y="700"/>
      <point x="275" y="702"/>
      <point x="325" y="702" type="curve" smooth="yes"/>
      <point x="549" y="702"/>
      <point x="724" y="569"/>
    </contour>
    <contour>
      <point x="635" y="355" type="curve" smooth="yes"/>
      <point x="635" y="539"/>
      <point x="509" y="657"/>
      <point x="313" y="657" type="curve" smooth="yes"/>
      <point x="265" y="657"/>
      <point x="235" y="657"/>
      <point x="188" y="655" type="curve"/>
      <point x="188" y="47" type="line"/>
      <point x="234" y="44"/>
      <point x="288" y="43"/>
      <point x="335" y="43" type="curve" smooth="yes"/>
      <point x="528" y="43"/>
      <point x="635" y="158"/>
    </contour>
  </outline>
</glyph>
<glyph name="e" format="1">
  <advance width="638"/>
  <unicode hex="0065"/>
  <outline>
    <contour>
      <point x="623" y="101" type="line"/>
      <point x="598" y="70"/>
      <point x="573" y="27"/>
      <point x="561" y="-1" type="curve"/>
      <point x="478" y="1"/>
      <point x="430" y="1"/>
      <point x="347" y="1" type="curve" smooth="yes"/>
      <point x="246" y="1"/>
      <point x="178" y="1"/>
      <point x="78" y="-2" type="curve"/>
      <point x="74" y="6" type="line"/>
      <point x="97" y="20"/>
      <point x="106" y="41"/>
      <point x="106" y="78" type="curve" smooth="yes"/>
      <point x="106" y="628" type="line" smooth="yes"/>
      <point x="106" y="662"/>
      <point x="100" y="681"/>
      <point x="73" y="693" type="curve"/>
      <point x="76" y="703" type="line"/>
      <point x="174" y="698"/>
      <point x="210" y="699"/>
      <point x="308" y="699" type="curve" smooth="yes"/>
      <point x="398" y="699"/>
      <point x="483" y="699"/>
      <point x="573" y="704" type="curve"/>
      <point x="563" y="687"/>
      <point x="549" y="657"/>
      <point x="542" y="636" type="curve"/>
      <point x="531" y="648"/>
      <point x="509" y="653"/>
      <point x="444" y="653" type="curve" smooth="yes"/>
      <point x="188" y="653" type="line"/>
      <point x="188" y="421" type="line"/>
      <point x="297" y="421" type="line" smooth="yes"/>
      <point x="370" y="421"/>
      <point x="411" y="423"/>
      <point x="434" y="436" type="curve"/>
      <point x="440" y="431" type="line"/>
      <point x="429" y="418"/>
      <point x="414" y="384"/>
      <point x="407" y="363" type="curve"/>
      <point x="389" y="373"/>
      <point x="351" y="375"/>
      <point x="297" y="375" type="curve" smooth="yes"/>
      <point x="188" y="375" type="line"/>
      <point x="188" y="47" type="line"/>
      <point x="406" y="47" type="line" smooth="yes"/>
      <point x="536" y="47"/>
      <point x="575" y="69"/>
      <point x="614" y="108" type="curve"/>
    </contour>
  </outline>
</glyph>
<glyph name="f" format="1">
  <advance width="573"/>
  <unicode hex="0066"/>
  <outline>
    <contour>
      <point x="556" y="703" type="curve"/>
      <point x="544" y="688"/>
      <point x="530" y="662"/>
      <point x="522" y="638" type="curve"/>
      <point x="500" y="648"/>
      <point x="467" y="653"/>
      <point x="399" y="653" type="curve" smooth="yes"/>
      <point x="188" y="653" type="line"/>
      <point x="188" y="411" type="line"/>
      <point x="290" y="411" type="line" smooth="yes"/>
      <point x="349" y="411"/>
      <point x="396" y="417"/>
      <point x="415" y="429" type="curve"/>
      <point x="422" y="425" type="line"/>
      <point x="413" y="412"/>
      <point x="397" y="377"/>
      <point x="390" y="355" type="curve"/>
      <point x="368" y="363"/>
      <point x="331" y="365"/>
      <point x="286" y="365" type="curve" smooth="yes"/>
      <point x="188" y="365" type="line"/>
      <point x="188" y="79" type="line" smooth="yes"/>
      <point x="188" y="42"/>
      <point x="201" y="23"/>
      <point x="228" y="10" type="curve"/>
      <point x="227" y="-1" type="line"/>
      <point x="202" y="0"/>
      <point x="171" y="1"/>
      <point x="146" y="1" type="curve" smooth="yes"/>
      <point x="124" y="1"/>
      <point x="101" y="1"/>
      <point x="79" y="-1" type="curve"/>
      <point x="76" y="9" type="line"/>
      <point x="96" y="17"/>
      <point x="106" y="44"/>
      <point x="106" y="74" type="curve" smooth="yes"/>
      <point x="106" y="627" type="line" smooth="yes"/>
      <point x="106" y="660"/>
      <point x="96" y="681"/>
      <point x="72" y="691" type="curve"/>
      <point x="75" y="701" type="line"/>
      <point x="133" y="700"/>
      <point x="180" y="700"/>
      <point x="238" y="700" type="curve" smooth="yes"/>
      <point x="368" y="700"/>
      <point x="454" y="700"/>
    </contour>
  </outline>
</glyph>
<glyph name="l" format="1">
  <advance width="622"/>
  <unicode hex="006C"/>
  <outline>
    <contour>
      <point x="610" y="105" type="curve"/>
      <point x="600" y="113" type="line"/>
      <point x="554" y="68"/>
      <point x="526" y="49"/>
      <point x="428" y="49" type="curve" smooth="yes"/>
      <point x="188" y="49" type="line"/>
      <point x="188" y="633" type="line" smooth="yes"/>
      <point x="188" y="662"/>
      <point x="197" y="679"/>
      <point x="221" y="690" type="curve"/>
      <point x="218" y="701" type="line"/>
      <point x="200" y="699"/>
      <point x="167" y="699"/>
      <point x="142" y="699" type="curve" smooth="yes"/>
      <point x="117" y="699"/>
      <point x="95" y="699"/>
      <point x="77" y="701" type="curve"/>
      <point x="72" y="690" type="line"/>
      <point x="98" y="681"/>
      <point x="106" y="666"/>
      <point x="106" y="627" type="curve" smooth="yes"/>
      <point x="106" y="72" type="line" smooth="yes"/>
      <point x="106" y="43"/>
      <point x="92" y="17"/>
      <point x="75" y="6" type="curve"/>
      <point x="77" y="-1" type="line"/>
      <point x="153" y="0"/>
      <point x="202" y="0"/>
      <point x="282" y="0" type="curve" smooth="yes"/>
      <point x="384" y="0"/>
      <point x="442" y="0"/>
      <point x="544" y="-1" type="curve"/>
      <point x="556" y="24"/>
      <point x="582" y="71"/>
    </contour>
  </outline>
</glyph>
<glyph name="m" format="1">
  <advance width="880"/>
  <unicode hex="006D"/>
  <outline>
    <contour>
      <point x="847" y="10" type="curve"/>
      <point x="844" y="-1" type="line"/>
      <point x="816" y="0"/>
      <point x="789" y="1"/>
      <point x="761" y="1" type="curve" smooth="yes"/>
      <point x="727" y="1"/>
      <point x="699" y="1"/>
      <point x="666" y="-1" type="curve"/>
      <point x="664" y="10" type="line"/>
      <point x="699" y="23"/>
      <point x="711" y="47"/>
      <point x="708" y="87" type="curve" smooth="yes"/>
      <point x="672" y="602" type="line"/>
      <point x="431" y="133" type="line"/>
      <point x="422" y="133" type="line"/>
      <point x="179" y="598" type="line"/>
      <point x="144" y="89" type="line" smooth="yes"/>
      <point x="141" y="44"/>
      <point x="145" y="30"/>
      <point x="193" y="10" type="curve"/>
      <point x="190" y="-1" type="line"/>
      <point x="164" y="1"/>
      <point x="143" y="1"/>
      <point x="116" y="1" type="curve" smooth="yes"/>
      <point x="92" y="1"/>
      <point x="69" y="1"/>
      <point x="45" y="-1" type="curve"/>
      <point x="42" y="9" type="line"/>
      <point x="76" y="23"/>
      <point x="87" y="39"/>
      <point x="90" y="83" type="curve" smooth="yes"/>
      <point x="126" y="608" type="line" smooth="yes"/>
      <point x="129" y="653"/>
      <point x="117" y="676"/>
      <point x="90" y="691" type="curve"/>
      <point x="92" y="701" type="line"/>
      <point x="100" y="700"/>
      <point x="126" y="699"/>
      <point x="146" y="699" type="curve" smooth="yes"/>
      <point x="181" y="699"/>
      <point x="209" y="700"/>
      <point x="225" y="700" type="curve"/>
      <point x="230" y="677"/>
      <point x="246" y="643"/>
      <point x="294" y="549" type="curve" smooth="yes"/>
      <point x="444" y="259" type="line"/>
      <point x="587" y="543" type="line" smooth="yes"/>
      <point x="628" y="625"/>
      <point x="654" y="679"/>
      <point x="658" y="700" type="curve"/>
      <point x="672" y="699"/>
      <point x="699" y="699"/>
      <point x="722" y="699" type="curve" smooth="yes"/>
      <point x="749" y="699"/>
      <point x="765" y="699"/>
      <point x="788" y="701" type="curve"/>
      <point x="791" y="690" type="line"/>
      <point x="762" y="680"/>
      <point x="751" y="656"/>
      <point x="754" y="619" type="curve" smooth="yes"/>
      <point x="790" y="94" type="line" smooth="yes"/>
      <point x="793" y="44"/>
      <point x="805" y="27"/>
    </contour>
  </outline>
</glyph>
<glyph name="n" format="1">
  <advance width="732"/>
  <unicode hex="006E"/>
  <outline>
    <contour>
      <point x="668" y="692" type="line"/>
      <point x="643" y="679"/>
      <point x="632" y="663"/>
      <point x="632" y="630" type="curve" smooth="yes"/>
      <point x="632" y="-4" type="line"/>
      <point x="622" y="-6" type="line"/>
      <point x="604" y="29"/>
      <point x="567" y="78"/>
      <point x="518" y="141" type="curve" smooth="yes"/>
      <point x="160" y="607" type="line"/>
      <point x="160" y="87" type="line" smooth="yes"/>
      <point x="160" y="44"/>
      <point x="175" y="23"/>
      <point x="209" y="8" type="curve"/>
      <point x="206" y="-1" type="line"/>
      <point x="187" y="0"/>
      <point x="164" y="1"/>
      <point x="142" y="1" type="curve" smooth="yes"/>
      <point x="119" y="1"/>
      <point x="99" y="1"/>
      <point x="77" y="-1" type="curve"/>
      <point x="74" y="9" type="line"/>
      <point x="92" y="19"/>
      <point x="106" y="37"/>
      <point x="106" y="66" type="curve" smooth="yes"/>
      <point x="106" y="619" type="line" smooth="yes"/>
      <point x="106" y="654"/>
      <point x="89" y="683"/>
      <point x="64" y="692" type="curve"/>
      <point x="67" y="701" type="line"/>
      <point x="82" y="699"/>
      <point x="109" y="699"/>
      <point x="135" y="699" type="curve" smooth="yes"/>
      <point x="156" y="699"/>
      <point x="168" y="699"/>
      <point x="194" y="701" type="curve"/>
      <point x="201" y="684"/>
      <point x="233" y="641"/>
      <point x="296" y="559" type="curve" smooth="yes"/>
      <point x="578" y="191" type="line"/>
      <point x="578" y="632" type="line" smooth="yes"/>
      <point x="578" y="666"/>
      <point x="565" y="683"/>
      <point x="543" y="692" type="curve"/>
      <point x="546" y="701" type="line"/>
      <point x="568" y="699"/>
      <point x="589" y="699"/>
      <point x="611" y="699" type="curve" smooth="yes"/>
      <point x="630" y="699"/>
      <point x="647" y="699"/>
      <point x="665" y="701" type="curve"/>
    </contour>
  </outline>
</glyph>
<glyph name="o" format="1">
  <advance width="826"/>
  <unicode hex="006F"/>
  <outline>
    <contour>
      <point x="777" y="367" type="curve" smooth="yes"/>
      <point x="777" y="168"/>
      <point x="616" y="-10"/>
      <point x="418" y="-10" type="curve" smooth="yes"/>
      <point x="207" y="-10"/>
      <point x="49" y="136"/>
      <point x="49" y="339" type="curve" smooth="yes"/>
      <point x="49" y="552"/>
      <point x="212" y="710"/>
      <point x="423" y="710" type="curve" smooth="yes"/>
      <point x="623" y="710"/>
      <point x="777" y="566"/>
    </contour>
    <contour>
      <point x="688" y="365" type="curve" smooth="yes"/>
      <point x="688" y="532"/>
      <point x="578" y="665"/>
      <point x="411" y="665" type="curve" smooth="yes"/>
      <point x="242" y="665"/>
      <point x="138" y="530"/>
      <point x="138" y="347" type="curve" smooth="yes"/>
      <point x="138" y="161"/>
      <point x="257" y="35"/>
      <point x="418" y="35" type="curve" smooth="yes"/>
      <point x="583" y="35"/>
      <point x="688" y="191"/>
    </contour>
  </outline>
</glyph>
<glyph name="q" format="1">
  <advance width="826"/>
  <unicode hex="0071"/>
  <outline>
    <contour>
      <point x="1446" y="-81" type="line"/>
      <point x="1370" y="-130"/>
      <point x="1286" y="-165"/>
      <point x="1136" y="-165" type="curve" smooth="yes"/>
      <point x="954" y="-165"/>
      <point x="753" y="-106"/>
      <point x="490" y="2" type="curve"/>
      <point x="467" y="-3"/>
      <point x="442" y="-6"/>
      <point x="418" y="-6" type="curve" smooth="yes"/>
      <point x="207" y="-6"/>
      <point x="49" y="136"/>
      <point x="49" y="339" type="curve" smooth="yes"/>
      <point x="49" y="552"/>
      <point x="212" y="710"/>
      <point x="423" y="710" type="curve" smooth="yes"/>
      <point x="623" y="710"/>
      <point x="777" y="566"/>
      <point x="777" y="367" type="curve" smooth="yes"/>
      <point x="777" y="232"/>
      <point x="702" y="108"/>
      <point x="592" y="42" type="curve"/>
      <point x="833" y="-63"/>
      <point x="1021" y="-124"/>
      <point x="1201" y="-124" type="curve" smooth="yes"/>
      <point x="1300" y="-124"/>
      <point x="1383" y="-102"/>
      <point x="1437" y="-70" type="curve"/>
    </contour>
    <contour>
      <point x="688" y="365" type="curve" smooth="yes"/>
      <point x="688" y="532"/>
      <point x="578" y="665"/>
      <point x="411" y="665" type="curve" smooth="yes"/>
      <point x="242" y="665"/>
      <point x="138" y="530"/>
      <point x="138" y="347" type="curve" smooth="yes"/>
      <point x="138" y="161"/>
      <point x="257" y="35"/>
      <point x="418" y="35" type="curve" smooth="yes"/>
      <point x="583" y="35"/>
      <point x="688" y="191"/>
    </contour>
  </outline>
</glyph>
<glyph name="r" format="1">
  <advance width="770"/>
  <unicode hex="0072"/>
  <outline>
    <contour>
      <point x="807" y="11" type="line"/>
      <point x="783" y="-1"/>
      <point x="762" y="-7"/>
      <point x="721" y="-7" type="curve" smooth="yes"/>
      <point x="563" y="-7"/>
      <point x="429" y="99"/>
      <point x="295" y="353" type="curve"/>
      <point x="252" y="353"/>
      <point x="221" y="353"/>
      <point x="188" y="353" type="curve"/>
      <point x="188" y="81" type="line" smooth="yes"/>
      <point x="188" y="40"/>
      <point x="200" y="23"/>
      <point x="231" y="10" type="curve"/>
      <point x="226" y="-1" type="line"/>
      <point x="194" y="2"/>
      <point x="178" y="1"/>
      <point x="150" y="1" type="curve" smooth="yes"/>
      <point x="122" y="1"/>
      <point x="105" y="1"/>
      <point x="76" y="-1" type="curve"/>
      <point x="72" y="8" type="line"/>
      <point x="96" y="19"/>
      <point x="106" y="40"/>
      <point x="106" y="73" type="curve" smooth="yes"/>
      <point x="106" y="629" type="line" smooth="yes"/>
      <point x="106" y="651"/>
      <point x="98" y="677"/>
      <point x="70" y="692" type="curve"/>
      <point x="73" y="701" type="line"/>
      <point x="123" y="699"/>
      <point x="161" y="699"/>
      <point x="211" y="699" type="curve" smooth="yes"/>
      <point x="264" y="699"/>
      <point x="324" y="700"/>
      <point x="376" y="700" type="curve" smooth="yes"/>
      <point x="498" y="700"/>
      <point x="599" y="649"/>
      <point x="599" y="539" type="curve" smooth="yes"/>
      <point x="599" y="433"/>
      <point x="511" y="376"/>
      <point x="397" y="359" type="curve"/>
      <point x="494" y="140"/>
      <point x="622" y="13"/>
      <point x="749" y="13" type="curve" smooth="yes"/>
      <point x="771" y="13"/>
      <point x="785" y="15"/>
      <point x="801" y="22" type="curve"/>
    </contour>
    <contour>
      <point x="511" y="532" type="curve" smooth="yes"/>
      <point x="511" y="617"/>
      <point x="461" y="655"/>
      <point x="356" y="655" type="curve" smooth="yes"/>
      <point x="292" y="655"/>
      <point x="246" y="654"/>
      <point x="188" y="653" type="curve"/>
      <point x="188" y="399" type="line"/>
      <point x="236" y="399"/>
      <point x="281" y="398"/>
      <point x="331" y="398" type="curve" smooth="yes"/>
      <point x="429" y="398"/>
      <point x="511" y="440"/>
    </contour>
  </outline>
</glyph>
<glyph name="s" format="1">
  <advance width="635"/>
  <unicode hex="0073"/>
  <outline>
    <contour>
      <point x="585" y="222" type="curve" smooth="yes"/>
      <point x="585" y="81"/>
      <point x="453" y="-6"/>
      <point x="286" y="-6" type="curve" smooth="yes"/>
      <point x="183" y="-6"/>
      <point x="114" y="12"/>
      <point x="44" y="43" type="curve"/>
      <point x="38" y="161" type="line"/>
      <point x="50" y="164" type="line"/>
      <point x="86" y="87"/>
      <point x="176" y="39"/>
      <point x="297" y="39" type="curve" smooth="yes"/>
      <point x="424" y="39"/>
      <point x="509" y="102"/>
      <point x="509" y="195" type="curve" smooth="yes"/>
      <point x="509" y="269"/>
      <point x="472" y="299"/>
      <point x="318" y="335" type="curve" smooth="yes"/>
      <point x="135" y="378"/>
      <point x="72" y="415"/>
      <point x="72" y="520" type="curve" smooth="yes"/>
      <point x="72" y="625"/>
      <point x="176" y="705"/>
      <point x="326" y="705" type="curve" smooth="yes"/>
      <point x="413" y="705"/>
      <point x="479" y="693"/>
      <point x="540" y="671" type="curve"/>
      <point x="530" y="586" type="line"/>
      <point x="519" y="584" type="line"/>
      <point x="480" y="629"/>
      <point x="422" y="660"/>
      <point x="310" y="660" type="curve" smooth="yes"/>
      <point x="206" y="660"/>
      <point x="148" y="606"/>
      <point x="148" y="545" type="curve" smooth="yes"/>
      <point x="148" y="483"/>
      <point x="174" y="456"/>
      <point x="336" y="418" type="curve" smooth="yes"/>
      <point x="508" y="378"/>
      <point x="585" y="332"/>
    </contour>
  </outline>
</glyph>
<glyph name="x" format="1">
  <advance width="682"/>
  <unicode hex="0078"/>
  <outline>
    <contour>
      <point x="670" y="8" type="curve"/>
      <point x="667" y="-1" type="line"/>
      <point x="640" y="0"/>
      <point x="621" y="1"/>
      <point x="593" y="1" type="curve" smooth="yes"/>
      <point x="563" y="1"/>
      <point x="524" y="1"/>
      <point x="495" y="-1" type="curve"/>
      <point x="493" y="8" type="line"/>
      <point x="509" y="15"/>
      <point x="516" y="23"/>
      <point x="516" y="36" type="curve" smooth="yes"/>
      <point x="516" y="51"/>
      <point x="507" y="72"/>
      <point x="486" y="104" type="curve" smooth="yes"/>
      <point x="333" y="338" type="line"/>
      <point x="158" y="91" type="line" smooth="yes"/>
      <point x="140" y="66"/>
      <point x="128" y="44"/>
      <point x="128" y="34" type="curve" smooth="yes"/>
      <point x="128" y="22"/>
      <point x="135" y="14"/>
      <point x="150" y="8" type="curve"/>
      <point x="146" y="-1" type="line"/>
      <point x="124" y="0"/>
      <point x="93" y="1"/>
      <point x="68" y="1" type="curve" smooth="yes"/>
      <point x="51" y="1"/>
      <point x="31" y="0"/>
      <point x="15" y="-1" type="curve"/>
      <point x="12" y="8" type="line"/>
      <point x="37" y="18"/>
      <point x="59" y="36"/>
      <point x="90" y="79" type="curve" smooth="yes"/>
      <point x="306" y="378" type="line"/>
      <point x="150" y="615" type="line" smooth="yes"/>
      <point x="119" y="662"/>
      <point x="102" y="679"/>
      <point x="72" y="692" type="curve"/>
      <point x="75" y="701" type="line"/>
      <point x="102" y="700"/>
      <point x="127" y="699"/>
      <point x="155" y="699" type="curve" smooth="yes"/>
      <point x="185" y="699"/>
      <point x="218" y="699"/>
      <point x="247" y="701" type="curve"/>
      <point x="249" y="692" type="line"/>
      <point x="233" y="685"/>
      <point x="226" y="676"/>
      <point x="226" y="663" type="curve" smooth="yes"/>
      <point x="226" y="648"/>
      <point x="240" y="621"/>
      <point x="256" y="596" type="curve" smooth="yes"/>
      <point x="354" y="444" type="line"/>
      <point x="471" y="609" type="line" smooth="yes"/>
      <point x="489" y="634"/>
      <point x="501" y="656"/>
      <point x="501" y="666" type="curve" smooth="yes"/>
      <point x="501" y="678"/>
      <point x="494" y="686"/>
      <point x="479" y="692" type="curve"/>
      <point x="483" y="701" type="line"/>
      <point x="505" y="700"/>
      <point x="536" y="699"/>
      <point x="561" y="699" type="curve" smooth="yes"/>
      <point x="578" y="699"/>
      <point x="598" y="700"/>
      <point x="614" y="701" type="curve"/>
      <point x="617" y="692" type="line"/>
      <point x="593" y="682"/>
      <point x="570" y="664"/>
      <point x="539" y="621" type="curve" smooth="yes"/>
      <point x="381" y="403" type="line"/>
      <point x="592" y="85" type="line" smooth="yes"/>
      <point x="623" y="38"/>
      <point x="640" y="21"/>
    </contour>
  </outline>
</glyph>
<glyph name="z" format="1">
  <advance width="650"/>
  <unicode hex="007A"/>
  <outline>
    <contour>
      <point x="622" y="101" type="line"/>
      <point x="597" y="70"/>
      <point x="572" y="27"/>
      <point x="560" y="-1" type="curve"/>
      <point x="477" y="1"/>
      <point x="429" y="1"/>
      <point x="346" y="1" type="curve" smooth="yes"/>
      <point x="245" y="1"/>
      <point x="137" y="1"/>
      <point x="37" y="-2" type="curve"/>
      <point x="33" y="6" type="line"/>
      <point x="482" y="653" type="line"/>
      <point x="223" y="653" type="line" smooth="yes"/>
      <point x="141" y="653"/>
      <point x="114" y="641"/>
      <point x="87" y="622" type="curve"/>
      <point x="79" y="628" type="line"/>
      <point x="111" y="701" type="line"/>
      <point x="216" y="700"/>
      <point x="254" y="699"/>
      <point x="342" y="699" type="curve" smooth="yes"/>
      <point x="440" y="699"/>
      <point x="506" y="699"/>
      <point x="594" y="700" type="curve"/>
      <point x="597" y="690" type="line"/>
      <point x="150" y="47" type="line"/>
      <point x="405" y="47" type="line" smooth="yes"/>
      <point x="535" y="47"/>
      <point x="574" y="69"/>
      <point x="613" y="108" type="curve"/>
    </contour>
  </outline>
</glyph>
<glyph name="braceleft" format="1">
  <advance width="450"/>
  <unicode hex="007B"/>
  <outline>
    <contour>
      <point x="401" y="14" type="line"/>
      <point x="353" y="-3"/>
      <point x="322" y="-10"/>
      <point x="266" y="-10" type="curve" smooth="yes"/>
      <point x="194" y="-10"/>
      <point x="148" y="21"/>
      <point x="148" y="85" type="curve" smooth="yes"/>
      <point x="148" y="141"/>
      <point x="186" y="210"/>
      <point x="186" y="264" type="curve" smooth="yes"/>
      <point x="186" y="320"/>
      <point x="138" y="339"/>
      <point x="45" y="339" type="curve" smooth="yes"/>
      <point x="35" y="339" type="line"/>
      <point x="35" y="361" type="line"/>
      <point x="45" y="361" type="line" smooth="yes"/>
      <point x="138" y="361"/>
      <point x="186" y="380"/>
      <point x="186" y="436" type="curve" smooth="yes"/>
      <point x="186" y="490"/>
      <point x="148" y="559"/>
      <point x="148" y="615" type="curve" smooth="yes"/>
      <point x="148" y="679"/>
      <point x="194" y="710"/>
      <point x="266" y="710" type="curve" smooth="yes"/>
      <point x="322" y="710"/>
      <point x="353" y="703"/>
      <point x="401" y="686" type="curve"/>
      <point x="396" y="668" type="line"/>
      <point x="358" y="679"/>
      <point x="324" y="683"/>
      <point x="292" y="683" type="curve" smooth="yes"/>
      <point x="246" y="683"/>
      <point x="223" y="661"/>
      <point x="223" y="625" type="curve" smooth="yes"/>
      <point x="223" y="578"/>
      <point x="259" y="505"/>
      <point x="259" y="454" type="curve" smooth="yes"/>
      <point x="259" y="383"/>
      <point x="206" y="360"/>
      <point x="140" y="350" type="curve"/>
      <point x="206" y="340"/>
      <point x="259" y="317"/>
      <point x="259" y="246" type="curve" smooth="yes"/>
      <point x="259" y="195"/>
      <point x="223" y="122"/>
      <point x="223" y="75" type="curve" smooth="yes"/>
      <point x="223" y="39"/>
      <point x="246" y="17"/>
      <point x="292" y="17" type="curve" smooth="yes"/>
      <point x="324" y="17"/>
      <point x="358" y="21"/>
      <point x="396" y="32" type="curve"/>
    </contour>
  </outline>
</glyph>
<glyph name="bar" format="1">
  <advance width="278"/>
  <unicode hex="007C"/>
  <outline>
    <contour>
      <point x="162" y="-125" type="line"/>
      <point x="116" y="-125" type="line"/>
      <point x="116" y="785" type="line"/>
      <point x="162" y="785" type="line"/>
    </contour>
  </outline>
</glyph>
<glyph name="braceright" format="1">
  <advance width="450"/>
  <unicode hex="007D"/>
  <outline>
    <contour>
      <point x="415" y="339" type="line"/>
      <point x="405" y="339" type="line" smooth="yes"/>
      <point x="312" y="339"/>
      <point x="264" y="320"/>
      <point x="264" y="264" type="curve" smooth="yes"/>
      <point x="264" y="210"/>
      <point x="302" y="141"/>
      <point x="302" y="85" type="curve" smooth="yes"/>
      <point x="302" y="21"/>
      <point x="256" y="-10"/>
      <point x="184" y="-10" type="curve" smooth="yes"/>
      <point x="128" y="-10"/>
      <point x="97" y="-3"/>
      <point x="49" y="14" type="curve"/>
      <point x="54" y="32" type="line"/>
      <point x="92" y="21"/>
      <point x="126" y="17"/>
      <point x="158" y="17" type="curve" smooth="yes"/>
      <point x="204" y="17"/>
      <point x="227" y="39"/>
      <point x="227" y="75" type="curve" smooth="yes"/>
      <point x="227" y="122"/>
      <point x="191" y="195"/>
      <point x="191" y="246" type="curve" smooth="yes"/>
      <point x="191" y="317"/>
      <point x="244" y="340"/>
      <point x="310" y="350" type="curve"/>
      <point x="244" y="360"/>
      <point x="191" y="383"/>
      <point x="191" y="454" type="curve" smooth="yes"/>
      <point x="191" y="505"/>
      <point x="227" y="578"/>
      <point x="227" y="625" type="curve" smooth="yes"/>
      <point x="227" y="661"/>
      <point x="204" y="683"/>
      <point x="158" y="683" type="curve" smooth="yes"/>
      <point x="126" y="683"/>
      <point x="92" y="679"/>
      <point x="54" y="668" type="curve"/>
      <point x="49" y="686" type="line"/>
      <point x="97" y="703"/>
      <point x="128" y="710"/>
      <point x="184" y="710" type="curve" smooth="yes"/>
      <point x="256" y="710"/>
      <point x="302" y="679"/>
      <point x="302" y="615" type="curve" smooth="yes"/>
      <point x="302" y="559"/>
      <point x="264" y="490"/>
      <point x="264" y="436" type="curve" smooth="yes"/>
      <point x="264" y="380"/>
      <point x="312" y="361"/>
      <point x="405" y="361" type="curve" smooth="yes"/>
      <point x="415" y="361" type="line"/>
    </contour>
  </outline>
</glyph>
<glyph name="asciitilde" format="1">
  <advance width="450"/>
  <unicode hex="007E"/>
  <outline>
    <contour>
      <point x="406" y="430" type="line"/>
      <point x="385" y="363"/>
      <point x="354" y="332"/>
      <point x="299" y="332" type="curve" smooth="yes"/>
      <point x="249" y="332"/>
      <point x="177" y="358"/>
      <point x="134" y="358" type="curve" smooth="yes"/>
      <point x="94" y="358"/>
      <point x="74" y="346"/>
      <point x="53" y="314" type="curve"/>
      <point x="44" y="319" type="line"/>
      <point x="65" y="386"/>
      <point x="96" y="417"/>
      <point x="151" y="417" type="curve" smooth="yes"/>
      <point x="201" y="417"/>
      <point x="273" y="391"/>
      <point x="316" y="391" type="curve" smooth="yes"/>
      <point x="356" y="391"/>
      <point x="376" y="403"/>
      <point x="397" y="435" type="curve"/>
    </contour>
  </outline>
</glyph>
<glyph name="exclamdown" format="1">
  <advance width="300"/>
  <unicode hex="00A1"/>
  <outline>
    <contour>
      <point x="94" y="649" type="curve" smooth="yes"/>
      <point x="94" y="680"/>
      <point x="119" y="705"/>
      <point x="150" y="705" type="curve" smooth="yes"/>
      <point x="181" y="705"/>
      <point x="206" y="680"/>
      <point x="206" y="649" type="curve" smooth="yes"/>
      <point x="206" y="618"/>
      <point x="181" y="593"/>
      <point x="150" y="593" type="curve" smooth="yes"/>
      <point x="119" y="593"/>
      <point x="94" y="618"/>
    </contour>
    <contour>
      <point x="107" y="-1" type="curve"/>
      <point x="108" y="16"/>
      <point x="109" y="36"/>
      <point x="109" y="66" type="curve" smooth="yes"/>
      <point x="109" y="82" type="line" smooth="yes"/>
      <point x="109" y="192"/>
      <point x="131" y="438"/>
      <point x="142" y="535" type="curve"/>
      <point x="158" y="535" type="line"/>
      <point x="168" y="440"/>
      <point x="191" y="181"/>
      <point x="191" y="95" type="curve" smooth="yes"/>
      <point x="191" y="82" type="line" smooth="yes"/>
      <point x="191" y="47"/>
      <point x="193" y="13"/>
      <point x="194" y="0" type="curve"/>
      <point x="160" y="0"/>
      <point x="135" y="0"/>
    </contour>
  </outline>
</glyph>
<glyph name="cent" format="1">
  <advance width="495"/>
  <unicode hex="00A2"/>
  <outline>
    <contour>
      <point x="441" y="250" type="line"/>
      <point x="438" y="229"/>
      <point x="436" y="200"/>
      <point x="436" y="180" type="curve"/>
      <point x="388" y="151"/>
      <point x="335" y="138"/>
      <point x="274" y="138" type="curve" smooth="yes"/>
      <point x="265" y="138"/>
      <point x="255" y="138"/>
      <point x="246" y="139" type="curve"/>
      <point x="218" y="-4" type="line"/>
      <point x="180" y="-4" type="line"/>
      <point x="209" y="145" type="line"/>
      <point x="122" y="167"/>
      <point x="49" y="233"/>
      <point x="49" y="347" type="curve" smooth="yes"/>
      <point x="49" y="485"/>
      <point x="160" y="566"/>
      <point x="283" y="566" type="curve" smooth="yes"/>
      <point x="286" y="566"/>
      <point x="288" y="566"/>
      <point x="291" y="566" type="curve"/>
      <point x="318" y="704" type="line"/>
      <point x="356" y="704" type="line"/>
      <point x="328" y="563" type="line"/>
      <point x="371" y="558"/>
      <point x="402" y="546"/>
      <point x="430" y="531" type="curve"/>
      <point x="430" y="512"/>
      <point x="433" y="482"/>
      <point x="436" y="460" type="curve"/>
      <point x="423" y="456" type="line"/>
      <point x="398" y="492"/>
      <point x="365" y="516"/>
      <point x="321" y="525" type="curve"/>
      <point x="253" y="177" type="line"/>
      <point x="263" y="175"/>
      <point x="274" y="174"/>
      <point x="285" y="174" type="curve" smooth="yes"/>
      <point x="337" y="174"/>
      <point x="394" y="200"/>
      <point x="428" y="257" type="curve"/>
    </contour>
    <contour>
      <point x="284" y="530" type="line"/>
      <point x="282" y="530"/>
      <point x="281" y="530"/>
      <point x="279" y="530" type="curve" smooth="yes"/>
      <point x="189" y="530"/>
      <point x="124" y="461"/>
      <point x="124" y="351" type="curve" smooth="yes"/>
      <point x="124" y="269"/>
      <point x="164" y="213"/>
      <point x="218" y="189" type="curve"/>
    </contour>
  </outline>
</glyph>
<glyph name="sterling" format="1">
  <advance width="635"/>
  <unicode hex="00A3"/>
  <outline>
    <contour>
      <point x="608" y="123" type="line"/>
      <point x="580" y="89"/>
      <point x="545" y="24"/>
      <point x="533" y="-1" type="curve"/>
      <point x="431" y="0"/>
      <point x="403" y="0"/>
      <point x="301" y="0" type="curve" smooth="yes"/>
      <point x="221" y="0"/>
      <point x="122" y="0"/>
      <point x="46" y="-1" type="curve"/>
      <point x="44" y="6" type="line"/>
      <point x="162" y="118"/>
      <point x="210" y="174"/>
      <point x="210" y="237" type="curve" smooth="yes"/>
      <point x="210" y="272"/>
      <point x="196" y="304"/>
      <point x="179" y="337" type="curve"/>
      <point x="40" y="337" type="line"/>
      <point x="40" y="376" type="line"/>
      <point x="158" y="376" type="line"/>
      <point x="137" y="415"/>
      <point x="117" y="457"/>
      <point x="117" y="506" type="curve" smooth="yes"/>
      <point x="117" y="631"/>
      <point x="218" y="706"/>
      <point x="363" y="706" type="curve" smooth="yes"/>
      <point x="445" y="706"/>
      <point x="516" y="684"/>
      <point x="571" y="645" type="curve"/>
      <point x="571" y="618"/>
      <point x="575" y="571"/>
      <point x="579" y="545" type="curve"/>
      <point x="567" y="540" type="line"/>
      <point x="511" y="622"/>
      <point x="446" y="661"/>
      <point x="355" y="661" type="curve" smooth="yes"/>
      <point x="260" y="661"/>
      <point x="208" y="603"/>
      <point x="208" y="524" type="curve" smooth="yes"/>
      <point x="208" y="469"/>
      <point x="229" y="422"/>
      <point x="247" y="376" type="curve"/>
      <point x="510" y="376" type="line"/>
      <point x="510" y="337" type="line"/>
      <point x="262" y="337" type="line"/>
      <point x="270" y="314"/>
      <point x="276" y="291"/>
      <point x="276" y="267" type="curve" smooth="yes"/>
      <point x="276" y="195"/>
      <point x="243" y="156"/>
      <point x="157" y="67" type="curve"/>
      <point x="426" y="67" type="line" smooth="yes"/>
      <point x="524" y="67"/>
      <point x="552" y="86"/>
      <point x="598" y="131" type="curve"/>
    </contour>
  </outline>
</glyph>
<glyph name="yen" format="1">
  <advance width="690"/>
  <unicode hex="00A5"/>
  <outline>
    <contour>
      <point x="696" y="692" type="line"/>
      <point x="669" y="682"/>
      <point x="646" y="662"/>
      <point x="622" y="627" type="curve" smooth="yes"/>
      <point x="459" y="389" type="line"/>
      <point x="610" y="389" type="line"/>
      <point x="610" y="350" type="line"/>
      <point x="433" y="350" type="line"/>
      <point x="381" y="274" type="line"/>
      <point x="381" y="236" type="line"/>
      <point x="600" y="236" type="line"/>
      <point x="600" y="197" type="line"/>
      <point x="381" y="197" type="line"/>
      <point x="381" y="63" type="line" smooth="yes"/>
      <point x="381" y="36"/>
      <point x="394" y="23"/>
      <point x="423" y="11" type="curve"/>
      <point x="421" y="-1" type="line"/>
      <point x="391" y="1"/>
      <point x="364" y="1"/>
      <point x="331" y="1" type="curve" smooth="yes"/>
      <point x="304" y="1"/>
      <point x="285" y="0"/>
      <point x="256" y="-1" type="curve"/>
      <point x="254" y="10" type="line"/>
      <point x="283" y="19"/>
      <point x="299" y="32"/>
      <point x="299" y="60" type="curve" smooth="yes"/>
      <point x="299" y="197" type="line"/>
      <point x="90" y="197" type="line"/>
      <point x="90" y="236" type="line"/>
      <point x="299" y="236" type="line"/>
      <point x="299" y="264" type="line"/>
      <point x="244" y="350" type="line"/>
      <point x="80" y="350" type="line"/>
      <point x="80" y="389" type="line"/>
      <point x="220" y="389" type="line"/>
      <point x="74" y="619" type="line" smooth="yes"/>
      <point x="50" y="656"/>
      <point x="30" y="680"/>
      <point x="3" y="692" type="curve"/>
      <point x="5" y="701" type="line"/>
      <point x="29" y="700"/>
      <point x="47" y="699"/>
      <point x="70" y="699" type="curve" smooth="yes"/>
      <point x="94" y="699"/>
      <point x="137" y="699"/>
      <point x="164" y="701" type="curve"/>
      <point x="167" y="693" type="line"/>
      <point x="154" y="688"/>
      <point x="147" y="679"/>
      <point x="147" y="669" type="curve" smooth="yes"/>
      <point x="147" y="660"/>
      <point x="153" y="642"/>
      <point x="176" y="605" type="curve" smooth="yes"/>
      <point x="355" y="317" type="line"/>
      <point x="546" y="609" type="line" smooth="yes"/>
      <point x="570" y="645"/>
      <point x="576" y="660"/>
      <point x="576" y="672" type="curve" smooth="yes"/>
      <point x="576" y="681"/>
      <point x="569" y="687"/>
      <point x="557" y="692" type="curve"/>
      <point x="561" y="701" type="line"/>
      <point x="581" y="700"/>
      <point x="613" y="699"/>
      <point x="629" y="699" type="curve" smooth="yes"/>
      <point x="649" y="699"/>
      <point x="674" y="699"/>
      <point x="694" y="701" type="curve"/>
    </contour>
  </outline>
</glyph>
<glyph name="section" format="1">
  <advance width="602"/>
  <unicode hex="00A7"/>
  <outline>
    <contour>
      <point x="526" y="652" type="curve"/>
      <point x="519" y="567" type="line"/>
      <point x="508" y="563" type="line"/>
      <point x="467" y="630"/>
      <point x="387" y="669"/>
      <point x="294" y="669" type="curve" smooth="yes"/>
      <point x="211" y="669"/>
      <point x="159" y="637"/>
      <point x="159" y="587" type="curve" smooth="yes"/>
      <point x="159" y="544"/>
      <point x="185" y="522"/>
      <point x="320" y="490" type="curve" smooth="yes"/>
      <point x="433" y="463"/>
      <point x="488" y="430"/>
      <point x="488" y="370" type="curve" smooth="yes"/>
      <point x="488" y="318"/>
      <point x="455" y="281"/>
      <point x="396" y="256" type="curve"/>
      <point x="495" y="224"/>
      <point x="523" y="186"/>
      <point x="523" y="128" type="curve" smooth="yes"/>
      <point x="523" y="49"/>
      <point x="427" y="-6"/>
      <point x="304" y="-6" type="curve" smooth="yes"/>
      <point x="206" y="-6"/>
      <point x="132" y="16"/>
      <point x="66" y="48" type="curve"/>
      <point x="73" y="133" type="line"/>
      <point x="84" y="137" type="line"/>
      <point x="125" y="70"/>
      <point x="209" y="31"/>
      <point x="308" y="31" type="curve" smooth="yes"/>
      <point x="397" y="31"/>
      <point x="453" y="63"/>
      <point x="453" y="113" type="curve" smooth="yes"/>
      <point x="453" y="156"/>
      <point x="418" y="179"/>
      <point x="287" y="210" type="curve" smooth="yes"/>
      <point x="169" y="238"/>
      <point x="114" y="270"/>
      <point x="114" y="330" type="curve" smooth="yes"/>
      <point x="114" y="383"/>
      <point x="148" y="420"/>
      <point x="208" y="445" type="curve"/>
      <point x="116" y="478"/>
      <point x="89" y="515"/>
      <point x="89" y="572" type="curve" smooth="yes"/>
      <point x="89" y="651"/>
      <point x="176" y="706"/>
      <point x="298" y="706" type="curve" smooth="yes"/>
      <point x="395" y="706"/>
      <point x="460" y="684"/>
    </contour>
    <contour>
      <point x="428" y="341" type="curve" smooth="yes"/>
      <point x="428" y="376"/>
      <point x="392" y="399"/>
      <point x="300" y="420" type="curve" smooth="yes"/>
      <point x="280" y="425"/>
      <point x="261" y="429"/>
      <point x="244" y="434" type="curve"/>
      <point x="197" y="415"/>
      <point x="174" y="387"/>
      <point x="174" y="359" type="curve" smooth="yes"/>
      <point x="174" y="324"/>
      <point x="208" y="302"/>
      <point x="307" y="280" type="curve" smooth="yes"/>
      <point x="326" y="276"/>
      <point x="344" y="271"/>
      <point x="360" y="267" type="curve"/>
      <point x="406" y="286"/>
      <point x="428" y="313"/>
    </contour>
  </outline>
</glyph>
<glyph name="dieresis" format="1">
  <advance width="500"/>
  <unicode hex="00A8"/>
  <outline>
    <contour>
      <point x="387" y="799" type="curve" smooth="yes"/>
      <point x="387" y="772"/>
      <point x="365" y="750"/>
      <point x="338" y="750" type="curve" smooth="yes"/>
      <point x="311" y="750"/>
      <point x="289" y="772"/>
      <point x="289" y="799" type="curve" smooth="yes"/>
      <point x="289" y="826"/>
      <point x="311" y="848"/>
      <point x="338" y="848" type="curve" smooth="yes"/>
      <point x="365" y="848"/>
      <point x="387" y="826"/>
    </contour>
    <contour>
      <point x="211" y="799" type="curve" smooth="yes"/>
      <point x="211" y="772"/>
      <point x="189" y="750"/>
      <point x="162" y="750" type="curve" smooth="yes"/>
      <point x="135" y="750"/>
      <point x="113" y="772"/>
      <point x="113" y="799" type="curve" smooth="yes"/>
      <point x="113" y="826"/>
      <point x="135" y="848"/>
      <point x="162" y="848" type="curve" smooth="yes"/>
      <point x="189" y="848"/>
      <point x="211" y="826"/>
    </contour>
  </outline>
</glyph>
<glyph name="copyright" format="1">
  <advance width="818"/>
  <unicode hex="00A9"/>
  <outline>
    <contour>
      <point x="769" y="350" type="curve" smooth="yes"/>
      <point x="769" y="147"/>
      <point x="612" y="-10"/>
      <point x="409" y="-10" type="curve" smooth="yes"/>
      <point x="206" y="-10"/>
      <point x="49" y="147"/>
      <point x="49" y="350" type="curve" smooth="yes"/>
      <point x="49" y="553"/>
      <point x="206" y="710"/>
      <point x="409" y="710" type="curve" smooth="yes"/>
      <point x="612" y="710"/>
      <point x="769" y="553"/>
    </contour>
    <contour>
      <point x="736" y="350" type="curve" smooth="yes"/>
      <point x="736" y="535"/>
      <point x="596" y="681"/>
      <point x="409" y="681" type="curve" smooth="yes"/>
      <point x="222" y="681"/>
      <point x="82" y="535"/>
      <point x="82" y="350" type="curve" smooth="yes"/>
      <point x="82" y="165"/>
      <point x="222" y="19"/>
      <point x="409" y="19" type="curve" smooth="yes"/>
      <point x="596" y="19"/>
      <point x="736" y="165"/>
    </contour>
    <contour>
      <point x="560" y="252" type="line"/>
      <point x="557" y="231"/>
      <point x="555" y="207"/>
      <point x="555" y="187" type="curve"/>
      <point x="515" y="164"/>
      <point x="470" y="150"/>
      <point x="413" y="150" type="curve" smooth="yes"/>
      <point x="309" y="150"/>
      <point x="218" y="218"/>
      <point x="218" y="349" type="curve" smooth="yes"/>
      <point x="218" y="474"/>
      <point x="312" y="558"/>
      <point x="422" y="558" type="curve" smooth="yes"/>
      <point x="474" y="558"/>
      <point x="516" y="545"/>
      <point x="549" y="523" type="curve"/>
      <point x="549" y="504"/>
      <point x="552" y="479"/>
      <point x="555" y="457" type="curve"/>
      <point x="542" y="453" type="line"/>
      <point x="512" y="502"/>
      <point x="467" y="524"/>
      <point x="418" y="524" type="curve" smooth="yes"/>
      <point x="341" y="524"/>
      <point x="288" y="455"/>
      <point x="288" y="353" type="curve" smooth="yes"/>
      <point x="288" y="247"/>
      <point x="347" y="184"/>
      <point x="424" y="184" type="curve" smooth="yes"/>
      <point x="472" y="184"/>
      <point x="516" y="206"/>
      <point x="547" y="259" type="curve"/>
    </contour>
  </outline>
</glyph>
<glyph name="ordfeminine" format="1">
  <advance width="400"/>
  <unicode hex="00AA"/>
  <outline>
    <contour>
      <point x="342" y="444" type="curve"/>
      <point x="341" y="435" type="line"/>
      <point x="326" y="436"/>
      <point x="317" y="436"/>
      <point x="304" y="436" type="curve" smooth="yes"/>
      <point x="292" y="436"/>
      <point x="277" y="436"/>
      <point x="262" y="435" type="curve"/>
      <point x="259" y="444" type="line"/>
      <point x="270" y="447"/>
      <point x="273" y="450"/>
      <point x="273" y="455" type="curve" smooth="yes"/>
      <point x="273" y="461"/>
      <point x="271" y="467"/>
      <point x="267" y="477" type="curve" smooth="yes"/>
      <point x="241" y="540" type="line"/>
      <point x="151" y="540" type="line"/>
      <point x="124" y="482" type="line" smooth="yes"/>
      <point x="120" y="473"/>
      <point x="117" y="464"/>
      <point x="117" y="458" type="curve" smooth="yes"/>
      <point x="117" y="449"/>
      <point x="121" y="447"/>
      <point x="132" y="443" type="curve"/>
      <point x="130" y="435" type="line"/>
      <point x="114" y="436"/>
      <point x="102" y="436"/>
      <point x="91" y="436" type="curve" smooth="yes"/>
      <point x="79" y="436"/>
      <point x="72" y="436"/>
      <point x="58" y="435" type="curve"/>
      <point x="57" y="444" type="line"/>
      <point x="72" y="448"/>
      <point x="82" y="456"/>
      <point x="90" y="473" type="curve" smooth="yes"/>
      <point x="186" y="670" type="line" smooth="yes"/>
      <point x="193" y="684"/>
      <point x="196" y="694"/>
      <point x="196" y="707" type="curve"/>
      <point x="209" y="707" type="line"/>
      <point x="312" y="472" type="line" smooth="yes"/>
      <point x="319" y="457"/>
      <point x="326" y="448"/>
    </contour>
    <contour>
      <point x="347" y="347" type="line"/>
      <point x="52" y="347" type="line"/>
      <point x="52" y="375" type="line"/>
      <point x="347" y="375" type="line"/>
    </contour>
    <contour>
      <point x="230" y="565" type="line"/>
      <point x="199" y="640" type="line"/>
      <point x="163" y="565" type="line"/>
    </contour>
  </outline>
</glyph>
<glyph name="guillemotleft" format="1">
  <advance width="440"/>
  <unicode hex="00AB"/>
  <outline>
    <contour>
      <point x="386" y="203" type="curve"/>
      <point x="371" y="198" type="line"/>
      <point x="338" y="265"/>
      <point x="285" y="310"/>
      <point x="239" y="324" type="curve"/>
      <point x="239" y="386" type="line"/>
      <point x="285" y="400"/>
      <point x="338" y="445"/>
      <point x="371" y="512" type="curve"/>
      <point x="386" y="507" type="line"/>
      <point x="370" y="448"/>
      <point x="344" y="395"/>
      <point x="316" y="355" type="curve"/>
      <point x="344" y="315"/>
      <point x="370" y="262"/>
    </contour>
    <contour>
      <point x="196" y="203" type="curve"/>
      <point x="181" y="198" type="line"/>
      <point x="148" y="265"/>
      <point x="95" y="310"/>
      <point x="49" y="324" type="curve"/>
      <point x="49" y="386" type="line"/>
      <point x="95" y="400"/>
      <point x="148" y="445"/>
      <point x="181" y="512" type="curve"/>
      <point x="196" y="507" type="line"/>
      <point x="180" y="448"/>
      <point x="154" y="395"/>
      <point x="126" y="355" type="curve"/>
      <point x="154" y="315"/>
      <point x="180" y="262"/>
    </contour>
  </outline>
</glyph>
<glyph name="degree" format="1">
  <advance width="380"/>
  <unicode hex="00B0"/>
  <outline>
    <contour>
      <point x="325" y="572" type="curve" smooth="yes"/>
      <point x="325" y="498"/>
      <point x="264" y="437"/>
      <point x="190" y="437" type="curve" smooth="yes"/>
      <point x="116" y="437"/>
      <point x="55" y="498"/>
      <point x="55" y="572" type="curve" smooth="yes"/>
      <point x="55" y="646"/>
      <point x="116" y="707"/>
      <point x="190" y="707" type="curve" smooth="yes"/>
      <point x="264" y="707"/>
      <point x="325" y="646"/>
    </contour>
    <contour>
      <point x="283" y="572" type="curve" smooth="yes"/>
      <point x="283" y="630"/>
      <point x="244" y="673"/>
      <point x="190" y="673" type="curve" smooth="yes"/>
      <point x="136" y="673"/>
      <point x="97" y="630"/>
      <point x="97" y="572" type="curve" smooth="yes"/>
      <point x="97" y="514"/>
      <point x="136" y="471"/>
      <point x="190" y="471" type="curve" smooth="yes"/>
      <point x="244" y="471"/>
      <point x="283" y="514"/>
    </contour>
  </outline>
</glyph>
<glyph name="acute" format="1">
  <advance width="500"/>
  <unicode hex="00B4"/>
  <outline>
    <contour>
      <point x="356" y="832" type="line"/>
      <point x="210" y="742" type="line"/>
      <point x="203" y="748" type="line"/>
      <point x="226" y="779"/>
      <point x="233" y="805"/>
      <point x="235" y="832" type="curve"/>
      <point x="243" y="840" type="line"/>
      <point x="356" y="840" type="line"/>
    </contour>
  </outline>
</glyph>
<glyph name="paragraph" format="1">
  <advance width="570"/>
  <unicode hex="00B6"/>
  <outline>
    <contour>
      <point x="359" y="146" type="line"/>
      <point x="345" y="146" type="line" smooth="yes"/>
      <point x="189" y="146"/>
      <point x="47" y="194"/>
      <point x="47" y="359" type="curve" smooth="yes"/>
      <point x="47" y="538"/>
      <point x="206" y="597"/>
      <point x="357" y="597" type="curve" smooth="yes"/>
      <point x="359" y="597" type="line"/>
    </contour>
    <contour>
      <point x="496" y="9" type="curve"/>
      <point x="491" y="-1" type="line"/>
      <point x="455" y="1"/>
      <point x="450" y="1"/>
      <point x="411" y="1" type="curve"/>
      <point x="411" y="700" type="line"/>
      <point x="446" y="700"/>
      <point x="456" y="700"/>
      <point x="493" y="701" type="curve"/>
      <point x="496" y="691" type="line"/>
      <point x="471" y="678"/>
      <point x="464" y="662"/>
      <point x="464" y="620" type="curve" smooth="yes"/>
      <point x="464" y="70" type="line" smooth="yes"/>
      <point x="464" y="40"/>
      <point x="475" y="19"/>
    </contour>
  </outline>
</glyph>
<glyph name="periodcentered" format="1">
  <advance width="250"/>
  <unicode hex="00B7"/>
  <outline>
    <contour>
      <point x="181" y="375" type="curve" smooth="yes"/>
      <point x="181" y="344"/>
      <point x="156" y="319"/>
      <point x="125" y="319" type="curve" smooth="yes"/>
      <point x="94" y="319"/>
      <point x="69" y="344"/>
      <point x="69" y="375" type="curve" smooth="yes"/>
      <point x="69" y="406"/>
      <point x="94" y="431"/>
      <point x="125" y="431" type="curve" smooth="yes"/>
      <point x="156" y="431"/>
      <point x="181" y="406"/>
    </contour>
  </outline>
</glyph>
<glyph name="cedilla" format="1">
  <advance width="500"/>
  <unicode hex="00B8"/>
  <outline>
    <contour>
      <point x="297" y="4" type="line"/>
      <point x="263" y="-32" type="line"/>
      <point x="284" y="-47"/>
      <point x="293" y="-62"/>
      <point x="293" y="-87" type="curve" smooth="yes"/>
      <point x="293" y="-139"/>
      <point x="241" y="-175"/>
      <point x="173" y="-188" type="curve"/>
      <point x="167" y="-169" type="line"/>
      <point x="215" y="-158"/>
      <point x="237" y="-136"/>
      <point x="237" y="-113" type="curve" smooth="yes"/>
      <point x="237" y="-90"/>
      <point x="222" y="-80"/>
      <point x="198" y="-74" type="curve"/>
      <point x="198" y="-64" type="line"/>
      <point x="282" y="17" type="line"/>
    </contour>
  </outline>
</glyph>
<glyph name="ordmasculine" format="1">
  <advance width="380"/>
  <unicode hex="00BA"/>
  <outline>
    <contour>
      <point x="327" y="575" type="curve" smooth="yes"/>
      <point x="327" y="500"/>
      <point x="266" y="434"/>
      <point x="192" y="434" type="curve" smooth="yes"/>
      <point x="113" y="434"/>
      <point x="53" y="488"/>
      <point x="53" y="565" type="curve" smooth="yes"/>
      <point x="53" y="644"/>
      <point x="115" y="704"/>
      <point x="194" y="704" type="curve" smooth="yes"/>
      <point x="269" y="704"/>
      <point x="327" y="650"/>
    </contour>
    <contour>
      <point x="322" y="347" type="line"/>
      <point x="58" y="347" type="line"/>
      <point x="58" y="375" type="line"/>
      <point x="322" y="375" type="line"/>
    </contour>
    <contour>
      <point x="279" y="574" type="curve" smooth="yes"/>
      <point x="279" y="632"/>
      <point x="246" y="677"/>
      <point x="189" y="677" type="curve" smooth="yes"/>
      <point x="132" y="677"/>
      <point x="101" y="630"/>
      <point x="101" y="568" type="curve" smooth="yes"/>
      <point x="101" y="504"/>
      <point x="136" y="461"/>
      <point x="192" y="461" type="curve" smooth="yes"/>
      <point x="249" y="461"/>
      <point x="279" y="515"/>
    </contour>
  </outline>
</glyph>
<glyph name="guillemotright" format="1">
  <advance width="440"/>
  <unicode hex="00BB"/>
  <outline>
    <contour>
      <point x="391" y="324" type="line"/>
      <point x="345" y="310"/>
      <point x="292" y="265"/>
      <point x="259" y="198" type="curve"/>
      <point x="244" y="203" type="line"/>
      <point x="260" y="262"/>
      <point x="286" y="315"/>
      <point x="314" y="355" type="curve"/>
      <point x="286" y="395"/>
      <point x="260" y="448"/>
      <point x="244" y="507" type="curve"/>
      <point x="259" y="512" type="line"/>
      <point x="292" y="445"/>
      <point x="345" y="400"/>
      <point x="391" y="386" type="curve"/>
    </contour>
    <contour>
      <point x="201" y="324" type="line"/>
      <point x="155" y="310"/>
      <point x="102" y="265"/>
      <point x="69" y="198" type="curve"/>
      <point x="54" y="203" type="line"/>
      <point x="70" y="262"/>
      <point x="96" y="315"/>
      <point x="124" y="355" type="curve"/>
      <point x="96" y="395"/>
      <point x="70" y="448"/>
      <point x="54" y="507" type="curve"/>
      <point x="69" y="512" type="line"/>
      <point x="102" y="445"/>
      <point x="155" y="400"/>
      <point x="201" y="386" type="curve"/>
    </contour>
  </outline>
</glyph>
<glyph name="questiondown" format="1">
  <advance width="535"/>
  <unicode hex="00BF"/>
  <outline>
    <contour>
      <point x="246" y="649" type="curve" smooth="yes"/>
      <point x="246" y="680"/>
      <point x="271" y="705"/>
      <point x="302" y="705" type="curve" smooth="yes"/>
      <point x="333" y="705"/>
      <point x="358" y="680"/>
      <point x="358" y="649" type="curve" smooth="yes"/>
      <point x="358" y="618"/>
      <point x="333" y="593"/>
      <point x="302" y="593" type="curve" smooth="yes"/>
      <point x="271" y="593"/>
      <point x="246" y="618"/>
    </contour>
    <contour>
      <point x="50" y="165" type="curve" smooth="yes"/>
      <point x="50" y="253"/>
      <point x="101" y="299"/>
      <point x="185" y="351" type="curve" smooth="yes"/>
      <point x="280" y="410"/>
      <point x="297" y="440"/>
      <point x="289" y="535" type="curve"/>
      <point x="311" y="535" type="line"/>
      <point x="342" y="431"/>
      <point x="316" y="387"/>
      <point x="236" y="325" type="curve" smooth="yes"/>
      <point x="181" y="282"/>
      <point x="139" y="250"/>
      <point x="139" y="181" type="curve" smooth="yes"/>
      <point x="139" y="92"/>
      <point x="187" y="39"/>
      <point x="292" y="39" type="curve" smooth="yes"/>
      <point x="367" y="39"/>
      <point x="424" y="83"/>
      <point x="474" y="160" type="curve"/>
      <point x="486" y="155" type="line"/>
      <point x="482" y="129"/>
      <point x="478" y="82"/>
      <point x="478" y="55" type="curve"/>
      <point x="409" y="13"/>
      <point x="360" y="-6"/>
      <point x="276" y="-6" type="curve" smooth="yes"/>
      <point x="137" y="-6"/>
      <point x="50" y="54"/>
    </contour>
  </outline>
</glyph>
<glyph name="Adieresis" format="1">
  <advance width="780"/>
  <unicode hex="00C4"/>
  <outline>
    <contour>
      <point x="769" y="9" type="curve"/>
      <point x="767" y="-1" type="line"/>
      <point x="738" y="2"/>
      <point x="713" y="1"/>
      <point x="676" y="1" type="curve" smooth="yes"/>
      <point x="642" y="1"/>
      <point x="605" y="1"/>
      <point x="573" y="-1" type="curve"/>
      <point x="570" y="9" type="line"/>
      <point x="588" y="17"/>
      <point x="602" y="35"/>
      <point x="602" y="51" type="curve" smooth="yes"/>
      <point x="602" y="69"/>
      <point x="597" y="88"/>
      <point x="584" y="118" type="curve" smooth="yes"/>
      <point x="494" y="327" type="line"/>
      <point x="264" y="327" type="line"/>
      <point x="168" y="131" type="line" smooth="yes"/>
      <point x="153" y="100"/>
      <point x="147" y="80"/>
      <point x="147" y="59" type="curve" smooth="yes"/>
      <point x="147" y="32"/>
      <point x="160" y="23"/>
      <point x="186" y="9" type="curve"/>
      <point x="183" y="-1" type="line"/>
      <point x="149" y="0"/>
      <point x="121" y="1"/>
      <point x="87" y="1" type="curve" smooth="yes"/>
      <point x="57" y="1"/>
      <point x="40" y="1"/>
      <point x="11" y="-1" type="curve"/>
      <point x="9" y="11" type="line"/>
      <point x="44" y="23"/>
      <point x="69" y="46"/>
      <point x="95" y="98" type="curve" smooth="yes"/>
      <point x="359" y="625" type="line" smooth="yes"/>
      <point x="379" y="665"/>
      <point x="389" y="695"/>
      <point x="389" y="719" type="curve"/>
      <point x="406" y="719" type="line"/>
      <point x="685" y="92" type="line" smooth="yes"/>
      <point x="704" y="49"/>
      <point x="728" y="23"/>
    </contour>
    <contour>
      <point x="474" y="372" type="line"/>
      <point x="386" y="576" type="line"/>
      <point x="286" y="372" type="line"/>
    </contour>
    <component base="dieresis" xOffset="67" yOffset="-144"/>
  </outline>
</glyph>
<glyph name="Aring" format="1">
  <advance width="780"/>
  <unicode hex="00C5"/>
  <outline>
    <contour>
      <point x="769" y="9" type="curve"/>
      <point x="767" y="-1" type="line"/>
      <point x="738" y="2"/>
      <point x="713" y="1"/>
      <point x="676" y="1" type="curve" smooth="yes"/>
      <point x="642" y="1"/>
      <point x="605" y="1"/>
      <point x="573" y="-1" type="curve"/>
      <point x="570" y="9" type="line"/>
      <point x="588" y="17"/>
      <point x="602" y="35"/>
      <point x="602" y="51" type="curve" smooth="yes"/>
      <point x="602" y="69"/>
      <point x="597" y="88"/>
      <point x="584" y="118" type="curve" smooth="yes"/>
      <point x="494" y="327" type="line"/>
      <point x="264" y="327" type="line"/>
      <point x="168" y="131" type="line" smooth="yes"/>
      <point x="153" y="100"/>
      <point x="147" y="80"/>
      <point x="147" y="59" type="curve" smooth="yes"/>
      <point x="147" y="32"/>
      <point x="160" y="23"/>
      <point x="186" y="9" type="curve"/>
      <point x="183" y="-1" type="line"/>
      <point x="149" y="0"/>
      <point x="121" y="1"/>
      <point x="87" y="1" type="curve" smooth="yes"/>
      <point x="57" y="1"/>
      <point x="40" y="1"/>
      <point x="11" y="-1" type="curve"/>
      <point x="9" y="11" type="line"/>
      <point x="44" y="23"/>
      <point x="69" y="46"/>
      <point x="95" y="98" type="curve" smooth="yes"/>
      <point x="359" y="625" type="line" smooth="yes"/>
      <point x="372" y="650"/>
      <point x="379" y="668"/>
      <point x="383" y="683" type="curve"/>
      <point x="347" y="693"/>
      <point x="321" y="725"/>
      <point x="321" y="764" type="curve" smooth="yes"/>
      <point x="321" y="810"/>
      <point x="358" y="847"/>
      <point x="404" y="847" type="curve" smooth="yes"/>
      <point x="450" y="847"/>
      <point x="487" y="810"/>
      <point x="487" y="764" type="curve" smooth="yes"/>
      <point x="487" y="724"/>
      <point x="459" y="691"/>
      <point x="422" y="683" type="curve"/>
      <point x="685" y="92" type="line" smooth="yes"/>
      <point x="704" y="49"/>
      <point x="728" y="23"/>
    </contour>
    <contour>
      <point x="455" y="764" type="curve" smooth="yes"/>
      <point x="455" y="794"/>
      <point x="434" y="820"/>
      <point x="404" y="820" type="curve" smooth="yes"/>
      <point x="374" y="820"/>
      <point x="353" y="794"/>
      <point x="353" y="764" type="curve" smooth="yes"/>
      <point x="353" y="734"/>
      <point x="374" y="708"/>
      <point x="404" y="708" type="curve" smooth="yes"/>
      <point x="434" y="708"/>
      <point x="455" y="734"/>
    </contour>
    <contour>
      <point x="474" y="372" type="line"/>
      <point x="386" y="576" type="line"/>
      <point x="286" y="372" type="line"/>
    </contour>
  </outline>
</glyph>
<glyph name="Ccedilla" format="1">
  <advance width="695"/>
  <unicode hex="00C7"/>
  <outline>
    <contour>
      <point x="640" y="155" type="line"/>
      <point x="636" y="129"/>
      <point x="632" y="82"/>
      <point x="632" y="55" type="curve"/>
      <point x="575" y="22"/>
      <point x="503" y="-1"/>
      <point x="416" y="-5" type="curve"/>
      <point x="391" y="-32" type="line"/>
      <point x="412" y="-47"/>
      <point x="421" y="-62"/>
      <point x="421" y="-87" type="curve" smooth="yes"/>
      <point x="421" y="-139"/>
      <point x="369" y="-175"/>
      <point x="301" y="-188" type="curve"/>
      <point x="295" y="-169" type="line"/>
      <point x="343" y="-158"/>
      <point x="365" y="-136"/>
      <point x="365" y="-113" type="curve" smooth="yes"/>
      <point x="365" y="-90"/>
      <point x="350" y="-80"/>
      <point x="326" y="-74" type="curve"/>
      <point x="326" y="-64" type="line"/>
      <point x="386" y="-6" type="line"/>
      <point x="206" y="-5"/>
      <point x="49" y="113"/>
      <point x="49" y="340" type="curve" smooth="yes"/>
      <point x="49" y="560"/>
      <point x="217" y="706"/>
      <point x="405" y="706" type="curve" smooth="yes"/>
      <point x="503" y="706"/>
      <point x="566" y="683"/>
      <point x="622" y="649" type="curve"/>
      <point x="622" y="622"/>
      <point x="626" y="575"/>
      <point x="630" y="549" type="curve"/>
      <point x="618" y="544" type="line"/>
      <point x="557" y="624"/>
      <point x="494" y="661"/>
      <point x="398" y="661" type="curve" smooth="yes"/>
      <point x="246" y="661"/>
      <point x="138" y="543"/>
      <point x="138" y="349" type="curve" smooth="yes"/>
      <point x="138" y="144"/>
      <point x="257" y="39"/>
      <point x="409" y="39" type="curve" smooth="yes"/>
      <point x="498" y="39"/>
      <point x="570" y="76"/>
      <point x="628" y="160" type="curve"/>
    </contour>
  </outline>
</glyph>
<glyph name="Odieresis" format="1">
  <advance width="826"/>
  <unicode hex="00D6"/>
  <outline>
    <contour>
      <point x="804" y="655" type="curve" smooth="yes"/>
      <point x="804" y="628"/>
      <point x="782" y="606"/>
      <point x="755" y="606" type="curve" smooth="yes"/>
      <point x="728" y="606"/>
      <point x="706" y="628"/>
      <point x="706" y="655" type="curve" smooth="yes"/>
      <point x="706" y="682"/>
      <point x="728" y="704"/>
      <point x="755" y="704" type="curve" smooth="yes"/>
      <point x="782" y="704"/>
      <point x="804" y="682"/>
    </contour>
    <contour>
      <point x="130" y="655" type="curve" smooth="yes"/>
      <point x="130" y="628"/>
      <point x="108" y="606"/>
      <point x="81" y="606" type="curve" smooth="yes"/>
      <point x="54" y="606"/>
      <point x="32" y="628"/>
      <point x="32" y="655" type="curve" smooth="yes"/>
      <point x="32" y="682"/>
      <point x="54" y="704"/>
      <point x="81" y="704" type="curve" smooth="yes"/>
      <point x="108" y="704"/>
      <point x="130" y="682"/>
    </contour>
    <contour>
      <point x="777" y="367" type="curve" smooth="yes"/>
      <point x="777" y="168"/>
      <point x="616" y="-10"/>
      <point x="418" y="-10" type="curve" smooth="yes"/>
      <point x="207" y="-10"/>
      <point x="49" y="136"/>
      <point x="49" y="339" type="curve" smooth="yes"/>
      <point x="49" y="552"/>
      <point x="212" y="710"/>
      <point x="423" y="710" type="curve" smooth="yes"/>
      <point x="623" y="710"/>
      <point x="777" y="566"/>
    </contour>
    <contour>
      <point x="688" y="365" type="curve" smooth="yes"/>
      <point x="688" y="532"/>
      <point x="578" y="665"/>
      <point x="411" y="665" type="curve" smooth="yes"/>
      <point x="242" y="665"/>
      <point x="138" y="530"/>
      <point x="138" y="347" type="curve" smooth="yes"/>
      <point x="138" y="161"/>
      <point x="257" y="35"/>
      <point x="418" y="35" type="curve" smooth="yes"/>
      <point x="583" y="35"/>
      <point x="688" y="191"/>
    </contour>
  </outline>
</glyph>
<glyph name="Udieresis" format="1">
  <advance width="730"/>
  <unicode hex="00DC"/>
  <outline>
    <contour>
      <point x="502" y="656" type="curve" smooth="yes"/>
      <point x="502" y="630"/>
      <point x="480" y="608"/>
      <point x="454" y="608" type="curve" smooth="yes"/>
      <point x="428" y="608"/>
      <point x="406" y="630"/>
      <point x="406" y="656" type="curve" smooth="yes"/>
      <point x="406" y="682"/>
      <point x="428" y="704"/>
      <point x="454" y="704" type="curve" smooth="yes"/>
      <point x="480" y="704"/>
      <point x="502" y="682"/>
    </contour>
    <contour>
      <point x="352" y="656" type="curve" smooth="yes"/>
      <point x="352" y="630"/>
      <point x="330" y="608"/>
      <point x="304" y="608" type="curve" smooth="yes"/>
      <point x="278" y="608"/>
      <point x="256" y="630"/>
      <point x="256" y="656" type="curve" smooth="yes"/>
      <point x="256" y="682"/>
      <point x="278" y="704"/>
      <point x="304" y="704" type="curve" smooth="yes"/>
      <point x="330" y="704"/>
      <point x="352" y="682"/>
    </contour>
    <component base="U"/>
  </outline>
</glyph>
<glyph name="germandbls" format="1">
  <advance width="1265"/>
  <unicode hex="00DF"/>
  <outline>
    <contour>
      <point x="1215" y="222" type="curve" smooth="yes"/>
      <point x="1215" y="81"/>
      <point x="1083" y="-6"/>
      <point x="916" y="-6" type="curve" smooth="yes"/>
      <point x="813" y="-6"/>
      <point x="744" y="12"/>
      <point x="674" y="43" type="curve"/>
      <point x="668" y="161" type="line"/>
      <point x="680" y="164" type="line"/>
      <point x="716" y="87"/>
      <point x="806" y="39"/>
      <point x="927" y="39" type="curve" smooth="yes"/>
      <point x="1054" y="39"/>
      <point x="1139" y="102"/>
      <point x="1139" y="195" type="curve" smooth="yes"/>
      <point x="1139" y="269"/>
      <point x="1102" y="299"/>
      <point x="948" y="335" type="curve" smooth="yes"/>
      <point x="765" y="378"/>
      <point x="702" y="415"/>
      <point x="702" y="520" type="curve" smooth="yes"/>
      <point x="702" y="625"/>
      <point x="806" y="705"/>
      <point x="956" y="705" type="curve" smooth="yes"/>
      <point x="1043" y="705"/>
      <point x="1109" y="693"/>
      <point x="1170" y="671" type="curve"/>
      <point x="1160" y="586" type="line"/>
      <point x="1149" y="584" type="line"/>
      <point x="1110" y="629"/>
      <point x="1052" y="660"/>
      <point x="940" y="660" type="curve" smooth="yes"/>
      <point x="836" y="660"/>
      <point x="778" y="606"/>
      <point x="778" y="545" type="curve" smooth="yes"/>
      <point x="778" y="483"/>
      <point x="804" y="456"/>
      <point x="966" y="418" type="curve" smooth="yes"/>
      <point x="1138" y="378"/>
      <point x="1215" y="332"/>
    </contour>
    <contour>
      <point x="585" y="222" type="curve" smooth="yes"/>
      <point x="585" y="81"/>
      <point x="453" y="-6"/>
      <point x="286" y="-6" type="curve" smooth="yes"/>
      <point x="183" y="-6"/>
      <point x="114" y="12"/>
      <point x="44" y="43" type="curve"/>
      <point x="38" y="161" type="line"/>
      <point x="50" y="164" type="line"/>
      <point x="86" y="87"/>
      <point x="176" y="39"/>
      <point x="297" y="39" type="curve" smooth="yes"/>
      <point x="424" y="39"/>
      <point x="509" y="102"/>
      <point x="509" y="195" type="curve" smooth="yes"/>
      <point x="509" y="269"/>
      <point x="472" y="299"/>
      <point x="318" y="335" type="curve" smooth="yes"/>
      <point x="135" y="378"/>
      <point x="72" y="415"/>
      <point x="72" y="520" type="curve" smooth="yes"/>
      <point x="72" y="625"/>
      <point x="176" y="705"/>
      <point x="326" y="705" type="curve" smooth="yes"/>
      <point x="413" y="705"/>
      <point x="479" y="693"/>
      <point x="540" y="671" type="curve"/>
      <point x="530" y="586" type="line"/>
      <point x="519" y="584" type="line"/>
      <point x="480" y="629"/>
      <point x="422" y="660"/>
      <point x="310" y="660" type="curve" smooth="yes"/>
      <point x="206" y="660"/>
      <point x="148" y="606"/>
      <point x="148" y="545" type="curve" smooth="yes"/>
      <point x="148" y="483"/>
      <point x="174" y="456"/>
      <point x="336" y="418" type="curve" smooth="yes"/>
      <point x="508" y="378"/>
      <point x="585" y="332"/>
    </contour>
  </outline>
</glyph>
<glyph name="ae" format="1">
  <advance width="975"/>
  <unicode hex="00E6"/>
  <outline>
    <contour>
      <point x="960" y="101" type="line"/>
      <point x="935" y="70"/>
      <point x="910" y="27"/>
      <point x="898" y="-1" type="curve"/>
      <point x="815" y="1"/>
      <point x="767" y="1"/>
      <point x="684" y="1" type="curve" smooth="yes"/>
      <point x="583" y="1"/>
      <point x="535" y="1"/>
      <point x="435" y="-2" type="curve"/>
      <point x="431" y="6" type="line"/>
      <point x="454" y="20"/>
      <point x="463" y="41"/>
      <point x="463" y="78" type="curve" smooth="yes"/>
      <point x="463" y="360" type="line"/>
      <point x="298" y="360" type="line"/>
      <point x="174" y="139" type="line" smooth="yes"/>
      <point x="152" y="99"/>
      <point x="142" y="74"/>
      <point x="142" y="54" type="curve" smooth="yes"/>
      <point x="142" y="33"/>
      <point x="152" y="23"/>
      <point x="177" y="9" type="curve"/>
      <point x="174" y="-1" type="line"/>
      <point x="140" y="0"/>
      <point x="112" y="1"/>
      <point x="78" y="1" type="curve" smooth="yes"/>
      <point x="48" y="1"/>
      <point x="31" y="1"/>
      <point x="2" y="-1" type="curve"/>
      <point x="0" y="11" type="line"/>
      <point x="36" y="23"/>
      <point x="66" y="49"/>
      <point x="94" y="98" type="curve" smooth="yes"/>
      <point x="383" y="606" type="line" smooth="yes"/>
      <point x="393" y="624"/>
      <point x="398" y="638"/>
      <point x="398" y="651" type="curve" smooth="yes"/>
      <point x="398" y="673"/>
      <point x="384" y="685"/>
      <point x="367" y="693" type="curve"/>
      <point x="370" y="703" type="line"/>
      <point x="455" y="699"/>
      <point x="508" y="699"/>
      <point x="606" y="699" type="curve" smooth="yes"/>
      <point x="696" y="699"/>
      <point x="820" y="699"/>
      <point x="910" y="704" type="curve"/>
      <point x="900" y="687"/>
      <point x="886" y="657"/>
      <point x="879" y="636" type="curve"/>
      <point x="868" y="648"/>
      <point x="846" y="653"/>
      <point x="781" y="653" type="curve" smooth="yes"/>
      <point x="545" y="653" type="line"/>
      <point x="545" y="406" type="line"/>
      <point x="634" y="406" type="line" smooth="yes"/>
      <point x="707" y="406"/>
      <point x="748" y="408"/>
      <point x="771" y="421" type="curve"/>
      <point x="777" y="416" type="line"/>
      <point x="766" y="403"/>
      <point x="751" y="369"/>
      <point x="744" y="348" type="curve"/>
      <point x="726" y="358"/>
      <point x="688" y="360"/>
      <point x="634" y="360" type="curve" smooth="yes"/>
      <point x="545" y="360" type="line"/>
      <point x="545" y="47" type="line"/>
      <point x="743" y="47" type="line" smooth="yes"/>
      <point x="873" y="47"/>
      <point x="912" y="69"/>
      <point x="951" y="108" type="curve"/>
    </contour>
    <contour>
      <point x="463" y="405" type="line"/>
      <point x="463" y="656" type="line"/>
      <point x="323" y="405" type="line"/>
    </contour>
  </outline>
</glyph>
<glyph name="oslash" format="1">
  <advance width="826"/>
  <unicode hex="00F8"/>
  <outline>
    <contour>
      <point x="777" y="367" type="curve" smooth="yes"/>
      <point x="777" y="168"/>
      <point x="616" y="-10"/>
      <point x="418" y="-10" type="curve" smooth="yes"/>
      <point x="324" y="-10"/>
      <point x="240" y="19"/>
      <point x="176" y="69" type="curve"/>
      <point x="106" y="-5" type="line"/>
      <point x="49" y="-5" type="line"/>
      <point x="145" y="97" type="line"/>
      <point x="85" y="158"/>
      <point x="49" y="242"/>
      <point x="49" y="339" type="curve" smooth="yes"/>
      <point x="49" y="552"/>
      <point x="212" y="710"/>
      <point x="423" y="710" type="curve" smooth="yes"/>
      <point x="512" y="710"/>
      <point x="591" y="682"/>
      <point x="652" y="633" type="curve"/>
      <point x="720" y="705" type="line"/>
      <point x="777" y="705" type="line"/>
      <point x="682" y="605" type="line"/>
      <point x="741" y="546"/>
      <point x="777" y="463"/>
    </contour>
    <contour>
      <point x="607" y="585" type="line"/>
      <point x="559" y="635"/>
      <point x="492" y="666"/>
      <point x="411" y="666" type="curve" smooth="yes"/>
      <point x="241" y="666"/>
      <point x="137" y="531"/>
      <point x="137" y="347" type="curve" smooth="yes"/>
      <point x="137" y="269"/>
      <point x="158" y="201"/>
      <point x="194" y="149" type="curve"/>
    </contour>
    <contour>
      <point x="689" y="365" type="curve" smooth="yes"/>
      <point x="689" y="436"/>
      <point x="669" y="501"/>
      <point x="633" y="553" type="curve"/>
      <point x="220" y="116" type="line"/>
      <point x="270" y="64"/>
      <point x="339" y="34"/>
      <point x="418" y="34" type="curve" smooth="yes"/>
      <point x="584" y="34"/>
      <point x="689" y="190"/>
    </contour>
  </outline>
</glyph>
<glyph name="thorn" format="1">
  <advance width="655"/>
  <unicode hex="00FE"/>
  <outline>
    <contour>
      <point x="615" y="394" type="curve" smooth="yes"/>
      <point x="615" y="247"/>
      <point x="466" y="195"/>
      <point x="304" y="195" type="curve" smooth="yes"/>
      <point x="271" y="195"/>
      <point x="225" y="195"/>
      <point x="188" y="195" type="curve"/>
      <point x="188" y="81" type="line" smooth="yes"/>
      <point x="188" y="38"/>
      <point x="199" y="21"/>
      <point x="226" y="11" type="curve"/>
      <point x="222" y="-1" type="line"/>
      <point x="195" y="1"/>
      <point x="176" y="1"/>
      <point x="149" y="1" type="curve" smooth="yes"/>
      <point x="126" y="1"/>
      <point x="102" y="2"/>
      <point x="79" y="-1" type="curve"/>
      <point x="74" y="9" type="line"/>
      <point x="95" y="19"/>
      <point x="106" y="40"/>
      <point x="106" y="70" type="curve" smooth="yes"/>
      <point x="106" y="630" type="line" smooth="yes"/>
      <point x="106" y="672"/>
      <point x="98" y="685"/>
      <point x="76" y="693" type="curve"/>
      <point x="79" y="701" type="line"/>
      <point x="96" y="699"/>
      <point x="123" y="699"/>
      <point x="146" y="699" type="curve" smooth="yes"/>
      <point x="173" y="699"/>
      <point x="196" y="699"/>
      <point x="219" y="701" type="curve"/>
      <point x="221" y="692" type="line"/>
      <point x="199" y="681"/>
      <point x="188" y="665"/>
      <point x="188" y="634" type="curve" smooth="yes"/>
      <point x="188" y="551" type="line"/>
      <point x="204" y="551"/>
      <point x="222" y="551"/>
      <point x="244" y="551" type="curve" smooth="yes"/>
      <point x="295" y="551"/>
      <point x="350" y="552"/>
      <point x="400" y="552" type="curve" smooth="yes"/>
      <point x="532" y="552"/>
      <point x="615" y="496"/>
    </contour>
    <contour>
      <point x="527" y="385" type="curve" smooth="yes"/>
      <point x="527" y="468"/>
      <point x="475" y="507"/>
      <point x="383" y="507" type="curve" smooth="yes"/>
      <point x="338" y="507"/>
      <point x="234" y="506"/>
      <point x="188" y="505" type="curve"/>
      <point x="188" y="241" type="line"/>
      <point x="227" y="239"/>
      <point x="271" y="240"/>
      <point x="309" y="240" type="curve" smooth="yes"/>
      <point x="449" y="240"/>
      <point x="527" y="287"/>
    </contour>
  </outline>
</glyph>
<glyph name="lslash" format="1">
  <advance width="622"/>
  <unicode hex="0142"/>
  <outline>
    <contour>
      <point x="610" y="105" type="line"/>
      <point x="582" y="71"/>
      <point x="556" y="24"/>
      <point x="544" y="-1" type="curve"/>
      <point x="442" y="0"/>
      <point x="384" y="0"/>
      <point x="282" y="0" type="curve" smooth="yes"/>
      <point x="202" y="0"/>
      <point x="153" y="0"/>
      <point x="77" y="-1" type="curve"/>
      <point x="75" y="6" type="line"/>
      <point x="92" y="17"/>
      <point x="106" y="43"/>
      <point x="106" y="72" type="curve" smooth="yes"/>
      <point x="106" y="315" type="line"/>
      <point x="42" y="292" type="line"/>
      <point x="42" y="340" type="line"/>
      <point x="106" y="363" type="line"/>
      <point x="106" y="627" type="line" smooth="yes"/>
      <point x="106" y="666"/>
      <point x="98" y="681"/>
      <point x="72" y="690" type="curve"/>
      <point x="77" y="701" type="line"/>
      <point x="95" y="699"/>
      <point x="117" y="699"/>
      <point x="142" y="699" type="curve" smooth="yes"/>
      <point x="167" y="699"/>
      <point x="200" y="699"/>
      <point x="218" y="701" type="curve"/>
      <point x="221" y="690" type="line"/>
      <point x="197" y="679"/>
      <point x="188" y="662"/>
      <point x="188" y="633" type="curve" smooth="yes"/>
      <point x="188" y="393" type="line"/>
      <point x="380" y="462" type="line"/>
      <point x="380" y="414" type="line"/>
      <point x="188" y="345" type="line"/>
      <point x="188" y="49" type="line"/>
      <point x="428" y="49" type="line" smooth="yes"/>
      <point x="526" y="49"/>
      <point x="554" y="68"/>
      <point x="600" y="113" type="curve"/>
    </contour>
  </outline>
</glyph>
<glyph name="OE" format="1">
  <advance width="905"/>
  <unicode hex="0152"/>
  <outline>
    <contour>
      <point x="890" y="101" type="line"/>
      <point x="865" y="70"/>
      <point x="840" y="27"/>
      <point x="828" y="-1" type="curve"/>
      <point x="745" y="1"/>
      <point x="697" y="1"/>
      <point x="614" y="1" type="curve" smooth="yes"/>
      <point x="495" y="1"/>
      <point x="470" y="-3"/>
      <point x="418" y="-3" type="curve" smooth="yes"/>
      <point x="207" y="-3"/>
      <point x="49" y="136"/>
      <point x="49" y="339" type="curve" smooth="yes"/>
      <point x="49" y="552"/>
      <point x="212" y="703"/>
      <point x="423" y="703" type="curve" smooth="yes"/>
      <point x="466" y="703"/>
      <point x="505" y="699"/>
      <point x="575" y="699" type="curve" smooth="yes"/>
      <point x="665" y="699"/>
      <point x="750" y="699"/>
      <point x="840" y="704" type="curve"/>
      <point x="830" y="687"/>
      <point x="816" y="657"/>
      <point x="809" y="636" type="curve"/>
      <point x="798" y="648"/>
      <point x="776" y="653"/>
      <point x="711" y="653" type="curve" smooth="yes"/>
      <point x="605" y="653" type="line"/>
      <point x="710" y="596"/>
      <point x="775" y="495"/>
      <point x="775" y="367" type="curve" smooth="yes"/>
      <point x="775" y="233"/>
      <point x="702" y="112"/>
      <point x="594" y="47" type="curve"/>
      <point x="673" y="47" type="line" smooth="yes"/>
      <point x="803" y="47"/>
      <point x="842" y="69"/>
      <point x="881" y="108" type="curve"/>
    </contour>
    <contour>
      <point x="686" y="421" type="line"/>
      <point x="666" y="547"/>
      <point x="579" y="640"/>
      <point x="453" y="657" type="curve"/>
      <point x="453" y="421" type="line"/>
    </contour>
    <contour>
      <point x="375" y="43" type="curve"/>
      <point x="375" y="658" type="line"/>
      <point x="226" y="641"/>
      <point x="136" y="518"/>
      <point x="136" y="347" type="curve" smooth="yes"/>
      <point x="136" y="177"/>
      <point x="235" y="62"/>
    </contour>
    <contour>
      <point x="690" y="365" type="curve" smooth="yes"/>
      <point x="690" y="368"/>
      <point x="690" y="372"/>
      <point x="690" y="375" type="curve"/>
      <point x="453" y="375" type="line"/>
      <point x="453" y="42" type="line"/>
      <point x="599" y="62"/>
      <point x="690" y="203"/>
    </contour>
  </outline>
</glyph>
<glyph name="florin" format="1">
  <advance width="460"/>
  <unicode hex="0192"/>
  <outline>
    <contour>
      <point x="442" y="590" type="curve"/>
      <point x="429" y="586" type="line"/>
      <point x="400" y="642"/>
      <point x="371" y="665"/>
      <point x="336" y="665" type="curve" smooth="yes"/>
      <point x="295" y="665"/>
      <point x="271" y="636"/>
      <point x="263" y="592" type="curve" smooth="yes"/>
      <point x="229" y="399" type="line"/>
      <point x="348" y="399" type="line"/>
      <point x="348" y="355" type="line"/>
      <point x="221" y="355" type="line"/>
      <point x="170" y="65" type="line" smooth="yes"/>
      <point x="149" y="-57"/>
      <point x="99" y="-106"/>
      <point x="-11" y="-165" type="curve"/>
      <point x="-31" y="-146"/>
      <point x="-64" y="-118"/>
      <point x="-84" y="-102" type="curve"/>
      <point x="-77" y="-89" type="line"/>
      <point x="-52" y="-100"/>
      <point x="-30" y="-107"/>
      <point x="-10" y="-107" type="curve" smooth="yes"/>
      <point x="36" y="-107"/>
      <point x="66" y="-69"/>
      <point x="78" y="1" type="curve" smooth="yes"/>
      <point x="140" y="355" type="line"/>
      <point x="64" y="355" type="line"/>
      <point x="64" y="399" type="line"/>
      <point x="148" y="399" type="line"/>
      <point x="177" y="563" type="line" smooth="yes"/>
      <point x="194" y="659"/>
      <point x="245" y="706"/>
      <point x="338" y="706" type="curve" smooth="yes"/>
      <point x="383" y="706"/>
      <point x="409" y="697"/>
      <point x="435" y="681" type="curve"/>
      <point x="435" y="654"/>
      <point x="438" y="615"/>
    </contour>
  </outline>
</glyph>
<glyph name="circumflex" format="1">
  <advance width="500"/>
  <unicode hex="02C6"/>
  <outline>
    <contour>
      <point x="347" y="750" type="curve"/>
      <point x="340" y="742" type="line"/>
      <point x="250" y="780" type="line"/>
      <point x="160" y="742" type="line"/>
      <point x="153" y="750" type="line"/>
      <point x="185" y="781"/>
      <point x="209" y="814"/>
      <point x="219" y="842" type="curve"/>
      <point x="281" y="842" type="line"/>
      <point x="291" y="814"/>
      <point x="315" y="781"/>
    </contour>
  </outline>
</glyph>
<glyph name="caron" format="1">
  <advance width="500"/>
  <unicode hex="02C7"/>
  <outline>
    <contour>
      <point x="347" y="838" type="line"/>
      <point x="315" y="807"/>
      <point x="291" y="774"/>
      <point x="281" y="746" type="curve"/>
      <point x="219" y="746" type="line"/>
      <point x="209" y="774"/>
      <point x="185" y="807"/>
      <point x="153" y="838" type="curve"/>
      <point x="160" y="846" type="line"/>
      <point x="250" y="808" type="line"/>
      <point x="340" y="846" type="line"/>
    </contour>
  </outline>
</glyph>
<glyph name="breve" format="1">
  <advance width="500"/>
  <unicode hex="02D8"/>
  <outline>
    <contour>
      <point x="352" y="847" type="line"/>
      <point x="336" y="784"/>
      <point x="303" y="746"/>
      <point x="250" y="746" type="curve" smooth="yes"/>
      <point x="197" y="746"/>
      <point x="164" y="784"/>
      <point x="148" y="847" type="curve"/>
      <point x="160" y="852" type="line"/>
      <point x="184" y="813"/>
      <point x="211" y="801"/>
      <point x="250" y="801" type="curve" smooth="yes"/>
      <point x="289" y="801"/>
      <point x="316" y="813"/>
      <point x="340" y="852" type="curve"/>
    </contour>
  </outline>
</glyph>
<glyph name="dotaccent" format="1">
  <advance width="500"/>
  <unicode hex="02D9"/>
  <outline>
    <contour>
      <point x="301" y="801" type="curve" smooth="yes"/>
      <point x="301" y="773"/>
      <point x="278" y="750"/>
      <point x="250" y="750" type="curve" smooth="yes"/>
      <point x="222" y="750"/>
      <point x="199" y="773"/>
      <point x="199" y="801" type="curve" smooth="yes"/>
      <point x="199" y="829"/>
      <point x="222" y="852"/>
      <point x="250" y="852" type="curve" smooth="yes"/>
      <point x="278" y="852"/>
      <point x="301" y="829"/>
    </contour>
  </outline>
</glyph>
<glyph name="ring" format="1">
  <advance width="500"/>
  <unicode hex="02DA"/>
  <outline>
    <contour>
      <point x="333" y="833" type="curve" smooth="yes"/>
      <point x="333" y="787"/>
      <point x="296" y="750"/>
      <point x="250" y="750" type="curve" smooth="yes"/>
      <point x="204" y="750"/>
      <point x="167" y="787"/>
      <point x="167" y="833" type="curve" smooth="yes"/>
      <point x="167" y="879"/>
      <point x="204" y="916"/>
      <point x="250" y="916" type="curve" smooth="yes"/>
      <point x="296" y="916"/>
      <point x="333" y="879"/>
    </contour>
    <contour>
      <point x="301" y="833" type="curve" smooth="yes"/>
      <point x="301" y="863"/>
      <point x="280" y="889"/>
      <point x="250" y="889" type="curve" smooth="yes"/>
      <point x="220" y="889"/>
      <point x="199" y="863"/>
      <point x="199" y="833" type="curve" smooth="yes"/>
      <point x="199" y="803"/>
      <point x="220" y="777"/>
      <point x="250" y="777" type="curve" smooth="yes"/>
      <point x="280" y="777"/>
      <point x="301" y="803"/>
    </contour>
  </outline>
</glyph>
<glyph name="ogonek" format="1">
  <advance width="500"/>
  <unicode hex="02DB"/>
  <outline>
    <contour>
      <point x="309" y="4" type="line"/>
      <point x="268" y="-32"/>
      <point x="245" y="-62"/>
      <point x="245" y="-101" type="curve" smooth="yes"/>
      <point x="245" y="-141"/>
      <point x="265" y="-159"/>
      <point x="306" y="-173" type="curve"/>
      <point x="301" y="-188" type="line"/>
      <point x="238" y="-188"/>
      <point x="183" y="-169"/>
      <point x="183" y="-117" type="curve" smooth="yes"/>
      <point x="183" y="-67"/>
      <point x="238" y="-16"/>
      <point x="301" y="16" type="curve"/>
    </contour>
  </outline>
</glyph>
<glyph name="tilde" format="1">
  <advance width="500"/>
  <unicode hex="02DC"/>
  <outline>
    <contour>
      <point x="381" y="848" type="line"/>
      <point x="362" y="787"/>
      <point x="333" y="760"/>
      <point x="294" y="760" type="curve" smooth="yes"/>
      <point x="253" y="760"/>
      <point x="217" y="776"/>
      <point x="189" y="776" type="curve" smooth="yes"/>
      <point x="162" y="776"/>
      <point x="146" y="769"/>
      <point x="128" y="742" type="curve"/>
      <point x="119" y="747" type="line"/>
      <point x="138" y="808"/>
      <point x="167" y="835"/>
      <point x="206" y="835" type="curve" smooth="yes"/>
      <point x="247" y="835"/>
      <point x="283" y="819"/>
      <point x="311" y="819" type="curve" smooth="yes"/>
      <point x="338" y="819"/>
      <point x="354" y="826"/>
      <point x="372" y="853" type="curve"/>
    </contour>
  </outline>
</glyph>
<glyph name="hungarumlaut" format="1">
  <advance width="500"/>
  <unicode hex="02DD"/>
  <outline>
    <contour>
      <point x="406" y="832" type="line"/>
      <point x="260" y="742" type="line"/>
      <point x="254" y="749" type="line"/>
      <point x="278" y="777"/>
      <point x="290" y="800"/>
      <point x="293" y="824" type="curve"/>
      <point x="160" y="742" type="line"/>
      <point x="154" y="749" type="line"/>
      <point x="181" y="780"/>
      <point x="192" y="805"/>
      <point x="194" y="832" type="curve"/>
      <point x="203" y="840" type="line"/>
      <point x="406" y="840" type="line"/>
    </contour>
  </outline>
</glyph>
<glyph name="endash" format="1">
  <advance width="500"/>
  <unicode hex="2013"/>
  <outline>
    <contour>
      <point x="460" y="401" type="line"/>
      <point x="437" y="340" type="line"/>
      <point x="416" y="346"/>
      <point x="387" y="348"/>
      <point x="347" y="348" type="curve" smooth="yes"/>
      <point x="40" y="348" type="line"/>
      <point x="60" y="406" type="line"/>
      <point x="90" y="402"/>
      <point x="143" y="401"/>
      <point x="215" y="401" type="curve" smooth="yes"/>
    </contour>
  </outline>
</glyph>
<glyph name="emdash" format="1">
  <advance width="1000"/>
  <unicode hex="2014"/>
  <outline>
    <contour>
      <point x="960" y="401" type="line"/>
      <point x="937" y="340" type="line"/>
      <point x="916" y="346"/>
      <point x="887" y="348"/>
      <point x="847" y="348" type="curve" smooth="yes"/>
      <point x="40" y="348" type="line"/>
      <point x="60" y="406" type="line"/>
      <point x="90" y="402"/>
      <point x="143" y="401"/>
      <point x="215" y="401" type="curve" smooth="yes"/>
    </contour>
  </outline>
</glyph>
<glyph name="quoteleft" format="1">
  <advance width="250"/>
  <unicode hex="2018"/>
  <unicode hex="02BB"/>
  <outline>
    <contour>
      <point x="193" y="695" type="line"/>
      <point x="151" y="652"/>
      <point x="134" y="622"/>
      <point x="134" y="589" type="curve" smooth="yes"/>
      <point x="134" y="559"/>
      <point x="144" y="538"/>
      <point x="179" y="505" type="curve"/>
      <point x="118" y="447" type="line"/>
      <point x="84" y="472"/>
      <point x="67" y="498"/>
      <point x="67" y="535" type="curve" smooth="yes"/>
      <point x="67" y="590"/>
      <point x="107" y="645"/>
      <point x="179" y="708" type="curve"/>
    </contour>
  </outline>
</glyph>
<glyph name="quoteright" format="1">
  <advance width="250"/>
  <unicode hex="2019"/>
  <unicode hex="02BC"/>
  <outline>
    <contour>
      <point x="183" y="620" type="curve" smooth="yes"/>
      <point x="183" y="565"/>
      <point x="143" y="510"/>
      <point x="71" y="447" type="curve"/>
      <point x="57" y="460" type="line"/>
      <point x="99" y="503"/>
      <point x="116" y="533"/>
      <point x="116" y="566" type="curve" smooth="yes"/>
      <point x="116" y="596"/>
      <point x="106" y="617"/>
      <point x="71" y="650" type="curve"/>
      <point x="132" y="708" type="line"/>
      <point x="166" y="683"/>
      <point x="183" y="657"/>
    </contour>
  </outline>
</glyph>
<glyph name="quotesinglbase" format="1">
  <advance width="250"/>
  <unicode hex="201A"/>
  <outline>
    <contour>
      <point x="183" y="26" type="curve" smooth="yes"/>
      <point x="183" y="-29"/>
      <point x="143" y="-84"/>
      <point x="71" y="-147" type="curve"/>
      <point x="57" y="-134" type="line"/>
      <point x="99" y="-91"/>
      <point x="116" y="-61"/>
      <point x="116" y="-28" type="curve" smooth="yes"/>
      <point x="116" y="2"/>
      <point x="106" y="23"/>
      <point x="71" y="56" type="curve"/>
      <point x="132" y="114" type="line"/>
      <point x="166" y="89"/>
      <point x="183" y="63"/>
    </contour>
  </outline>
</glyph>
<glyph name="quotedblleft" format="1">
  <advance width="430"/>
  <unicode hex="201C"/>
  <outline>
    <contour>
      <point x="373" y="695" type="line"/>
      <point x="331" y="652"/>
      <point x="314" y="622"/>
      <point x="314" y="589" type="curve" smooth="yes"/>
      <point x="314" y="559"/>
      <point x="324" y="538"/>
      <point x="359" y="505" type="curve"/>
      <point x="298" y="447" type="line"/>
      <point x="264" y="472"/>
      <point x="247" y="498"/>
      <point x="247" y="535" type="curve" smooth="yes"/>
      <point x="247" y="590"/>
      <point x="287" y="645"/>
      <point x="359" y="708" type="curve"/>
    </contour>
    <contour>
      <point x="193" y="695" type="line"/>
      <point x="151" y="652"/>
      <point x="134" y="622"/>
      <point x="134" y="589" type="curve" smooth="yes"/>
      <point x="134" y="559"/>
      <point x="144" y="538"/>
      <point x="179" y="505" type="curve"/>
      <point x="118" y="447" type="line"/>
      <point x="84" y="472"/>
      <point x="67" y="498"/>
      <point x="67" y="535" type="curve" smooth="yes"/>
      <point x="67" y="590"/>
      <point x="107" y="645"/>
      <point x="179" y="708" type="curve"/>
    </contour>
  </outline>
</glyph>
<glyph name="quotedblright" format="1">
  <advance width="430"/>
  <unicode hex="201D"/>
  <outline>
    <contour>
      <point x="363" y="620" type="curve" smooth="yes"/>
      <point x="363" y="565"/>
      <point x="323" y="510"/>
      <point x="251" y="447" type="curve"/>
      <point x="237" y="460" type="line"/>
      <point x="279" y="503"/>
      <point x="296" y="533"/>
      <point x="296" y="566" type="curve" smooth="yes"/>
      <point x="296" y="596"/>
      <point x="286" y="617"/>
      <point x="251" y="650" type="curve"/>
      <point x="312" y="708" type="line"/>
      <point x="346" y="683"/>
      <point x="363" y="657"/>
    </contour>
    <contour>
      <point x="183" y="620" type="curve" smooth="yes"/>
      <point x="183" y="565"/>
      <point x="143" y="510"/>
      <point x="71" y="447" type="curve"/>
      <point x="57" y="460" type="line"/>
      <point x="99" y="503"/>
      <point x="116" y="533"/>
      <point x="116" y="566" type="curve" smooth="yes"/>
      <point x="116" y="596"/>
      <point x="106" y="617"/>
      <point x="71" y="650" type="curve"/>
      <point x="132" y="708" type="line"/>
      <point x="166" y="683"/>
      <point x="183" y="657"/>
    </contour>
  </outline>
</glyph>
<glyph name="quotedblbase" format="1">
  <advance width="430"/>
  <unicode hex="201E"/>
  <outline>
    <contour>
      <point x="363" y="26" type="curve" smooth="yes"/>
      <point x="363" y="-29"/>
      <point x="323" y="-84"/>
      <point x="251" y="-147" type="curve"/>
      <point x="237" y="-134" type="line"/>
      <point x="279" y="-91"/>
      <point x="296" y="-61"/>
      <point x="296" y="-28" type="curve" smooth="yes"/>
      <point x="296" y="2"/>
      <point x="286" y="23"/>
      <point x="251" y="56" type="curve"/>
      <point x="312" y="114" type="line"/>
      <point x="346" y="89"/>
      <point x="363" y="63"/>
    </contour>
    <contour>
      <point x="183" y="26" type="curve" smooth="yes"/>
      <point x="183" y="-29"/>
      <point x="143" y="-84"/>
      <point x="71" y="-147" type="curve"/>
      <point x="57" y="-134" type="line"/>
      <point x="99" y="-91"/>
      <point x="116" y="-61"/>
      <point x="116" y="-28" type="curve" smooth="yes"/>
      <point x="116" y="2"/>
      <point x="106" y="23"/>
      <point x="71" y="56" type="curve"/>
      <point x="132" y="114" type="line"/>
      <point x="166" y="89"/>
      <point x="183" y="63"/>
    </contour>
  </outline>
</glyph>
<glyph name="dagger" format="1">
  <advance width="300"/>
  <unicode hex="2020"/>
  <outline>
    <contour>
      <point x="250" y="573" type="line"/>
      <point x="224" y="573"/>
      <point x="190" y="580"/>
      <point x="159" y="589" type="curve"/>
      <point x="171" y="488" type="line"/>
      <point x="155" y="308" type="line"/>
      <point x="145" y="308" type="line"/>
      <point x="129" y="488" type="line"/>
      <point x="141" y="589" type="line"/>
      <point x="110" y="580"/>
      <point x="76" y="573"/>
      <point x="50" y="573" type="curve"/>
      <point x="50" y="617" type="line"/>
      <point x="76" y="617"/>
      <point x="111" y="609"/>
      <point x="142" y="601" type="curve"/>
      <point x="130" y="637"/>
      <point x="122" y="679"/>
      <point x="122" y="700" type="curve"/>
      <point x="178" y="700" type="line"/>
      <point x="178" y="679"/>
      <point x="170" y="637"/>
      <point x="158" y="601" type="curve"/>
      <point x="189" y="609"/>
      <point x="224" y="617"/>
      <point x="250" y="617" type="curve"/>
    </contour>
  </outline>
</glyph>
<glyph name="daggerdbl" format="1">
  <advance width="300"/>
  <unicode hex="2021"/>
  <outline>
    <contour>
      <point x="250" y="395" type="line"/>
      <point x="224" y="395"/>
      <point x="190" y="402"/>
      <point x="159" y="410" type="curve"/>
      <point x="170" y="375"/>
      <point x="178" y="333"/>
      <point x="178" y="312" type="curve"/>
      <point x="122" y="312" type="line"/>
      <point x="122" y="333"/>
      <point x="130" y="375"/>
      <point x="141" y="410" type="curve"/>
      <point x="110" y="402"/>
      <point x="76" y="395"/>
      <point x="50" y="395" type="curve"/>
      <point x="50" y="437" type="line"/>
      <point x="77" y="437"/>
      <point x="110" y="430"/>
      <point x="142" y="421" type="curve"/>
      <point x="131" y="506" type="line"/>
      <point x="142" y="591" type="line"/>
      <point x="110" y="582"/>
      <point x="77" y="575"/>
      <point x="50" y="575" type="curve"/>
      <point x="50" y="617" type="line"/>
      <point x="76" y="617"/>
      <point x="110" y="610"/>
      <point x="141" y="602" type="curve"/>
      <point x="130" y="637"/>
      <point x="122" y="679"/>
      <point x="122" y="700" type="curve"/>
      <point x="178" y="700" type="line"/>
      <point x="178" y="679"/>
      <point x="170" y="637"/>
      <point x="159" y="602" type="curve"/>
      <point x="190" y="610"/>
      <point x="224" y="617"/>
      <point x="250" y="617" type="curve"/>
      <point x="250" y="575" type="line"/>
      <point x="223" y="575"/>
      <point x="190" y="582"/>
      <point x="158" y="591" type="curve"/>
      <point x="169" y="506" type="line"/>
      <point x="158" y="421" type="line"/>
      <point x="190" y="430"/>
      <point x="223" y="437"/>
      <point x="250" y="437" type="curve"/>
    </contour>
  </outline>
</glyph>
<glyph name="ellipsis" format="1">
  <advance width="750"/>
  <unicode hex="2026"/>
  <outline>
    <contour>
      <point x="681" y="51" type="curve" smooth="yes"/>
      <point x="681" y="20"/>
      <point x="656" y="-5"/>
      <point x="625" y="-5" type="curve" smooth="yes"/>
      <point x="594" y="-5"/>
      <point x="569" y="20"/>
      <point x="569" y="51" type="curve" smooth="yes"/>
      <point x="569" y="82"/>
      <point x="594" y="107"/>
      <point x="625" y="107" type="curve" smooth="yes"/>
      <point x="656" y="107"/>
      <point x="681" y="82"/>
    </contour>
    <contour>
      <point x="431" y="51" type="curve" smooth="yes"/>
      <point x="431" y="20"/>
      <point x="406" y="-5"/>
      <point x="375" y="-5" type="curve" smooth="yes"/>
      <point x="344" y="-5"/>
      <point x="319" y="20"/>
      <point x="319" y="51" type="curve" smooth="yes"/>
      <point x="319" y="82"/>
      <point x="344" y="107"/>
      <point x="375" y="107" type="curve" smooth="yes"/>
      <point x="406" y="107"/>
      <point x="431" y="82"/>
    </contour>
    <contour>
      <point x="181" y="51" type="curve" smooth="yes"/>
      <point x="181" y="20"/>
      <point x="156" y="-5"/>
      <point x="125" y="-5" type="curve" smooth="yes"/>
      <point x="94" y="-5"/>
      <point x="69" y="20"/>
      <point x="69" y="51" type="curve" smooth="yes"/>
      <point x="69" y="82"/>
      <point x="94" y="107"/>
      <point x="125" y="107" type="curve" smooth="yes"/>
      <point x="156" y="107"/>
      <point x="181" y="82"/>
    </contour>
  </outline>
</glyph>
<glyph name="guilsinglleft" format="1">
  <advance width="250"/>
  <unicode hex="2039"/>
  <outline>
    <contour>
      <point x="196" y="203" type="curve"/>
      <point x="181" y="198" type="line"/>
      <point x="148" y="265"/>
      <point x="95" y="310"/>
      <point x="49" y="324" type="curve"/>
      <point x="49" y="386" type="line"/>
      <point x="95" y="400"/>
      <point x="148" y="445"/>
      <point x="181" y="512" type="curve"/>
      <point x="196" y="507" type="line"/>
      <point x="180" y="448"/>
      <point x="154" y="395"/>
      <point x="126" y="355" type="curve"/>
      <point x="154" y="315"/>
      <point x="180" y="262"/>
    </contour>
  </outline>
</glyph>
<glyph name="guilsinglright" format="1">
  <advance width="250"/>
  <unicode hex="203A"/>
  <outline>
    <contour>
      <point x="201" y="324" type="line"/>
      <point x="155" y="310"/>
      <point x="102" y="265"/>
      <point x="69" y="198" type="curve"/>
      <point x="54" y="203" type="line"/>
      <point x="70" y="262"/>
      <point x="96" y="315"/>
      <point x="124" y="355" type="curve"/>
      <point x="96" y="395"/>
      <point x="70" y="448"/>
      <point x="54" y="507" type="curve"/>
      <point x="69" y="512" type="line"/>
      <point x="102" y="445"/>
      <point x="155" y="400"/>
      <point x="201" y="386" type="curve"/>
    </contour>
  </outline>
</glyph>
<glyph name="fraction" format="1">
  <advance width="380"/>
  <unicode hex="2044"/>
  <outline>
    <contour>
      <point x="435" y="705" type="line"/>
      <point x="-2" y="-5" type="line"/>
      <point x="-55" y="-5" type="line"/>
      <point x="382" y="705" type="line"/>
    </contour>
  </outline>
</glyph>
<glyph name="Euro" format="1">
  <advance width="655"/>
  <unicode hex="20AC"/>
  <outline>
    <contour>
      <point x="600" y="145" type="line"/>
      <point x="596" y="119"/>
      <point x="592" y="72"/>
      <point x="592" y="45" type="curve"/>
      <point x="531" y="13"/>
      <point x="460" y="-6"/>
      <point x="378" y="-6" type="curve" smooth="yes"/>
      <point x="209" y="-6"/>
      <point x="52" y="104"/>
      <point x="52" y="340" type="curve" smooth="yes"/>
      <point x="52" y="560"/>
      <point x="204" y="706"/>
      <point x="380" y="706" type="curve" smooth="yes"/>
      <point x="476" y="706"/>
      <point x="530" y="688"/>
      <point x="582" y="659" type="curve"/>
      <point x="582" y="632"/>
      <point x="586" y="585"/>
      <point x="590" y="559" type="curve"/>
      <point x="578" y="554" type="line"/>
      <point x="520" y="633"/>
      <point x="465" y="662"/>
      <point x="373" y="662" type="curve" smooth="yes"/>
      <point x="262" y="662"/>
      <point x="178" y="579"/>
      <point x="149" y="449" type="curve"/>
      <point x="462" y="449" type="line"/>
      <point x="462" y="410" type="line"/>
      <point x="143" y="410" type="line"/>
      <point x="140" y="391"/>
      <point x="139" y="370"/>
      <point x="139" y="349" type="curve" smooth="yes"/>
      <point x="139" y="331"/>
      <point x="140" y="313"/>
      <point x="142" y="296" type="curve"/>
      <point x="462" y="296" type="line"/>
      <point x="462" y="257" type="line"/>
      <point x="148" y="257" type="line"/>
      <point x="176" y="117"/>
      <point x="270" y="38"/>
      <point x="389" y="38" type="curve" smooth="yes"/>
      <point x="474" y="38"/>
      <point x="530" y="66"/>
      <point x="588" y="150" type="curve"/>
    </contour>
  </outline>
</glyph>
<glyph name="uni2117" format="1">
  <advance width="818"/>
  <unicode hex="2117"/>
  <outline>
    <contour>
      <point x="769" y="350" type="curve" smooth="yes"/>
      <point x="769" y="147"/>
      <point x="612" y="-10"/>
      <point x="409" y="-10" type="curve" smooth="yes"/>
      <point x="206" y="-10"/>
      <point x="49" y="147"/>
      <point x="49" y="350" type="curve" smooth="yes"/>
      <point x="49" y="553"/>
      <point x="206" y="710"/>
      <point x="409" y="710" type="curve" smooth="yes"/>
      <point x="612" y="710"/>
      <point x="769" y="553"/>
    </contour>
    <contour>
      <point x="736" y="350" type="curve" smooth="yes"/>
      <point x="736" y="535"/>
      <point x="596" y="681"/>
      <point x="409" y="681" type="curve" smooth="yes"/>
      <point x="222" y="681"/>
      <point x="82" y="535"/>
      <point x="82" y="350" type="curve" smooth="yes"/>
      <point x="82" y="165"/>
      <point x="222" y="19"/>
      <point x="409" y="19" type="curve" smooth="yes"/>
      <point x="596" y="19"/>
      <point x="736" y="165"/>
    </contour>
    <contour>
      <point x="595" y="458" type="curve" smooth="yes"/>
      <point x="595" y="373"/>
      <point x="502" y="340"/>
      <point x="399" y="340" type="curve" smooth="yes"/>
      <point x="383" y="340"/>
      <point x="365" y="340"/>
      <point x="347" y="340" type="curve"/>
      <point x="347" y="201" type="line" smooth="yes"/>
      <point x="347" y="182"/>
      <point x="350" y="174"/>
      <point x="373" y="167" type="curve"/>
      <point x="369" y="151" type="line"/>
      <point x="346" y="152"/>
      <point x="333" y="152"/>
      <point x="316" y="152" type="curve" smooth="yes"/>
      <point x="303" y="152"/>
      <point x="282" y="152"/>
      <point x="262" y="151" type="curve"/>
      <point x="259" y="166" type="line"/>
      <point x="278" y="173"/>
      <point x="283" y="182"/>
      <point x="283" y="194" type="curve" smooth="yes"/>
      <point x="283" y="503" type="line" smooth="yes"/>
      <point x="283" y="521"/>
      <point x="279" y="530"/>
      <point x="260" y="538" type="curve"/>
      <point x="263" y="553" type="line"/>
      <point x="301" y="552"/>
      <point x="321" y="552"/>
      <point x="363" y="552" type="curve" smooth="yes"/>
      <point x="394" y="552"/>
      <point x="427" y="553"/>
      <point x="457" y="553" type="curve" smooth="yes"/>
      <point x="545" y="553"/>
      <point x="595" y="521"/>
    </contour>
    <contour>
      <point x="525" y="453" type="curve" smooth="yes"/>
      <point x="525" y="495"/>
      <point x="498" y="518"/>
      <point x="447" y="518" type="curve" smooth="yes"/>
      <point x="422" y="518"/>
      <point x="377" y="518"/>
      <point x="347" y="518" type="curve"/>
      <point x="347" y="375" type="line"/>
      <point x="366" y="374"/>
      <point x="383" y="374"/>
      <point x="402" y="374" type="curve" smooth="yes"/>
      <point x="484" y="374"/>
      <point x="525" y="402"/>
    </contour>
  </outline>
</glyph>
<glyph name="trademark" format="1">
  <advance width="605"/>
  <unicode hex="2122"/>
  <outline>
    <contour>
      <point x="578" y="443" type="curve"/>
      <point x="576" y="435" type="line"/>
      <point x="562" y="435"/>
      <point x="550" y="436"/>
      <point x="540" y="436" type="curve" smooth="yes"/>
      <point x="528" y="436"/>
      <point x="517" y="436"/>
      <point x="501" y="435" type="curve"/>
      <point x="499" y="443" type="line"/>
      <point x="514" y="448"/>
      <point x="518" y="455"/>
      <point x="517" y="467" type="curve" smooth="yes"/>
      <point x="504" y="644" type="line"/>
      <point x="424" y="483" type="line"/>
      <point x="416" y="483" type="line"/>
      <point x="334" y="643" type="line"/>
      <point x="323" y="468" type="line" smooth="yes"/>
      <point x="322" y="455"/>
      <point x="323" y="450"/>
      <point x="342" y="443" type="curve"/>
      <point x="340" y="435" type="line"/>
      <point x="328" y="436"/>
      <point x="318" y="436"/>
      <point x="309" y="436" type="curve" smooth="yes"/>
      <point x="300" y="436"/>
      <point x="289" y="436"/>
      <point x="278" y="435" type="curve"/>
      <point x="276" y="443" type="line"/>
      <point x="290" y="448"/>
      <point x="293" y="453"/>
      <point x="294" y="467" type="curve" smooth="yes"/>
      <point x="307" y="663" type="line" smooth="yes"/>
      <point x="308" y="676"/>
      <point x="305" y="685"/>
      <point x="293" y="693" type="curve"/>
      <point x="295" y="701" type="line"/>
      <point x="301" y="700"/>
      <point x="311" y="700"/>
      <point x="319" y="700" type="curve" smooth="yes"/>
      <point x="332" y="700"/>
      <point x="341" y="700"/>
      <point x="351" y="701" type="curve"/>
      <point x="354" y="688"/>
      <point x="360" y="673"/>
      <point x="376" y="641" type="curve" smooth="yes"/>
      <point x="426" y="543" type="line"/>
      <point x="473" y="639" type="line" smooth="yes"/>
      <point x="488" y="669"/>
      <point x="497" y="687"/>
      <point x="498" y="701" type="curve"/>
      <point x="508" y="700"/>
      <point x="518" y="700"/>
      <point x="526" y="700" type="curve" smooth="yes"/>
      <point x="536" y="700"/>
      <point x="544" y="700"/>
      <point x="556" y="700" type="curve"/>
      <point x="558" y="692" type="line"/>
      <point x="544" y="687"/>
      <point x="542" y="679"/>
      <point x="543" y="670" type="curve" smooth="yes"/>
      <point x="555" y="471" type="line" smooth="yes"/>
      <point x="556" y="456"/>
      <point x="560" y="450"/>
    </contour>
    <contour>
      <point x="256" y="701" type="curve"/>
      <point x="241" y="662" type="line"/>
      <point x="234" y="662" type="line"/>
      <point x="232" y="670"/>
      <point x="227" y="673"/>
      <point x="210" y="673" type="curve" smooth="yes"/>
      <point x="160" y="673" type="line"/>
      <point x="160" y="466" type="line" smooth="yes"/>
      <point x="160" y="454"/>
      <point x="163" y="447"/>
      <point x="176" y="443" type="curve"/>
      <point x="174" y="435" type="line"/>
      <point x="162" y="436"/>
      <point x="152" y="436"/>
      <point x="142" y="436" type="curve" smooth="yes"/>
      <point x="134" y="436"/>
      <point x="120" y="436"/>
      <point x="108" y="435" type="curve"/>
      <point x="106" y="443" type="line"/>
      <point x="116" y="449"/>
      <point x="122" y="454"/>
      <point x="122" y="465" type="curve" smooth="yes"/>
      <point x="122" y="673" type="line"/>
      <point x="83" y="673" type="line" smooth="yes"/>
      <point x="56" y="673"/>
      <point x="47" y="670"/>
      <point x="35" y="660" type="curve"/>
      <point x="29" y="666" type="line"/>
      <point x="44" y="701" type="line"/>
      <point x="83" y="700"/>
      <point x="105" y="700"/>
      <point x="142" y="700" type="curve" smooth="yes"/>
      <point x="184" y="700"/>
      <point x="207" y="700"/>
    </contour>
  </outline>
</glyph>
<glyph name="radical" format="1">
  <advance width="423"/>
  <unicode hex="221A"/>
  <outline>
    <contour>
      <point x="59" y="226" type="line" smooth="yes"/>
      <point x="49" y="265"/>
      <point x="39" y="279"/>
      <point x="12" y="289" type="curve"/>
      <point x="16" y="299" type="line"/>
      <point x="41" y="297"/>
      <point x="55" y="297"/>
      <point x="73" y="297" type="curve" smooth="yes"/>
      <point x="88" y="297"/>
      <point x="101" y="297"/>
      <point x="124" y="299" type="curve"/>
      <point x="184" y="72" type="line"/>
      <point x="363" y="700" type="line"/>
      <point x="399" y="700" type="line"/>
      <point x="198" y="0" type="line"/>
      <point x="118" y="0" type="line"/>
    </contour>
  </outline>
</glyph>
<glyph name="R_A" format="1">
  <advance width="1360"/>
  <outline>
    <contour>
      <point x="1351" y="9" type="curve"/>
      <point x="1349" y="-1" type="line"/>
      <point x="1320" y="2"/>
      <point x="1295" y="1"/>
      <point x="1258" y="1" type="curve" smooth="yes"/>
      <point x="1224" y="1"/>
      <point x="1187" y="1"/>
      <point x="1155" y="-1" type="curve"/>
      <point x="1152" y="9" type="line"/>
      <point x="1170" y="17"/>
      <point x="1184" y="35"/>
      <point x="1184" y="51" type="curve" smooth="yes"/>
      <point x="1184" y="69"/>
      <point x="1179" y="88"/>
      <point x="1166" y="118" type="curve" smooth="yes"/>
      <point x="1076" y="327" type="line"/>
      <point x="846" y="327" type="line"/>
      <point x="750" y="131" type="line" smooth="yes"/>
      <point x="735" y="100"/>
      <point x="729" y="80"/>
      <point x="729" y="59" type="curve" smooth="yes"/>
      <point x="729" y="32"/>
      <point x="742" y="23"/>
      <point x="768" y="9" type="curve"/>
      <point x="765" y="-1" type="line"/>
      <point x="738" y="0"/>
      <point x="728" y="0"/>
      <point x="707" y="0" type="curve" smooth="yes"/>
      <point x="539" y="0"/>
      <point x="406" y="127"/>
      <point x="302" y="353" type="curve"/>
      <point x="256" y="353"/>
      <point x="223" y="353"/>
      <point x="188" y="353" type="curve"/>
      <point x="188" y="81" type="line" smooth="yes"/>
      <point x="188" y="40"/>
      <point x="200" y="23"/>
      <point x="231" y="10" type="curve"/>
      <point x="226" y="-1" type="line"/>
      <point x="194" y="2"/>
      <point x="178" y="1"/>
      <point x="150" y="1" type="curve" smooth="yes"/>
      <point x="122" y="1"/>
      <point x="105" y="1"/>
      <point x="76" y="-1" type="curve"/>
      <point x="72" y="8" type="line"/>
      <point x="96" y="19"/>
      <point x="106" y="40"/>
      <point x="106" y="73" type="curve" smooth="yes"/>
      <point x="106" y="629" type="line" smooth="yes"/>
      <point x="106" y="651"/>
      <point x="98" y="677"/>
      <point x="70" y="692" type="curve"/>
      <point x="73" y="701" type="line"/>
      <point x="123" y="699"/>
      <point x="161" y="699"/>
      <point x="211" y="699" type="curve" smooth="yes"/>
      <point x="264" y="699"/>
      <point x="324" y="700"/>
      <point x="376" y="700" type="curve" smooth="yes"/>
      <point x="498" y="700"/>
      <point x="599" y="649"/>
      <point x="599" y="539" type="curve" smooth="yes"/>
      <point x="599" y="434"/>
      <point x="514" y="377"/>
      <point x="402" y="359" type="curve"/>
      <point x="463" y="206"/>
      <point x="542" y="93"/>
      <point x="634" y="42" type="curve"/>
      <point x="649" y="50"/>
      <point x="660" y="64"/>
      <point x="677" y="98" type="curve" smooth="yes"/>
      <point x="941" y="625" type="line" smooth="yes"/>
      <point x="961" y="665"/>
      <point x="971" y="695"/>
      <point x="971" y="719" type="curve"/>
      <point x="988" y="719" type="line"/>
      <point x="1267" y="92" type="line" smooth="yes"/>
      <point x="1286" y="49"/>
      <point x="1310" y="23"/>
    </contour>
    <contour>
      <point x="511" y="532" type="curve" smooth="yes"/>
      <point x="511" y="617"/>
      <point x="461" y="655"/>
      <point x="356" y="655" type="curve" smooth="yes"/>
      <point x="292" y="655"/>
      <point x="246" y="654"/>
      <point x="188" y="653" type="curve"/>
      <point x="188" y="399" type="line"/>
      <point x="236" y="399"/>
      <point x="281" y="398"/>
      <point x="331" y="398" type="curve" smooth="yes"/>
      <point x="429" y="398"/>
      <point x="511" y="440"/>
    </contour>
    <contour>
      <point x="1056" y="372" type="line"/>
      <point x="968" y="576" type="line"/>
      <point x="868" y="372" type="line"/>
    </contour>
  </outline>
</glyph>
<glyph name="bullet" format="1">
  <advance width="390"/>
  <outline>
    <contour>
      <point x="321" y="375" type="curve" smooth="yes"/>
      <point x="321" y="304"/>
      <point x="266" y="249"/>
      <point x="195" y="249" type="curve" smooth="yes"/>
      <point x="124" y="249"/>
      <point x="69" y="304"/>
      <point x="69" y="375" type="curve" smooth="yes"/>
      <point x="69" y="446"/>
      <point x="124" y="501"/>
      <point x="195" y="501" type="curve" smooth="yes"/>
      <point x="266" y="501"/>
      <point x="321" y="446"/>
    </contour>
  </outline>
</glyph>
<glyph name="macron" format="1">
  <advance width="500"/>
  <outline>
    <contour>
      <point x="375" y="767" type="line"/>
      <point x="125" y="767" type="line"/>
      <point x="125" y="823" type="line"/>
      <point x="375" y="823" type="line"/>
    </contour>
  </outline>
</glyph>
<glyph name="registered.big" format="1">
  <advance width="818"/>
  <outline>
    <contour>
      <point x="769" y="350" type="curve" smooth="yes"/>
      <point x="769" y="147"/>
      <point x="612" y="-10"/>
      <point x="409" y="-10" type="curve" smooth="yes"/>
      <point x="206" y="-10"/>
      <point x="49" y="147"/>
      <point x="49" y="350" type="curve" smooth="yes"/>
      <point x="49" y="553"/>
      <point x="206" y="710"/>
      <point x="409" y="710" type="curve" smooth="yes"/>
      <point x="612" y="710"/>
      <point x="769" y="553"/>
    </contour>
    <contour>
      <point x="736" y="350" type="curve" smooth="yes"/>
      <point x="736" y="535"/>
      <point x="596" y="681"/>
      <point x="409" y="681" type="curve" smooth="yes"/>
      <point x="222" y="681"/>
      <point x="82" y="535"/>
      <point x="82" y="350" type="curve" smooth="yes"/>
      <point x="82" y="165"/>
      <point x="222" y="19"/>
      <point x="409" y="19" type="curve" smooth="yes"/>
      <point x="596" y="19"/>
      <point x="736" y="165"/>
    </contour>
    <contour>
      <point x="628" y="172" type="curve"/>
      <point x="625" y="154" type="line"/>
      <point x="523" y="156"/>
      <point x="442" y="221"/>
      <point x="373" y="351" type="curve"/>
      <point x="355" y="351"/>
      <point x="339" y="351"/>
      <point x="321" y="351" type="curve"/>
      <point x="321" y="206" type="line" smooth="yes"/>
      <point x="321" y="188"/>
      <point x="326" y="181"/>
      <point x="351" y="172" type="curve"/>
      <point x="347" y="157" type="line"/>
      <point x="324" y="158"/>
      <point x="307" y="158"/>
      <point x="290" y="158" type="curve" smooth="yes"/>
      <point x="273" y="158"/>
      <point x="260" y="158"/>
      <point x="239" y="157" type="curve"/>
      <point x="234" y="170" type="line"/>
      <point x="253" y="179"/>
      <point x="258" y="188"/>
      <point x="258" y="202" type="curve" smooth="yes"/>
      <point x="258" y="515" type="line" smooth="yes"/>
      <point x="258" y="524"/>
      <point x="254" y="535"/>
      <point x="233" y="545" type="curve"/>
      <point x="237" y="560" type="line"/>
      <point x="272" y="558"/>
      <point x="297" y="558"/>
      <point x="327" y="558" type="curve" smooth="yes"/>
      <point x="358" y="558"/>
      <point x="394" y="559"/>
      <point x="426" y="559" type="curve" smooth="yes"/>
      <point x="512" y="559"/>
      <point x="567" y="533"/>
      <point x="567" y="462" type="curve" smooth="yes"/>
      <point x="567" y="403"/>
      <point x="520" y="368"/>
      <point x="450" y="356" type="curve"/>
      <point x="498" y="249"/>
      <point x="556" y="184"/>
    </contour>
    <contour>
      <point x="499" y="458" type="curve" smooth="yes"/>
      <point x="499" y="502"/>
      <point x="471" y="524"/>
      <point x="414" y="524" type="curve" smooth="yes"/>
      <point x="378" y="524"/>
      <point x="352" y="524"/>
      <point x="321" y="524" type="curve"/>
      <point x="321" y="386" type="line"/>
      <point x="350" y="386"/>
      <point x="373" y="386"/>
      <point x="399" y="386" type="curve" smooth="yes"/>
      <point x="458" y="386"/>
      <point x="499" y="412"/>
    </contour>
  </outline>
</glyph>
<glyph name="registered" format="1">
  <advance width="378"/>
  <outline>
    <contour>
      <point x="328" y="566" type="curve" smooth="yes"/>
      <point x="328" y="488"/>
      <point x="267" y="427"/>
      <point x="189" y="427" type="curve" smooth="yes"/>
      <point x="111" y="427"/>
      <point x="50" y="488"/>
      <point x="50" y="566" type="curve" smooth="yes"/>
      <point x="50" y="644"/>
      <point x="111" y="705"/>
      <point x="189" y="705" type="curve" smooth="yes"/>
      <point x="267" y="705"/>
      <point x="328" y="644"/>
    </contour>
    <contour>
      <point x="310" y="566" type="curve" smooth="yes"/>
      <point x="310" y="638"/>
      <point x="256" y="691"/>
      <point x="189" y="691" type="curve" smooth="yes"/>
      <point x="122" y="691"/>
      <point x="68" y="638"/>
      <point x="68" y="566" type="curve" smooth="yes"/>
      <point x="68" y="494"/>
      <point x="122" y="441"/>
      <point x="189" y="441" type="curve" smooth="yes"/>
      <point x="256" y="441"/>
      <point x="310" y="494"/>
    </contour>
    <contour>
      <point x="273" y="501" type="curve"/>
      <point x="271" y="494" type="line"/>
      <point x="234" y="494"/>
      <point x="203" y="517"/>
      <point x="178" y="564" type="curve"/>
      <point x="172" y="564"/>
      <point x="168" y="564"/>
      <point x="162" y="564" type="curve"/>
      <point x="162" y="513" type="line" smooth="yes"/>
      <point x="162" y="507"/>
      <point x="164" y="504"/>
      <point x="172" y="501" type="curve"/>
      <point x="171" y="495" type="line"/>
      <point x="163" y="495"/>
      <point x="158" y="495"/>
      <point x="149" y="495" type="curve" smooth="yes"/>
      <point x="141" y="495"/>
      <point x="136" y="495"/>
      <point x="128" y="495" type="curve"/>
      <point x="126" y="501" type="line"/>
      <point x="134" y="503"/>
      <point x="135" y="507"/>
      <point x="135" y="512" type="curve" smooth="yes"/>
      <point x="135" y="628" type="line" smooth="yes"/>
      <point x="135" y="631"/>
      <point x="133" y="637"/>
      <point x="126" y="638" type="curve"/>
      <point x="128" y="645" type="line"/>
      <point x="142" y="644"/>
      <point x="151" y="644"/>
      <point x="162" y="644" type="curve" smooth="yes"/>
      <point x="173" y="644"/>
      <point x="186" y="644"/>
      <point x="198" y="644" type="curve" smooth="yes"/>
      <point x="231" y="644"/>
      <point x="252" y="634"/>
      <point x="252" y="607" type="curve" smooth="yes"/>
      <point x="252" y="585"/>
      <point x="236" y="572"/>
      <point x="209" y="567" type="curve"/>
      <point x="226" y="531"/>
      <point x="248" y="506"/>
    </contour>
    <contour>
      <point x="222" y="605" type="curve" smooth="yes"/>
      <point x="222" y="621"/>
      <point x="213" y="629"/>
      <point x="193" y="629" type="curve" smooth="yes"/>
      <point x="182" y="629"/>
      <point x="172" y="629"/>
      <point x="162" y="629" type="curve"/>
      <point x="162" y="580" type="line"/>
      <point x="171" y="580"/>
      <point x="180" y="580"/>
      <point x="188" y="580" type="curve" smooth="yes"/>
      <point x="208" y="580"/>
      <point x="222" y="590"/>
    </contour>
  </outline>
</glyph>
<glyph name="uni2022.ornm_arrow_shaft" format="1">
  <advance width="250"/>
  <outline>
    <contour>
      <point x="253" y="348" type="line"/>
      <point x="-3" y="348" type="line"/>
      <point x="-3" y="400" type="line"/>
      <point x="253" y="400" type="line"/>
    </contour>
  </outline>
</glyph>
<glyph name="uni2022.ornm_arrowleft_head" format="1">
  <advance width="500"/>
  <outline>
    <contour>
      <point x="503.0" y="348.0" type="line"/>
      <point x="503.0" y="400.0" type="line"/>
      <point x="359.0" y="400.0" type="line"/>
      <point x="444.0" y="489.0" type="line"/>
      <point x="444.0" y="492.0" type="line"/>
      <point x="10.0" y="375.0" type="line"/>
      <point x="10.0" y="373.0" type="line"/>
      <point x="444.0" y="256.0" type="line"/>
      <point x="444.0" y="259.0" type="line"/>
      <point x="359.0" y="348.0" type="line"/>
    </contour>
  </outline>
</glyph>
<glyph name="uni2022.ornm_arrowleft_tail" format="1">
  <advance width="250"/>
  <outline>
    <contour>
      <point x="313" y="280" type="line"/>
      <point x="60" y="280" type="line"/>
      <point x="-28" y="374" type="line"/>
      <point x="60" y="468" type="line"/>
      <point x="313" y="468" type="line"/>
      <point x="225" y="374" type="line"/>
    </contour>
  </outline>
</glyph>
